{"glyphs":{"0":{"ha":833,"x_min":155,"x_max":678,"o":"m 678 496 l 678 355 q 591 64 678 171 q 418 -20 522 -20 q 323 0 368 -20 q 248 56 279 20 q 204 127 228 78 q 171 218 181 177 q 155 355 155 277 l 155 496 q 243 787 155 680 q 416 871 311 871 q 511 851 467 871 q 586 795 555 831 q 629 723 606 772 q 663 633 652 673 q 678 496 678 574 m 621 488 q 598 638 621 569 q 547 749 576 708 q 503 790 530 773 q 416 814 465 814 q 267 716 321 814 q 212 488 212 618 l 212 363 q 235 212 212 282 q 287 101 258 142 q 330 61 303 78 q 418 37 369 37 q 567 135 513 37 q 621 363 621 233 l 621 488 z "},"1":{"ha":833,"x_min":155,"x_max":678,"o":"m 445 863 l 445 57 l 640 57 q 669 49 661 57 q 678 28 678 41 q 669 8 678 16 q 640 0 661 0 l 193 0 q 163 8 172 0 q 155 28 155 16 q 163 49 155 41 q 193 57 172 57 l 388 57 l 388 784 l 202 726 q 182 722 189 722 q 164 730 172 722 q 155 750 155 739 q 162 769 155 760 q 184 781 168 774 l 445 863 z "},"2":{"ha":833,"x_min":116,"x_max":667,"o":"m 172 57 l 609 57 l 609 79 q 617 109 609 100 q 638 117 625 117 q 659 109 650 117 q 667 79 667 100 l 667 0 l 116 0 l 116 84 q 454 401 290 240 q 559 512 530 477 q 598 574 587 547 q 608 628 608 601 q 549 758 608 701 q 407 814 490 814 q 275 771 332 814 q 200 665 217 728 q 190 644 196 649 q 171 637 182 637 q 152 645 159 637 q 144 664 144 653 q 179 752 144 696 q 278 840 215 808 q 406 871 340 871 q 589 798 513 871 q 666 630 666 724 q 653 558 666 591 q 609 486 640 525 q 498 368 578 447 q 172 61 298 170 l 172 57 z "},"3":{"ha":833,"x_min":132,"x_max":695,"o":"m 534 463 q 654 367 612 428 q 695 239 695 305 q 612 58 695 136 q 404 -20 529 -20 q 252 11 331 -20 q 142 75 174 42 q 132 98 132 85 q 140 117 132 109 q 159 125 148 125 q 183 115 170 125 q 406 37 288 37 q 571 99 505 37 q 638 237 638 161 q 605 336 638 288 q 511 413 572 385 q 386 441 449 441 q 357 449 366 441 q 348 470 348 457 q 356 490 348 482 q 382 498 365 498 l 431 498 q 557 545 507 498 q 607 653 607 591 q 555 766 607 717 q 418 814 503 814 q 310 794 359 814 q 231 739 260 774 q 214 722 220 725 q 201 719 208 719 q 181 727 189 719 q 173 745 173 734 q 232 814 173 772 q 418 871 314 871 q 595 807 526 871 q 665 652 665 742 q 631 545 665 595 q 534 463 598 494 z "},"4":{"ha":833,"x_min":145,"x_max":667,"o":"m 523 238 l 145 238 l 145 304 l 462 851 l 581 851 l 581 295 l 628 295 q 658 287 649 295 q 667 267 667 279 q 658 246 667 254 q 628 238 649 238 l 581 238 l 581 57 l 628 57 q 658 49 649 57 q 667 28 667 41 q 658 8 667 16 q 628 0 649 0 l 416 0 q 387 8 395 0 q 378 28 378 16 q 387 49 378 41 q 416 57 395 57 l 523 57 l 523 238 m 523 295 l 523 793 l 493 793 l 205 295 l 523 295 z "},"5":{"ha":833,"x_min":133,"x_max":695,"o":"m 260 793 l 260 515 q 356 546 310 536 q 444 557 402 557 q 623 481 551 557 q 695 283 695 406 q 614 64 695 148 q 410 -20 532 -20 q 255 16 330 -20 q 159 78 202 41 q 133 115 133 100 q 141 136 133 127 q 160 144 149 144 q 184 132 172 144 q 408 37 287 37 q 572 105 507 37 q 637 286 637 173 q 581 441 637 382 q 438 500 525 500 q 260 453 349 500 q 230 442 239 442 q 210 450 218 442 q 203 473 203 458 l 203 851 l 600 851 q 629 843 621 851 q 638 822 638 835 q 629 802 638 810 q 600 793 621 793 l 260 793 z "},"6":{"ha":833,"x_min":186,"x_max":712,"o":"m 247 360 q 356 475 300 438 q 480 513 412 513 q 642 437 571 513 q 712 250 712 361 q 648 64 712 149 q 470 -20 583 -20 q 332 25 396 -20 q 231 165 268 71 q 186 425 186 282 q 229 624 186 532 q 315 749 261 695 q 442 837 370 803 q 598 871 514 871 q 693 848 655 871 q 709 821 709 838 q 702 801 709 809 q 683 793 694 793 q 662 800 674 793 q 593 814 634 814 q 352 700 460 814 q 243 430 243 587 q 247 360 243 408 m 260 266 q 341 90 286 142 q 471 37 396 37 q 601 96 547 37 q 655 250 655 155 q 601 397 655 339 q 478 456 547 456 q 351 399 412 456 q 260 266 311 362 z "},"7":{"ha":833,"x_min":143,"x_max":666,"o":"m 608 768 l 608 793 l 200 793 l 200 743 q 192 714 200 723 q 172 705 184 705 q 151 714 159 705 q 143 743 143 723 l 143 851 l 666 851 l 666 760 l 437 28 q 424 4 431 10 q 407 -1 416 -1 q 387 7 395 -1 q 378 26 378 15 q 382 45 378 33 l 608 768 z "},"8":{"ha":833,"x_min":157,"x_max":677,"o":"m 534 441 q 641 350 605 407 q 677 229 677 294 q 602 54 677 127 q 417 -20 526 -20 q 233 54 309 -20 q 157 229 157 127 q 193 350 157 293 q 301 441 229 406 q 210 516 239 477 q 171 637 171 571 q 243 801 171 731 q 417 871 315 871 q 591 801 519 871 q 663 637 663 731 q 624 517 663 571 q 534 441 596 477 m 605 635 q 550 761 605 709 q 416 814 496 814 q 283 761 338 814 q 229 636 229 708 q 282 520 229 570 q 416 470 336 470 q 551 520 497 470 q 605 635 605 570 m 621 227 q 562 358 621 302 q 417 414 504 414 q 272 358 330 414 q 214 228 214 302 q 272 94 214 151 q 417 37 331 37 q 562 94 503 37 q 621 227 621 151 z "},"9":{"ha":833,"x_min":186,"x_max":710,"o":"m 650 481 q 546 364 606 404 q 421 325 485 325 q 307 359 362 325 q 219 458 252 393 q 186 595 186 524 q 251 786 186 700 q 425 871 316 871 q 566 823 502 871 q 665 684 629 775 q 710 411 710 566 q 671 210 710 290 q 596 105 646 156 q 484 22 546 54 q 306 -20 398 -20 q 206 3 245 -20 q 189 30 189 14 q 197 49 189 41 q 216 57 205 57 q 240 50 224 57 q 301 37 267 37 q 549 141 446 37 q 653 401 653 245 q 650 481 653 430 m 640 576 q 550 764 604 714 q 426 814 497 814 q 298 753 353 814 q 243 596 243 692 q 298 443 243 503 q 422 382 353 382 q 502 404 463 382 q 575 469 541 425 q 640 576 597 498 z "}," ":{"ha":833,"x_min":0,"x_max":0,"o":""},"!":{"ha":833,"x_min":333,"x_max":500,"o":"m 471 793 l 446 334 q 436 303 444 312 q 417 294 429 294 q 397 303 405 294 q 388 334 389 312 l 363 793 q 361 817 361 810 q 377 856 361 840 q 417 871 393 871 q 456 856 441 871 q 472 817 472 840 q 471 793 472 810 m 404 121 l 430 121 q 480 100 459 121 q 500 50 500 79 q 479 0 500 20 q 430 -20 458 -20 l 404 -20 q 354 0 374 -20 q 333 50 333 21 q 354 100 333 80 q 404 121 375 121 z "},"\"":{"ha":833,"x_min":180,"x_max":652,"o":"m 180 837 l 361 837 l 313 507 q 298 471 309 481 q 271 460 288 460 q 243 471 254 460 q 228 507 232 481 l 180 837 m 471 837 l 652 837 l 604 507 q 589 471 600 481 q 562 460 578 460 q 534 471 545 460 q 519 507 523 481 l 471 837 z "},"#":{"ha":833,"x_min":127,"x_max":706,"o":"m 543 502 l 530 323 l 640 323 q 669 315 660 323 q 677 294 677 307 q 669 274 677 281 q 640 266 660 266 l 526 266 l 504 -52 q 495 -80 503 -72 q 475 -88 487 -88 l 464 -85 q 447 -58 447 -75 l 447 -47 l 469 266 l 340 266 l 319 -52 q 309 -80 317 -72 q 290 -88 301 -88 l 278 -85 q 261 -58 261 -75 l 262 -47 l 283 266 l 165 266 q 136 274 144 266 q 127 294 127 281 q 136 315 127 307 q 165 323 144 323 l 288 323 l 300 502 l 194 502 q 164 510 173 502 q 155 530 155 517 q 164 551 155 543 q 194 559 173 559 l 304 559 l 326 876 q 336 904 328 896 q 355 913 344 913 l 367 910 q 384 883 384 899 l 383 872 l 361 559 l 490 559 l 512 876 q 521 904 513 896 q 541 913 529 913 l 552 910 q 570 883 570 899 l 569 872 l 547 559 l 668 559 q 697 551 688 559 q 706 530 706 543 q 697 510 706 517 q 668 502 688 502 l 543 502 m 486 502 l 357 502 l 345 323 l 473 323 l 486 502 z "},"$":{"ha":833,"x_min":155,"x_max":678,"o":"m 387 812 l 387 884 q 395 914 387 905 q 416 923 403 923 q 436 914 429 923 q 444 884 444 905 l 444 812 q 520 798 490 808 q 591 760 550 787 q 600 785 591 777 q 619 793 608 793 q 640 785 632 793 q 648 755 648 776 l 648 671 q 640 642 648 650 q 619 633 632 633 q 601 640 608 633 q 591 664 593 647 q 549 722 587 696 q 418 758 493 758 q 291 713 341 758 q 241 612 241 669 q 286 526 241 556 q 426 483 319 503 q 570 446 532 463 q 651 381 625 422 q 678 283 678 340 q 618 147 678 205 q 444 77 557 88 l 444 -91 q 436 -121 444 -112 q 416 -130 429 -130 q 395 -121 403 -130 q 387 -91 387 -112 l 387 77 q 212 144 283 83 q 209 108 212 115 q 199 97 207 102 q 183 92 192 92 q 163 100 171 92 q 155 130 155 109 l 155 241 q 162 270 155 261 q 183 279 170 279 q 204 271 195 279 q 212 243 210 264 q 270 170 216 208 q 416 132 323 132 q 566 178 511 132 q 621 283 621 223 q 601 352 621 323 q 537 399 581 380 q 418 427 509 410 q 235 494 286 453 q 184 613 184 534 q 239 744 184 686 q 387 812 295 802 z "},"%":{"ha":833,"x_min":127,"x_max":708,"o":"m 503 689 q 452 564 503 616 q 330 513 401 513 q 207 564 258 513 q 156 689 156 616 q 207 813 156 762 q 330 865 258 865 q 452 813 401 865 q 503 689 503 762 m 463 689 q 424 785 463 745 q 330 824 385 824 q 236 785 275 824 q 197 689 197 745 q 236 593 197 633 q 330 554 275 554 q 424 593 385 554 q 463 689 463 633 m 688 492 l 160 320 q 146 317 151 317 q 133 323 138 317 q 127 338 127 330 q 132 351 127 345 q 147 359 135 355 l 675 531 q 690 534 684 534 q 702 528 696 534 q 708 513 708 522 q 703 500 708 507 q 688 492 700 496 m 679 159 q 628 35 679 86 q 505 -16 576 -16 q 382 35 433 -16 q 331 159 331 87 q 382 284 331 233 q 505 336 433 336 q 628 284 576 336 q 679 159 679 233 m 637 159 q 598 255 637 216 q 505 294 559 294 q 411 255 450 294 q 372 159 372 216 q 411 64 372 104 q 505 24 450 24 q 598 64 559 24 q 637 159 637 103 z "},"&":{"ha":833,"x_min":172,"x_max":693,"o":"m 578 0 l 534 67 q 377 -22 473 -22 q 234 42 296 -22 q 172 199 172 106 q 214 327 172 271 q 329 404 256 382 q 269 510 279 485 q 259 563 259 536 q 310 681 259 630 q 432 731 361 731 q 478 724 455 731 q 524 703 501 718 q 560 718 553 718 q 580 710 572 718 q 589 689 589 701 q 584 674 589 681 q 565 660 579 667 l 521 636 q 478 664 500 655 q 433 673 456 673 q 351 639 386 673 q 316 562 316 604 q 377 420 316 517 l 534 170 q 600 351 576 248 l 655 351 q 684 342 675 351 q 693 322 693 334 q 688 306 693 313 q 676 296 683 298 q 643 293 669 293 q 568 115 610 178 l 607 57 l 655 57 q 684 49 675 57 q 693 28 693 41 q 684 8 693 16 q 655 0 675 0 l 578 0 m 353 354 q 263 299 296 340 q 229 199 229 257 q 274 83 229 131 q 376 35 319 35 q 501 120 452 35 l 353 354 z "},"'":{"ha":833,"x_min":326,"x_max":507,"o":"m 326 851 l 507 851 l 459 495 q 444 455 455 467 q 416 444 433 444 q 389 455 399 444 q 374 495 378 467 l 326 851 z "},"(":{"ha":833,"x_min":410,"x_max":640,"o":"m 410 338 q 431 503 410 416 q 509 705 451 591 q 593 844 566 820 q 610 851 601 851 q 631 843 623 851 q 640 823 640 835 q 635 808 640 817 q 528 560 560 671 q 496 338 496 449 q 528 115 496 226 q 635 -133 560 3 q 640 -148 640 -141 q 631 -168 640 -159 q 610 -176 623 -176 q 593 -169 601 -176 q 511 -34 568 -146 q 432 164 454 78 q 410 338 410 250 z "},")":{"ha":833,"x_min":204,"x_max":433,"o":"m 433 337 q 413 172 433 259 q 335 -30 393 85 q 251 -168 277 -145 q 233 -176 243 -176 q 213 -168 221 -176 q 204 -148 204 -159 q 209 -133 204 -141 q 315 115 283 3 q 347 337 347 226 q 315 560 347 449 q 209 808 283 671 q 204 823 204 817 q 213 843 204 835 q 233 851 221 851 q 251 844 243 851 q 333 709 276 821 q 412 511 390 597 q 433 337 433 425 z "},"*":{"ha":833,"x_min":153,"x_max":675,"o":"m 385 618 l 385 812 q 393 842 385 833 q 414 851 401 851 q 435 842 427 851 q 443 812 443 833 l 443 618 l 628 678 q 648 682 641 682 q 667 674 659 682 q 675 654 675 665 q 669 636 675 644 q 646 623 663 629 l 460 563 l 575 406 q 586 381 586 390 q 577 360 586 369 q 557 352 569 352 q 528 372 543 352 l 414 530 l 299 372 q 271 352 285 352 q 250 360 258 352 q 241 381 241 369 q 253 406 241 390 l 368 563 l 182 624 q 159 636 165 629 q 153 654 153 644 q 161 674 153 665 q 180 682 170 682 q 200 678 187 682 l 385 618 z "},"+":{"ha":833,"x_min":98,"x_max":736,"o":"m 446 368 l 446 83 q 437 54 446 63 q 416 45 429 45 q 396 54 404 45 q 388 83 388 63 l 388 368 l 136 368 q 106 376 115 368 q 98 397 98 384 q 106 417 98 410 q 136 425 115 425 l 388 425 l 388 709 q 396 738 388 729 q 417 747 404 747 q 437 738 429 747 q 446 709 446 729 l 446 425 l 698 425 q 727 417 718 425 q 736 397 736 410 q 727 376 736 384 q 698 368 718 368 l 446 368 z "},",":{"ha":833,"x_min":203,"x_max":489,"o":"m 304 205 l 489 205 l 288 -170 q 243 -203 269 -203 q 215 -192 227 -203 q 203 -163 203 -180 q 205 -148 203 -156 l 304 205 z "},"-":{"ha":833,"x_min":126,"x_max":707,"o":"m 707 433 l 707 352 l 126 352 l 126 433 l 707 433 z "},".":{"ha":833,"x_min":313,"x_max":522,"o":"m 405 163 l 429 163 q 494 137 467 163 q 522 72 522 110 q 494 6 522 33 q 429 -20 467 -20 l 405 -20 q 340 6 367 -20 q 313 71 313 33 q 340 137 313 111 q 405 163 368 163 z "},"/":{"ha":833,"x_min":156,"x_max":680,"o":"m 673 892 l 214 -90 q 184 -115 203 -115 q 164 -106 173 -115 q 156 -87 156 -98 q 163 -65 156 -79 l 621 917 q 635 937 628 932 q 651 942 642 942 q 671 933 663 942 q 680 915 680 925 q 673 892 680 907 z "},":":{"ha":833,"x_min":313,"x_max":522,"o":"m 405 587 l 429 587 q 494 560 467 587 q 522 496 522 533 q 494 429 522 456 q 429 403 467 403 l 405 403 q 340 430 367 403 q 313 494 313 457 q 340 561 313 534 q 405 587 368 587 m 405 163 l 429 163 q 494 137 467 163 q 522 72 522 110 q 494 6 522 33 q 429 -20 467 -20 l 405 -20 q 340 6 367 -20 q 313 71 313 33 q 340 137 313 111 q 405 163 368 163 z "},";":{"ha":833,"x_min":212,"x_max":521,"o":"m 404 587 l 429 587 q 494 560 467 587 q 521 496 521 533 q 494 429 521 456 q 429 403 467 403 l 404 403 q 339 430 366 403 q 313 494 313 457 q 340 561 313 534 q 404 587 368 587 m 305 205 l 484 205 l 292 -110 q 270 -139 278 -133 q 250 -145 261 -145 q 222 -135 233 -145 q 212 -111 212 -125 q 216 -90 212 -102 l 305 205 z "},"<":{"ha":833,"x_min":66,"x_max":733,"o":"m 66 395 l 682 739 q 705 747 697 747 q 725 738 716 747 q 733 718 733 730 q 710 688 733 701 l 182 395 l 709 102 q 732 73 732 90 q 724 53 732 61 q 704 44 715 44 q 682 52 696 44 l 66 395 z "},"=":{"ha":833,"x_min":68,"x_max":766,"o":"m 728 471 l 106 471 q 77 479 86 471 q 68 500 68 488 q 77 521 68 513 q 106 529 86 529 l 728 529 q 757 521 748 529 q 766 500 766 513 q 757 479 766 488 q 728 471 748 471 m 728 267 l 106 267 q 77 275 86 267 q 68 296 68 283 q 77 316 68 309 q 106 324 86 324 l 728 324 q 757 316 748 324 q 766 296 766 309 q 757 275 766 283 q 728 267 748 267 z "},">":{"ha":833,"x_min":100,"x_max":767,"o":"m 767 395 l 151 52 q 129 44 136 44 q 109 53 117 44 q 100 73 100 61 q 123 102 100 90 l 651 395 l 124 688 q 101 718 101 701 q 110 738 101 730 q 130 747 118 747 q 152 739 137 747 l 767 395 z "},"?":{"ha":833,"x_min":186,"x_max":680,"o":"m 448 349 l 448 291 q 439 262 448 271 q 419 253 431 253 q 398 262 406 253 q 390 291 390 271 l 390 387 q 593 496 538 441 q 623 573 623 527 q 568 703 623 649 q 425 757 513 757 q 340 747 380 757 q 243 709 300 736 l 243 650 q 236 621 243 630 q 215 612 228 612 q 195 621 203 612 q 186 650 186 630 l 186 746 q 323 801 292 793 q 429 814 376 814 q 611 746 543 814 q 680 574 680 678 q 639 461 680 511 q 448 349 598 412 m 389 121 l 446 121 q 497 100 476 121 q 517 50 517 79 q 496 0 517 20 q 446 -20 475 -20 l 389 -20 q 339 0 360 -20 q 319 50 319 21 q 340 100 319 80 q 389 121 361 121 z "},"@":{"ha":833,"x_min":146,"x_max":667,"o":"m 583 205 l 583 212 q 551 208 566 210 q 525 207 537 207 q 388 258 441 207 q 335 383 335 310 q 401 527 335 467 q 583 587 467 587 l 583 652 q 536 774 583 727 q 421 822 490 822 q 330 798 373 822 q 282 756 301 781 q 226 653 250 713 q 203 505 203 593 l 203 280 q 263 59 203 149 q 427 -31 324 -31 q 580 17 529 -31 q 602 28 591 28 q 622 20 614 28 q 630 1 630 12 q 589 -47 630 -21 q 419 -88 524 -88 q 320 -68 365 -88 q 244 -13 275 -48 q 199 59 225 8 q 161 149 172 110 q 146 280 146 204 l 146 508 q 238 791 146 682 q 418 880 311 880 q 521 856 474 880 q 604 778 568 833 q 640 652 640 724 l 640 262 q 660 253 653 260 q 667 234 667 245 q 662 218 667 225 q 651 208 658 211 q 629 205 645 205 l 583 205 m 583 530 q 443 486 493 530 q 392 385 392 441 q 429 298 392 333 q 532 264 466 264 q 556 266 544 264 q 583 270 569 267 l 583 530 z "},"A":{"ha":833,"x_min":12,"x_max":824,"o":"m 604 265 l 230 265 l 153 57 l 262 57 q 292 49 283 57 q 300 28 300 41 q 292 8 300 16 q 262 0 283 0 l 50 0 q 20 8 29 0 q 12 28 12 16 q 20 49 12 41 q 50 57 29 57 l 94 57 l 345 736 l 177 736 q 148 744 157 736 q 139 765 139 752 q 148 786 139 778 q 177 793 157 793 l 464 793 l 742 57 l 786 57 q 815 49 806 57 q 824 28 824 41 q 815 8 824 16 q 786 0 806 0 l 574 0 q 544 8 553 0 q 535 28 535 16 q 544 49 535 41 q 574 57 553 57 l 682 57 l 604 265 m 583 322 l 425 736 l 404 736 l 252 322 l 583 322 z "},"B":{"ha":833,"x_min":59,"x_max":755,"o":"m 174 57 l 174 736 l 97 736 q 68 744 77 736 q 59 765 59 752 q 68 786 59 778 q 97 793 77 793 l 455 793 q 628 732 562 793 q 695 588 695 671 q 583 419 695 484 q 713 334 672 387 q 755 218 755 281 q 728 114 755 161 q 645 33 701 66 q 523 0 589 0 l 97 0 q 68 8 77 0 q 59 28 59 16 q 68 49 59 41 q 97 57 77 57 l 174 57 m 231 441 l 432 441 q 550 465 496 441 q 614 519 591 484 q 637 593 637 555 q 587 691 637 646 q 456 736 537 736 l 231 736 l 231 441 m 231 57 l 519 57 q 614 81 574 57 q 676 142 655 106 q 697 216 697 178 q 667 300 697 260 q 583 362 637 341 q 435 383 530 383 l 231 383 l 231 57 z "},"C":{"ha":833,"x_min":86,"x_max":746,"o":"m 667 715 l 667 755 q 675 785 667 776 q 696 793 683 793 q 716 785 709 793 q 724 755 724 776 l 724 597 q 716 568 724 576 q 696 559 709 559 q 676 567 684 559 q 667 593 669 575 q 606 694 664 650 q 427 755 527 755 q 302 726 361 755 q 233 674 259 705 q 162 557 189 621 q 143 450 143 509 l 143 350 q 235 129 143 222 q 450 35 328 35 q 581 66 523 35 q 693 163 639 98 q 719 177 705 177 q 739 170 731 177 q 746 151 746 162 q 717 103 746 135 q 592 9 661 41 q 451 -22 522 -22 q 326 1 389 -22 q 245 44 277 20 q 166 126 213 68 q 103 234 120 184 q 86 342 86 283 l 86 458 q 131 630 86 542 q 255 765 176 718 q 425 812 333 812 q 667 715 566 812 z "},"D":{"ha":833,"x_min":107,"x_max":774,"o":"m 193 57 l 193 736 l 145 736 q 116 744 125 736 q 107 765 107 752 q 116 786 107 778 q 145 793 125 793 l 452 793 q 583 764 524 793 q 673 696 642 734 q 755 559 727 631 q 774 436 774 507 l 774 357 q 736 188 774 270 q 607 45 697 106 q 452 0 540 0 l 145 0 q 116 8 125 0 q 107 28 107 16 q 116 49 107 41 q 145 57 125 57 l 193 57 m 250 57 l 457 57 q 592 104 529 57 q 686 216 654 151 q 718 345 718 281 l 718 448 q 701 543 718 501 q 631 657 676 603 q 559 712 607 687 q 457 736 512 736 l 250 736 l 250 57 z "},"E":{"ha":833,"x_min":60,"x_max":726,"o":"m 231 383 l 231 57 l 669 57 l 669 225 q 677 254 669 245 q 698 263 685 263 q 719 254 711 263 q 726 225 726 245 l 726 0 l 98 0 q 68 8 77 0 q 60 28 60 16 q 68 49 60 41 q 98 57 77 57 l 174 57 l 174 736 l 98 736 q 68 744 77 736 q 60 765 60 752 q 68 786 60 778 q 98 793 77 793 l 696 793 l 696 597 q 689 568 696 577 q 668 559 681 559 q 647 568 655 559 q 640 597 640 577 l 640 736 l 231 736 l 231 440 l 435 440 l 435 505 q 444 534 435 525 q 465 543 452 543 q 485 534 477 543 q 493 505 493 525 l 493 319 q 485 290 493 298 q 465 281 477 281 q 444 290 452 281 q 435 319 435 298 l 435 383 l 231 383 z "},"F":{"ha":833,"x_min":108,"x_max":773,"o":"m 279 383 l 279 57 l 475 57 q 504 49 495 57 q 513 28 513 41 q 504 8 513 16 q 475 0 495 0 l 146 0 q 117 8 125 0 q 108 28 108 16 q 117 49 108 41 q 146 57 125 57 l 222 57 l 222 736 l 146 736 q 117 744 125 736 q 108 765 108 752 q 118 787 108 778 q 146 793 125 793 l 773 793 l 773 597 q 765 568 773 577 q 745 559 757 559 q 724 568 732 559 q 715 597 715 577 l 715 736 l 279 736 l 279 440 l 484 440 l 484 505 q 492 534 484 525 q 513 543 500 543 q 533 534 525 543 q 541 505 541 525 l 541 319 q 533 290 541 298 q 513 281 525 281 q 492 290 500 281 q 484 319 484 298 l 484 383 l 279 383 z "},"G":{"ha":833,"x_min":87,"x_max":785,"o":"m 726 294 l 726 50 q 596 -4 661 14 q 467 -22 532 -22 q 306 5 376 -22 q 189 81 237 32 q 114 190 140 130 q 87 343 87 250 l 87 448 q 133 630 87 541 q 260 765 180 718 q 436 812 341 812 q 669 736 574 812 q 671 777 669 770 q 681 788 673 783 q 698 793 688 793 q 718 785 710 793 q 726 755 726 776 l 726 627 q 718 597 726 606 q 698 589 710 589 q 679 596 686 589 q 670 624 671 604 q 595 718 666 682 q 441 755 524 755 q 299 721 362 755 q 180 590 235 686 q 144 447 144 527 l 144 343 q 231 118 144 201 q 470 35 317 35 q 566 45 522 35 q 669 83 610 56 l 669 294 l 473 294 q 444 302 452 294 q 435 323 435 310 q 444 344 435 336 q 473 352 452 352 l 747 351 q 776 343 767 351 q 785 323 785 336 q 779 307 785 314 q 767 297 774 299 q 726 294 760 294 z "},"H":{"ha":833,"x_min":73,"x_max":770,"o":"m 610 384 l 232 384 l 232 57 l 309 57 q 338 49 329 57 q 347 28 347 41 q 338 8 347 16 q 309 0 329 0 l 111 0 q 81 8 90 0 q 73 28 73 16 q 81 49 73 41 q 111 57 90 57 l 175 57 l 175 736 l 140 736 q 110 744 119 736 q 101 765 101 752 q 110 786 101 778 q 140 793 119 793 l 309 793 q 338 786 329 793 q 347 765 347 778 q 338 744 347 752 q 309 736 329 736 l 232 736 l 232 441 l 610 441 l 610 736 l 534 736 q 505 744 513 736 q 496 765 496 752 q 504 786 496 778 q 534 793 513 793 l 703 793 q 732 786 724 793 q 741 765 741 778 q 732 744 741 752 q 703 736 724 736 l 667 736 l 667 57 l 732 57 q 761 49 752 57 q 770 28 770 41 q 761 8 770 16 q 732 0 752 0 l 534 0 q 505 8 513 0 q 496 28 496 16 q 504 49 496 41 q 534 57 513 57 l 610 57 l 610 384 z "},"I":{"ha":833,"x_min":155,"x_max":679,"o":"m 446 736 l 446 57 l 641 57 q 670 49 661 57 q 679 28 679 41 q 670 8 679 16 q 641 0 661 0 l 193 0 q 164 8 173 0 q 155 28 155 16 q 164 49 155 41 q 193 57 173 57 l 389 57 l 389 736 l 193 736 q 164 744 173 736 q 155 765 155 752 q 164 786 155 778 q 193 793 173 793 l 641 793 q 670 786 661 793 q 679 765 679 778 q 670 744 679 752 q 641 736 661 736 l 446 736 z "},"J":{"ha":833,"x_min":116,"x_max":813,"o":"m 640 736 l 640 233 q 562 54 640 130 q 378 -22 485 -22 q 251 7 313 -22 q 116 104 189 37 l 116 314 q 124 343 116 334 q 144 352 132 352 q 165 343 157 352 q 174 314 174 334 l 173 131 q 276 59 225 83 q 378 35 328 35 q 483 62 433 35 q 551 130 520 82 q 582 233 582 178 l 582 736 l 359 736 q 329 744 338 736 q 320 765 320 752 q 329 786 320 778 q 359 793 338 793 l 775 793 q 804 786 795 793 q 813 765 813 778 q 804 744 813 752 q 775 736 795 736 l 640 736 z "},"K":{"ha":833,"x_min":60,"x_max":798,"o":"m 232 311 l 232 57 l 337 57 q 367 49 358 57 q 376 28 376 41 q 367 8 376 16 q 337 0 358 0 l 98 0 q 69 8 78 0 q 60 28 60 16 q 69 49 60 41 q 98 57 78 57 l 175 57 l 175 736 l 98 736 q 69 744 78 736 q 60 765 60 752 q 69 786 60 778 q 98 793 78 793 l 337 793 q 367 786 358 793 q 376 765 376 778 q 367 744 376 752 q 337 736 358 736 l 232 736 l 232 386 l 625 736 l 563 736 q 533 744 542 736 q 524 765 524 752 q 533 786 524 778 q 563 793 542 793 l 730 793 q 760 786 751 793 q 768 765 768 778 q 760 744 768 752 q 730 736 751 736 l 707 736 l 394 456 q 510 385 464 428 q 599 264 556 342 q 688 57 623 220 l 760 57 q 789 49 781 57 q 798 28 798 41 q 789 8 798 16 q 760 0 781 0 l 650 0 q 499 315 560 245 q 347 414 438 385 l 232 311 z "},"L":{"ha":833,"x_min":87,"x_max":754,"o":"m 318 736 l 318 57 l 696 57 l 696 283 q 705 313 696 304 q 726 321 713 321 q 746 313 738 321 q 754 283 754 304 l 754 0 l 125 0 q 96 8 104 0 q 87 28 87 16 q 96 49 87 41 q 125 57 104 57 l 260 57 l 260 736 l 125 736 q 96 744 104 736 q 87 765 87 752 q 96 786 87 778 q 125 793 104 793 l 454 793 q 483 786 474 793 q 492 765 492 778 q 483 744 492 752 q 454 736 474 736 l 318 736 z "},"M":{"ha":833,"x_min":16,"x_max":825,"o":"m 454 238 l 389 238 l 170 736 l 159 736 l 159 57 l 264 57 q 294 49 285 57 q 302 28 302 41 q 294 8 302 16 q 264 0 285 0 l 54 0 q 25 8 34 0 q 16 28 16 16 q 25 49 16 41 q 54 57 34 57 l 102 57 l 102 736 l 66 736 q 37 744 46 736 q 28 765 28 752 q 37 786 28 778 q 66 793 46 793 l 206 793 l 422 302 l 634 793 l 774 793 q 804 786 795 793 q 812 765 812 778 q 804 744 812 752 q 774 736 795 736 l 739 736 l 739 57 l 786 57 q 816 49 807 57 q 825 28 825 41 q 816 8 825 16 q 786 0 807 0 l 576 0 q 547 8 556 0 q 538 28 538 16 q 547 49 538 41 q 576 57 555 57 l 682 57 l 682 736 l 669 736 l 454 238 z "},"N":{"ha":833,"x_min":31,"x_max":782,"o":"m 696 0 l 623 0 l 203 710 l 203 57 l 308 57 q 338 49 329 57 q 347 28 347 41 q 338 8 347 16 q 308 0 329 0 l 98 0 q 68 8 77 0 q 60 28 60 16 q 68 49 60 41 q 98 57 77 57 l 146 57 l 146 736 l 69 736 q 40 744 49 736 q 31 765 31 752 q 40 786 31 778 q 69 793 49 793 l 218 793 l 639 82 l 639 736 l 534 736 q 505 744 513 736 q 496 765 496 752 q 504 786 496 778 q 534 793 513 793 l 744 793 q 773 786 764 793 q 782 765 782 778 q 773 744 782 752 q 744 736 764 736 l 696 736 l 696 0 z "},"O":{"ha":833,"x_min":71,"x_max":765,"o":"m 765 395 q 719 183 765 281 q 592 32 673 86 q 418 -22 511 -22 q 175 95 280 -22 q 71 395 71 212 q 175 695 71 578 q 418 812 280 812 q 591 758 511 812 q 719 606 672 703 q 765 395 765 509 m 707 395 q 627 644 707 534 q 418 755 546 755 q 213 649 298 755 q 127 395 127 544 q 217 135 127 236 q 418 35 306 35 q 627 145 546 35 q 707 395 707 255 z "},"P":{"ha":833,"x_min":121,"x_max":756,"o":"m 293 326 l 293 57 l 488 57 q 517 49 509 57 q 526 28 526 41 q 517 8 526 16 q 488 0 509 0 l 159 0 q 130 8 139 0 q 121 28 121 16 q 130 49 121 41 q 159 57 139 57 l 236 57 l 236 736 l 159 736 q 130 744 139 736 q 121 765 121 752 q 130 786 121 778 q 159 793 139 793 l 490 793 q 682 724 608 793 q 756 562 756 655 q 732 463 756 507 q 674 394 708 419 q 569 338 623 356 q 471 326 530 326 l 293 326 m 293 382 l 475 382 q 593 411 538 382 q 674 479 648 439 q 699 562 699 520 q 642 683 699 629 q 496 736 584 736 l 293 736 l 293 382 z "},"Q":{"ha":833,"x_min":71,"x_max":765,"o":"m 425 -22 l 349 -79 q 441 -68 405 -68 q 559 -90 501 -68 q 622 -105 600 -105 q 709 -73 661 -105 q 736 -61 728 -61 q 756 -69 749 -61 q 764 -90 764 -77 q 758 -107 764 -100 q 693 -145 743 -123 q 618 -162 655 -162 q 540 -144 590 -162 q 443 -125 490 -125 q 361 -134 410 -125 q 251 -157 292 -145 q 231 -160 237 -160 q 212 -152 220 -160 q 203 -130 203 -144 q 219 -106 203 -117 l 346 -14 q 152 125 233 14 q 71 395 71 237 q 175 695 71 578 q 418 812 280 812 q 660 695 555 812 q 765 395 765 578 q 662 97 765 214 q 425 -22 559 -20 m 707 395 q 627 644 707 534 q 418 755 546 755 q 213 649 298 755 q 127 395 127 544 q 217 135 127 236 q 418 35 306 35 q 627 145 546 35 q 707 395 707 255 z "},"R":{"ha":833,"x_min":60,"x_max":823,"o":"m 231 354 l 231 57 l 336 57 q 366 49 357 57 q 375 28 375 41 q 366 8 375 16 q 336 0 357 0 l 98 0 q 68 8 77 0 q 60 28 60 16 q 68 49 60 41 q 98 57 77 57 l 174 57 l 174 736 l 98 736 q 68 744 77 736 q 60 765 60 752 q 68 786 60 778 q 98 793 77 793 l 442 793 q 622 726 549 793 q 694 574 694 659 q 649 459 694 513 q 498 369 604 405 q 603 274 559 327 q 742 57 646 221 l 785 57 q 814 49 806 57 q 823 28 823 41 q 814 8 823 16 q 785 0 806 0 l 709 0 q 546 254 604 189 q 412 354 488 318 l 231 354 m 231 411 l 387 411 q 522 438 461 411 q 610 502 583 465 q 637 576 637 538 q 580 685 637 633 q 441 736 523 736 l 231 736 l 231 411 z "},"S":{"ha":833,"x_min":125,"x_max":708,"o":"m 621 736 l 621 755 q 628 785 621 776 q 649 793 636 793 q 670 785 662 793 q 677 755 677 776 l 677 610 q 670 581 677 590 q 649 572 662 572 q 629 581 637 572 q 621 607 621 589 q 562 709 617 664 q 417 755 507 755 q 267 706 323 755 q 212 592 212 658 q 227 530 212 558 q 269 485 243 503 q 327 457 294 468 q 429 435 359 447 q 589 397 545 416 q 678 323 648 370 q 708 213 708 277 q 630 46 708 115 q 420 -22 552 -22 q 182 71 271 -22 l 182 38 q 175 9 182 18 q 154 0 167 0 q 134 9 142 0 q 125 38 125 18 l 125 195 q 133 225 125 216 q 154 234 141 234 q 174 226 166 234 q 182 199 182 218 q 249 86 186 137 q 420 35 313 35 q 589 88 527 35 q 651 215 651 142 q 627 295 651 260 q 557 350 604 330 q 421 382 524 364 q 217 454 279 406 q 155 593 155 503 q 226 747 155 683 q 415 812 298 812 q 621 736 534 812 z "},"T":{"ha":833,"x_min":97,"x_max":735,"o":"m 445 736 l 445 57 l 593 57 q 622 49 613 57 q 631 28 631 41 q 622 8 631 16 q 593 0 613 0 l 239 0 q 210 8 219 0 q 201 28 201 16 q 210 49 201 41 q 239 57 219 57 l 387 57 l 387 736 l 154 736 l 154 539 q 146 509 154 518 q 125 500 138 500 q 105 509 113 500 q 97 539 97 518 l 97 793 l 735 793 l 735 539 q 727 509 735 518 q 707 500 720 500 q 686 509 694 500 q 678 539 678 518 l 678 736 l 445 736 z "},"U":{"ha":833,"x_min":56,"x_max":779,"o":"m 692 736 l 692 260 q 612 59 692 140 q 419 -22 532 -22 q 284 11 343 -22 q 184 112 225 44 q 142 260 142 179 l 142 736 l 94 736 q 65 744 74 736 q 56 765 56 752 q 66 787 56 778 q 94 793 74 793 l 304 793 q 334 786 325 793 q 342 765 342 778 q 334 744 342 752 q 304 736 325 736 l 199 736 l 199 260 q 264 100 199 166 q 416 35 328 35 q 519 60 473 35 q 601 140 566 86 q 635 260 635 193 l 635 736 l 530 736 q 501 744 510 736 q 492 765 492 752 q 501 786 492 778 q 530 793 510 793 l 741 793 q 770 786 761 793 q 779 765 779 778 q 770 744 779 752 q 741 736 761 736 l 692 736 z "},"V":{"ha":833,"x_min":11,"x_max":823,"o":"m 459 0 l 380 0 l 93 736 l 49 736 q 26 740 33 736 q 15 750 20 743 q 11 765 11 757 q 15 780 11 773 q 26 790 20 787 q 49 793 33 793 l 261 793 q 284 790 277 793 q 295 780 290 787 q 299 765 299 773 q 294 750 299 757 q 283 740 290 743 q 261 736 277 736 l 152 736 l 416 57 l 420 57 l 682 736 l 573 736 q 550 740 557 736 q 539 750 543 743 q 534 765 534 757 q 539 780 534 773 q 550 790 544 787 q 573 793 557 793 l 785 793 q 808 790 801 793 q 819 780 814 787 q 823 765 823 773 q 819 750 823 757 q 807 740 814 743 q 785 736 801 736 l 741 736 l 459 0 z "},"W":{"ha":833,"x_min":25,"x_max":806,"o":"m 667 0 l 577 0 l 416 564 l 258 0 l 168 0 l 84 736 l 63 736 q 34 744 43 736 q 25 765 25 752 q 34 786 25 778 q 63 793 43 793 l 275 793 q 304 786 296 793 q 313 765 313 778 q 304 744 313 752 q 275 736 296 736 l 142 736 l 217 65 l 371 618 l 458 618 l 616 65 l 690 736 l 557 736 q 528 744 536 736 q 519 765 519 752 q 528 786 519 778 q 557 793 536 793 l 767 793 q 797 786 788 793 q 806 765 806 778 q 797 744 806 752 q 767 736 788 736 l 746 736 l 667 0 z "},"X":{"ha":833,"x_min":54,"x_max":781,"o":"m 451 406 l 722 57 l 743 57 q 772 49 764 57 q 781 28 781 41 q 772 8 781 16 q 743 0 764 0 l 560 0 q 531 8 540 0 q 522 28 522 16 q 531 49 522 41 q 560 57 540 57 l 651 57 l 416 359 l 183 57 l 274 57 q 303 49 294 57 q 312 28 312 41 q 303 8 312 16 q 274 0 294 0 l 92 0 q 63 8 72 0 q 54 28 54 16 q 60 45 54 38 q 72 55 65 53 q 113 57 79 57 l 380 406 l 125 736 l 104 736 q 75 744 84 736 q 66 765 66 752 q 75 786 66 778 q 104 793 84 793 l 260 793 q 290 786 281 793 q 298 765 298 778 q 290 744 298 752 q 260 736 281 736 l 196 736 l 416 452 l 634 736 l 570 736 q 541 744 549 736 q 532 765 532 752 q 541 786 532 778 q 570 793 549 793 l 726 793 q 755 786 747 793 q 764 765 764 778 q 755 744 764 752 q 726 736 747 736 l 705 736 l 451 406 z "},"Y":{"ha":833,"x_min":67,"x_max":765,"o":"m 447 358 l 447 57 l 595 57 q 624 49 615 57 q 633 28 633 41 q 624 8 633 16 q 595 0 615 0 l 241 0 q 212 8 221 0 q 203 28 203 16 q 212 49 203 41 q 241 57 220 57 l 389 57 l 389 358 l 139 736 l 105 736 q 76 744 85 736 q 67 765 67 752 q 76 786 67 778 q 105 793 85 793 l 262 793 q 291 786 282 793 q 300 765 300 778 q 291 744 300 752 q 262 736 282 736 l 205 736 l 418 416 l 627 736 l 571 736 q 541 744 550 736 q 532 765 532 752 q 541 786 532 778 q 571 793 550 793 l 727 793 q 756 786 747 793 q 765 765 765 778 q 756 744 765 752 q 727 736 747 736 l 693 736 l 447 358 z "},"Z":{"ha":833,"x_min":144,"x_max":693,"o":"m 693 0 l 144 0 l 144 83 l 607 732 l 607 736 l 228 736 l 228 569 q 220 539 228 548 q 199 530 212 530 q 178 539 186 530 q 170 569 170 548 l 170 793 l 662 793 l 662 713 l 199 63 l 199 57 l 636 57 l 636 256 q 644 286 636 277 q 665 294 652 294 q 685 286 677 294 q 693 256 693 277 l 693 0 z "},"[":{"ha":833,"x_min":389,"x_max":622,"o":"m 446 793 l 446 -119 l 584 -119 q 613 -126 604 -119 q 622 -147 622 -134 q 613 -168 622 -160 q 584 -176 604 -176 l 389 -176 l 389 851 l 584 851 q 613 843 604 851 q 622 822 622 835 q 613 802 622 810 q 584 793 604 793 l 446 793 z "},"\\":{"ha":833,"x_min":154,"x_max":677,"o":"m 213 913 l 671 -69 q 677 -91 677 -84 q 669 -110 677 -102 q 649 -119 661 -119 q 618 -94 630 -119 l 161 889 q 154 911 154 903 q 162 930 154 922 q 182 938 171 938 q 213 913 201 938 z "},"]":{"ha":833,"x_min":214,"x_max":448,"o":"m 390 -119 l 390 793 l 252 793 q 223 802 232 793 q 214 822 214 810 q 223 843 214 835 q 252 851 232 851 l 448 851 l 448 -176 l 252 -176 q 223 -168 232 -176 q 214 -147 214 -160 q 223 -127 214 -135 q 252 -119 232 -119 l 390 -119 z "},"^":{"ha":833,"x_min":155,"x_max":679,"o":"m 416 867 l 667 553 q 679 528 679 538 q 670 508 679 516 q 650 500 662 500 q 621 517 636 500 l 416 778 l 212 517 q 184 499 197 499 q 163 508 172 499 q 155 528 155 516 q 167 553 155 538 l 416 867 z "},"_":{"ha":833,"x_min":0,"x_max":833,"o":"m 795 -380 l 38 -380 q 9 -373 18 -380 q 0 -352 0 -365 q 9 -331 0 -339 q 38 -323 18 -323 l 795 -323 q 825 -331 817 -323 q 833 -352 833 -339 q 825 -373 833 -365 q 795 -380 817 -380 z "},"`":{"ha":833,"x_min":301,"x_max":533,"o":"m 356 888 l 516 749 l 531 732 q 533 722 533 729 q 525 701 533 709 q 504 692 516 692 q 478 706 494 692 l 318 844 q 301 872 301 859 q 310 893 301 884 q 330 901 318 901 q 356 888 340 901 z "},"a":{"ha":833,"x_min":98,"x_max":753,"o":"m 581 0 l 581 82 q 315 -22 456 -22 q 155 30 213 -22 q 98 157 98 81 q 174 301 98 239 q 395 363 250 363 q 481 358 435 363 q 581 342 527 353 l 581 434 q 537 515 581 481 q 407 550 494 550 q 220 511 340 550 q 193 505 199 505 q 174 513 182 505 q 166 533 166 521 q 173 551 166 545 q 250 579 182 562 q 410 608 355 608 q 578 554 517 608 q 638 434 638 501 l 638 57 l 714 57 q 744 49 735 57 q 753 28 753 41 q 744 8 753 16 q 714 0 735 0 l 581 0 m 581 283 q 496 300 541 295 q 401 306 451 306 q 208 252 277 306 q 155 157 155 212 q 195 70 155 105 q 313 35 235 35 q 450 64 387 35 q 581 158 513 94 l 581 283 z "},"b":{"ha":833,"x_min":31,"x_max":753,"o":"m 202 851 l 202 473 q 451 608 305 608 q 665 517 576 608 q 753 295 753 427 q 664 70 753 162 q 451 -22 574 -22 q 202 112 302 -22 l 202 0 l 68 0 q 39 8 48 0 q 31 28 31 16 q 39 49 31 41 q 68 57 48 57 l 145 57 l 145 793 l 68 793 q 39 802 48 793 q 31 823 31 810 q 39 843 31 835 q 68 851 48 851 l 202 851 m 696 292 q 623 475 696 400 q 450 550 549 550 q 277 475 351 550 q 203 292 203 400 q 277 110 203 184 q 450 35 351 35 q 623 110 549 35 q 696 292 696 184 z "},"c":{"ha":833,"x_min":116,"x_max":745,"o":"m 654 530 l 654 549 q 663 578 654 570 q 683 587 671 587 q 704 578 696 587 q 712 549 712 570 l 712 420 q 704 390 711 399 q 683 381 696 381 q 664 389 671 381 q 654 415 656 397 q 591 507 650 463 q 431 550 532 550 q 239 471 304 550 q 173 289 173 391 q 245 106 173 178 q 433 35 318 35 q 569 59 500 35 q 693 138 637 83 q 718 151 707 151 q 738 143 730 151 q 745 124 745 136 q 677 50 745 95 q 431 -22 566 -22 q 204 65 293 -22 q 116 288 116 153 q 207 517 116 426 q 435 608 297 608 q 654 530 566 608 z "},"d":{"ha":833,"x_min":85,"x_max":810,"o":"m 696 851 l 696 57 l 772 57 q 802 49 793 57 q 810 28 810 41 q 802 8 810 16 q 772 0 793 0 l 638 0 l 638 113 q 387 -22 539 -22 q 238 19 309 -22 q 126 136 168 60 q 85 292 85 212 q 126 449 85 374 q 238 566 168 525 q 387 608 309 608 q 638 472 536 608 l 638 793 l 562 793 q 532 802 541 793 q 524 823 524 810 q 532 843 524 835 q 562 851 541 851 l 696 851 m 638 292 q 565 475 638 401 q 391 550 492 550 q 216 475 289 550 q 142 292 142 401 q 216 110 142 184 q 391 35 289 35 q 565 110 492 35 q 638 292 638 184 z "},"e":{"ha":833,"x_min":87,"x_max":726,"o":"m 725 280 l 144 280 q 237 102 159 170 q 429 35 315 35 q 563 56 493 35 q 677 111 633 77 q 699 121 690 121 q 718 113 710 121 q 726 93 726 104 q 715 71 726 81 q 600 7 683 37 q 429 -22 517 -22 q 185 74 283 -22 q 87 306 87 170 q 179 519 87 430 q 406 608 271 608 q 636 516 546 608 q 725 280 726 425 m 667 338 q 578 491 650 432 q 406 550 506 550 q 235 492 307 550 q 145 338 163 433 l 667 338 z "},"f":{"ha":833,"x_min":146,"x_max":755,"o":"m 379 530 l 379 57 l 629 57 q 659 49 650 57 q 667 28 667 41 q 659 8 667 16 q 629 0 650 0 l 184 0 q 155 8 163 0 q 146 28 146 16 q 155 49 146 41 q 184 57 163 57 l 321 57 l 321 530 l 198 530 q 169 538 178 530 q 160 559 160 546 q 169 579 160 571 q 198 587 178 587 l 321 587 l 321 673 q 380 798 321 745 q 534 851 438 851 q 707 836 615 851 q 748 823 741 831 q 755 804 755 816 q 747 784 755 791 q 726 776 739 776 q 707 778 720 776 q 534 793 605 793 q 419 757 460 793 q 379 673 379 720 l 379 587 l 646 587 q 675 579 666 587 q 684 558 684 571 q 675 538 684 546 q 646 530 666 530 l 379 530 z "},"g":{"ha":833,"x_min":85,"x_max":780,"o":"m 608 483 l 608 587 l 742 587 q 771 579 762 587 q 780 558 780 571 q 771 538 780 546 q 742 530 762 530 l 665 530 l 665 -39 q 641 -141 665 -96 q 587 -203 625 -171 q 517 -248 549 -235 q 434 -262 486 -262 l 273 -262 q 243 -254 252 -262 q 235 -233 235 -246 q 243 -212 235 -220 q 273 -204 252 -204 l 436 -205 q 527 -179 486 -205 q 593 -104 567 -153 q 608 -31 608 -75 l 608 140 q 372 14 517 14 q 170 101 255 14 q 85 311 85 189 q 170 521 85 434 q 372 608 255 608 q 608 483 517 608 m 608 311 q 539 481 608 412 q 375 550 471 550 q 211 480 279 550 q 142 311 142 411 q 211 141 142 211 q 375 72 279 72 q 539 141 471 72 q 608 311 608 211 z "},"h":{"ha":833,"x_min":58,"x_max":768,"o":"m 229 851 l 229 500 q 333 584 283 559 q 445 608 383 608 q 558 584 511 608 q 635 512 604 561 q 667 410 667 464 l 667 57 l 730 57 q 760 49 751 57 q 768 28 768 41 q 760 8 768 16 q 730 0 751 0 l 545 0 q 515 8 524 0 q 507 28 507 16 q 515 49 507 41 q 545 57 524 57 l 609 57 l 609 406 q 565 509 609 468 q 441 551 520 551 q 334 520 378 551 q 229 418 302 498 l 229 57 l 294 57 q 323 49 314 57 q 332 28 332 41 q 323 8 332 16 q 294 0 314 0 l 108 0 q 79 8 87 0 q 70 28 70 16 q 79 49 70 41 q 108 57 87 57 l 172 57 l 172 793 l 96 793 q 66 802 75 793 q 58 823 58 810 q 66 843 58 835 q 96 851 75 851 l 229 851 z "},"i":{"ha":833,"x_min":128,"x_max":709,"o":"m 445 880 l 445 732 l 361 732 l 361 880 l 445 880 m 447 587 l 447 57 l 671 57 q 701 49 692 57 q 709 28 709 41 q 701 8 709 16 q 671 0 692 0 l 166 0 q 137 8 146 0 q 128 28 128 16 q 137 49 128 41 q 166 57 146 57 l 390 57 l 390 530 l 224 530 q 194 538 203 530 q 185 558 185 546 q 194 579 185 571 q 224 587 203 587 l 447 587 z "},"j":{"ha":833,"x_min":122,"x_max":559,"o":"m 498 880 l 498 732 l 414 732 l 414 880 l 498 880 m 502 530 l 163 530 q 134 538 143 530 q 125 559 125 546 q 134 579 125 571 q 163 587 142 587 l 559 587 l 559 -40 q 529 -161 559 -113 q 439 -241 499 -210 q 341 -262 398 -262 l 160 -262 q 131 -254 140 -262 q 122 -233 122 -246 q 131 -212 122 -220 q 160 -204 140 -204 l 340 -205 q 457 -157 412 -205 q 502 -40 502 -110 l 502 530 z "},"k":{"ha":833,"x_min":130,"x_max":794,"o":"m 301 254 l 301 0 l 168 0 q 138 8 147 0 q 130 28 130 16 q 138 49 130 41 q 168 57 147 57 l 244 57 l 244 793 l 168 793 q 138 802 147 793 q 130 823 130 810 q 138 843 130 835 q 168 851 147 851 l 301 851 l 301 326 l 543 530 l 514 530 q 485 538 494 530 q 476 558 476 546 q 485 579 476 571 q 514 587 494 587 l 696 587 q 726 579 718 587 q 735 558 735 571 q 726 538 735 546 q 696 530 718 530 l 631 530 l 408 344 l 690 57 l 755 57 q 785 49 777 57 q 794 28 794 41 q 785 8 794 16 q 755 0 777 0 l 571 0 q 542 8 551 0 q 533 28 533 16 q 542 49 533 41 q 571 57 551 57 l 611 57 l 366 309 l 301 254 z "},"l":{"ha":833,"x_min":127,"x_max":708,"o":"m 446 851 l 446 57 l 669 57 q 699 49 690 57 q 708 28 708 41 q 699 8 708 16 q 669 0 690 0 l 165 0 q 136 8 144 0 q 127 28 127 16 q 136 49 127 41 q 165 57 144 57 l 389 57 l 389 793 l 224 793 q 195 802 204 793 q 186 823 186 810 q 195 843 186 835 q 224 851 203 851 l 446 851 z "},"m":{"ha":833,"x_min":14,"x_max":824,"o":"m 157 587 l 157 530 q 303 608 230 608 q 380 584 347 608 q 436 513 414 561 q 513 584 474 561 q 591 608 552 608 q 690 568 653 608 q 738 455 738 516 l 738 57 l 786 57 q 815 49 806 57 q 824 28 824 41 q 815 8 824 16 q 786 0 806 0 l 681 0 l 681 450 q 654 522 681 493 q 593 550 628 550 q 528 527 562 550 q 449 435 493 503 l 449 57 l 496 57 q 526 49 517 57 q 534 28 534 41 q 526 8 534 16 q 496 0 517 0 l 391 0 l 391 446 q 365 520 391 491 q 304 550 338 550 q 244 530 274 550 q 157 435 203 503 l 157 57 l 205 57 q 235 49 226 57 q 243 28 243 41 q 235 8 243 16 q 205 0 226 0 l 52 0 q 23 8 32 0 q 14 28 14 16 q 23 49 14 41 q 52 57 32 57 l 100 57 l 100 530 l 52 530 q 23 538 32 530 q 14 559 14 546 q 23 579 14 571 q 52 587 32 587 l 157 587 z "},"n":{"ha":833,"x_min":73,"x_max":753,"o":"m 233 587 l 233 501 q 340 585 292 562 q 449 608 389 608 q 568 580 514 608 q 636 512 606 559 q 667 416 667 465 l 667 57 l 715 57 q 745 49 736 57 q 753 28 753 41 q 745 8 753 16 q 715 0 736 0 l 563 0 q 533 8 542 0 q 524 28 524 16 q 533 49 524 41 q 563 57 542 57 l 610 57 l 610 406 q 566 508 610 467 q 448 550 522 550 q 351 527 392 550 q 233 414 309 505 l 233 57 l 297 57 q 326 49 317 57 q 335 28 335 41 q 326 8 335 16 q 297 0 317 0 l 111 0 q 82 8 91 0 q 73 28 73 16 q 82 49 73 41 q 111 57 91 57 l 176 57 l 176 530 l 127 530 q 98 538 107 530 q 90 559 90 546 q 98 579 90 571 q 127 587 107 587 l 233 587 z "},"o":{"ha":833,"x_min":98,"x_max":735,"o":"m 735 292 q 642 70 735 162 q 417 -22 549 -22 q 191 70 284 -22 q 98 292 98 163 q 191 515 98 422 q 417 608 284 608 q 642 515 549 608 q 735 292 735 423 m 677 292 q 601 475 677 399 q 416 550 525 550 q 232 474 308 550 q 155 292 155 399 q 232 111 155 186 q 416 35 308 35 q 601 110 525 35 q 677 292 677 186 z "},"p":{"ha":833,"x_min":31,"x_max":753,"o":"m 202 587 l 202 484 q 311 576 253 545 q 449 608 370 608 q 604 568 533 608 q 714 459 675 529 q 753 311 753 389 q 666 101 753 189 q 450 14 578 14 q 202 138 297 14 l 202 -205 l 340 -205 q 370 -213 361 -205 q 378 -233 378 -220 q 370 -254 378 -245 q 340 -262 361 -262 l 68 -262 q 39 -254 48 -262 q 31 -233 31 -246 q 39 -213 31 -220 q 68 -205 48 -205 l 145 -205 l 145 530 l 68 530 q 39 538 48 530 q 31 559 31 546 q 39 579 31 571 q 68 587 48 587 l 202 587 m 696 311 q 624 480 696 410 q 450 550 553 550 q 274 479 346 550 q 202 311 202 409 q 274 142 202 213 q 450 72 346 72 q 624 142 552 72 q 696 311 696 212 z "},"q":{"ha":833,"x_min":87,"x_max":810,"o":"m 637 484 l 637 587 l 771 587 q 801 579 792 587 q 810 558 810 571 q 801 538 810 546 q 771 530 792 530 l 695 530 l 695 -205 l 771 -205 q 801 -213 792 -205 q 810 -233 810 -220 q 801 -254 810 -245 q 771 -262 792 -262 l 500 -262 q 471 -254 479 -262 q 462 -233 462 -246 q 471 -213 462 -220 q 500 -205 479 -205 l 637 -205 l 637 138 q 390 14 543 14 q 175 101 262 14 q 87 311 87 189 q 175 521 87 435 q 391 608 262 608 q 637 484 543 608 m 637 311 q 566 480 637 410 q 391 550 494 550 q 216 480 288 550 q 144 311 144 410 q 216 142 144 213 q 391 72 288 72 q 566 142 494 72 q 637 311 637 213 z "},"r":{"ha":833,"x_min":116,"x_max":755,"o":"m 349 587 l 349 444 q 515 573 460 544 q 617 602 570 602 q 712 567 668 602 q 755 515 755 533 q 747 494 755 503 q 726 486 739 486 q 714 488 719 486 q 696 503 709 490 q 655 536 673 527 q 621 545 637 545 q 531 515 583 545 q 349 369 478 485 l 349 57 l 601 57 q 631 49 622 57 q 640 28 640 41 q 631 8 640 16 q 601 0 622 0 l 154 0 q 125 8 134 0 q 116 28 116 16 q 124 47 116 39 q 154 55 133 55 l 292 55 l 292 530 l 186 530 q 157 538 166 530 q 149 559 149 546 q 157 579 149 571 q 186 587 165 587 l 349 587 z "},"s":{"ha":833,"x_min":140,"x_max":693,"o":"m 605 550 q 613 578 605 570 q 633 587 621 587 q 654 578 646 587 q 663 549 663 570 l 663 451 q 654 422 663 431 q 633 413 646 413 q 614 420 622 413 q 605 445 606 428 q 563 512 601 486 q 416 550 507 550 q 267 511 320 550 q 227 446 227 482 q 275 378 227 406 q 398 349 307 359 q 563 320 517 336 q 661 254 629 296 q 693 163 693 212 q 623 34 693 91 q 418 -22 553 -22 q 197 46 283 -22 q 195 16 197 23 q 185 5 192 9 q 169 0 178 0 q 149 9 157 0 q 140 38 140 18 l 140 155 q 148 184 140 176 q 169 193 156 193 q 190 185 181 193 q 198 162 198 176 q 214 110 198 131 q 289 56 237 77 q 416 35 341 35 q 582 76 528 35 q 636 163 636 117 q 581 248 636 216 q 419 291 526 280 q 267 319 313 302 q 195 372 221 337 q 170 448 170 408 q 241 565 170 522 q 413 608 313 608 q 605 550 531 608 z "},"t":{"ha":833,"x_min":99,"x_max":734,"o":"m 300 587 l 609 587 q 638 579 629 587 q 647 558 647 571 q 638 538 647 546 q 609 530 629 530 l 300 530 l 300 151 q 339 68 300 101 q 456 35 379 35 q 581 52 513 35 q 685 91 648 69 q 707 100 699 100 q 726 91 718 100 q 734 71 734 83 q 726 52 734 61 q 620 4 704 30 q 460 -22 536 -22 q 301 24 360 -22 q 242 151 242 71 l 242 530 l 137 530 q 108 538 117 530 q 99 559 99 546 q 108 579 99 571 q 137 587 117 587 l 242 587 l 242 755 q 250 785 242 776 q 271 793 258 793 q 292 785 283 793 q 300 755 300 776 l 300 587 z "},"u":{"ha":833,"x_min":62,"x_max":755,"o":"m 612 0 l 612 83 q 359 -22 495 -22 q 233 23 276 -22 q 176 162 176 83 l 176 530 l 100 530 q 71 538 79 530 q 62 559 62 546 q 71 579 62 571 q 100 587 79 587 l 233 587 l 233 162 q 269 71 233 106 q 357 35 304 35 q 612 162 496 35 l 612 530 l 507 530 q 477 538 486 530 q 469 559 469 546 q 477 579 469 571 q 507 587 486 587 l 669 587 l 669 57 l 717 57 q 746 49 737 57 q 755 28 755 41 q 746 8 755 16 q 717 0 737 0 l 612 0 z "},"v":{"ha":833,"x_min":40,"x_max":793,"o":"m 467 0 l 370 0 l 136 530 l 78 530 q 49 538 58 530 q 40 559 40 546 q 49 579 40 571 q 78 587 58 587 l 292 587 q 321 579 312 587 q 330 558 330 571 q 321 538 330 546 q 292 530 312 530 l 197 530 l 406 57 l 431 57 l 636 530 l 541 530 q 512 538 521 530 q 503 559 503 546 q 512 579 503 571 q 541 587 521 587 l 755 587 q 785 579 777 587 q 793 558 793 571 q 785 538 793 546 q 755 530 777 530 l 698 530 l 467 0 z "},"w":{"ha":833,"x_min":38,"x_max":795,"o":"m 613 0 l 543 -1 l 417 366 l 292 -1 l 222 0 l 104 530 l 76 530 q 47 538 56 530 q 38 559 38 546 q 47 579 38 571 q 76 587 56 587 l 233 587 q 262 579 253 587 q 271 558 271 571 q 262 538 271 546 q 233 530 253 530 l 160 530 l 261 78 l 382 439 l 450 439 l 575 78 l 672 530 l 600 530 q 571 538 580 530 q 562 559 562 546 q 570 579 562 571 q 600 587 579 587 l 756 587 q 786 579 777 587 q 795 558 795 571 q 786 538 795 546 q 756 530 777 530 l 729 530 l 613 0 z "},"x":{"ha":833,"x_min":68,"x_max":766,"o":"m 456 307 l 717 57 q 749 55 743 57 q 761 45 756 52 q 766 28 766 37 q 758 8 766 16 q 728 0 749 0 l 545 0 q 515 8 524 0 q 506 28 506 16 q 515 49 506 41 q 545 57 524 57 l 639 57 l 417 269 l 197 57 l 292 57 q 321 49 312 57 q 330 28 330 41 q 321 8 330 16 q 292 0 312 0 l 106 0 q 77 8 86 0 q 68 28 68 16 q 74 45 68 37 q 85 55 79 52 q 117 57 92 57 l 378 307 l 146 530 q 116 532 122 530 q 104 543 109 535 q 99 559 99 550 q 108 579 99 571 q 138 587 117 587 l 293 587 q 322 579 314 587 q 331 558 331 571 q 322 538 331 546 q 293 530 314 530 l 225 530 l 417 345 l 610 530 l 543 530 q 513 538 522 530 q 504 559 504 546 q 513 579 504 571 q 543 587 522 587 l 698 587 q 727 579 718 587 q 736 558 736 571 q 731 543 736 550 q 719 532 726 535 q 688 530 713 530 l 456 307 z "},"y":{"ha":833,"x_min":101,"x_max":798,"o":"m 420 0 l 156 530 l 139 530 q 110 538 119 530 q 101 558 101 546 q 105 574 101 567 q 117 584 110 581 q 139 587 124 587 l 295 587 q 324 579 315 587 q 333 558 333 571 q 324 538 333 546 q 295 530 315 530 l 218 530 l 451 62 l 680 530 l 604 530 q 574 538 583 530 q 566 559 566 546 q 574 579 566 571 q 604 587 583 587 l 759 587 q 789 579 780 587 q 798 558 798 571 q 792 542 798 549 q 780 532 787 534 q 742 530 773 530 l 381 -205 l 470 -205 q 499 -213 490 -205 q 508 -233 508 -220 q 499 -254 508 -245 q 470 -262 490 -262 l 142 -262 q 113 -254 121 -262 q 104 -233 104 -246 q 113 -213 104 -220 q 142 -205 121 -205 l 320 -205 l 420 0 z "},"z":{"ha":833,"x_min":161,"x_max":682,"o":"m 666 587 l 666 536 l 239 57 l 625 57 l 625 136 q 632 165 625 156 q 653 174 640 174 q 674 165 666 174 q 682 136 682 156 l 682 0 l 161 0 l 161 51 l 585 530 l 231 530 l 231 452 q 223 423 231 432 q 203 414 215 414 q 182 423 190 414 q 174 452 174 432 l 174 587 l 666 587 z "},"{":{"ha":833,"x_min":275,"x_max":560,"o":"m 384 338 q 430 289 418 312 q 446 216 446 258 l 446 -27 q 468 -91 446 -66 q 524 -119 490 -115 q 551 -127 545 -121 q 560 -147 560 -135 q 551 -168 560 -160 q 526 -176 543 -176 q 436 -142 472 -176 q 388 -28 388 -95 l 388 216 q 366 279 388 254 q 309 307 343 304 q 282 317 290 309 q 275 338 275 324 q 282 358 275 351 q 309 368 290 366 q 366 396 344 370 q 388 458 388 421 l 388 703 q 429 809 388 766 q 526 851 469 851 q 551 843 543 851 q 560 823 560 835 q 551 802 560 810 q 524 793 545 795 q 468 765 490 790 q 446 703 446 740 l 446 458 q 432 390 446 416 q 384 338 418 363 z "},"|":{"ha":833,"x_min":388,"x_max":446,"o":"m 446 812 l 445 -138 q 437 -167 445 -158 q 416 -176 429 -176 q 396 -167 404 -176 q 388 -138 388 -158 l 388 812 q 396 842 388 833 q 416 851 404 851 q 437 842 429 851 q 446 812 446 833 z "},"}":{"ha":833,"x_min":274,"x_max":559,"o":"m 450 338 q 404 387 416 363 q 389 458 389 416 l 389 703 q 366 766 389 741 q 311 793 344 791 q 283 802 289 795 q 274 823 274 810 q 282 843 274 835 q 308 851 291 851 q 397 817 362 851 q 446 703 446 770 l 446 458 q 468 396 446 421 q 526 368 491 370 q 552 358 544 366 q 559 338 559 351 q 552 317 559 324 q 526 307 544 309 q 468 279 490 304 q 446 216 446 254 l 446 -28 q 405 -134 446 -92 q 308 -176 364 -176 q 282 -168 291 -176 q 274 -147 274 -160 q 282 -127 274 -135 q 311 -119 289 -121 q 367 -90 345 -115 q 389 -27 389 -64 l 389 216 q 402 286 389 259 q 450 338 416 312 z "},"~":{"ha":833,"x_min":127,"x_max":707,"o":"m 680 453 q 699 445 691 453 q 707 426 707 437 q 648 348 707 402 q 540 293 589 293 q 478 310 509 293 q 389 382 447 328 q 331 430 351 418 q 294 441 311 441 q 257 431 275 441 q 192 369 233 417 q 166 343 172 347 q 154 340 161 340 q 135 348 142 340 q 127 367 127 355 q 144 400 127 378 q 224 477 189 456 q 293 498 260 498 q 348 485 321 498 q 418 433 375 472 q 503 360 486 370 q 536 351 519 351 q 638 420 584 351 q 665 449 658 445 q 680 453 671 453 z "},"Ä":{"ha":833,"x_min":12,"x_max":824,"o":"m 604 265 l 230 265 l 153 57 l 262 57 q 292 49 283 57 q 300 28 300 41 q 292 8 300 16 q 262 0 283 0 l 50 0 q 20 8 29 0 q 12 28 12 16 q 20 49 12 41 q 50 57 29 57 l 94 57 l 345 736 l 177 736 q 148 744 157 736 q 139 765 139 752 q 148 786 139 778 q 177 793 157 793 l 464 793 l 742 57 l 786 57 q 815 49 806 57 q 824 28 824 41 q 815 8 824 16 q 786 0 806 0 l 574 0 q 544 8 553 0 q 535 28 535 16 q 544 49 535 41 q 574 57 553 57 l 682 57 l 604 265 m 583 322 l 425 736 l 404 736 l 252 322 l 583 322 m 266 959 q 250 920 266 936 q 210 904 233 904 q 172 920 188 904 q 155 959 155 937 q 172 998 155 982 q 210 1015 188 1015 q 250 998 233 1015 q 266 959 266 982 m 557 959 q 541 920 557 936 q 501 904 524 904 q 462 920 478 904 q 446 959 446 937 q 462 998 446 982 q 501 1015 478 1015 q 541 998 524 1015 q 557 959 557 982 z "},"Å":{"ha":833,"x_min":12,"x_max":824,"o":"m 604 265 l 230 265 l 153 57 l 262 57 q 292 49 283 57 q 300 28 300 41 q 292 8 300 16 q 262 0 283 0 l 50 0 q 20 8 29 0 q 12 28 12 16 q 20 49 12 41 q 50 57 29 57 l 94 57 l 345 736 l 177 736 q 148 744 157 736 q 139 765 139 752 q 148 786 139 778 q 177 793 157 793 l 464 793 l 742 57 l 786 57 q 815 49 806 57 q 824 28 824 41 q 815 8 824 16 q 786 0 806 0 l 574 0 q 544 8 553 0 q 535 28 535 16 q 544 49 535 41 q 574 57 553 57 l 682 57 l 604 265 m 583 322 l 425 736 l 404 736 l 252 322 l 583 322 m 505 966 q 469 881 505 917 q 382 846 433 846 q 295 881 331 846 q 259 966 259 917 q 295 1052 259 1016 q 382 1087 331 1087 q 469 1052 433 1087 q 505 966 505 1016 m 464 966 q 440 1023 464 1000 q 382 1046 416 1046 q 323 1023 347 1046 q 300 966 300 999 q 324 910 300 934 q 382 886 348 886 q 440 910 416 886 q 464 966 464 933 z "},"Ç":{"ha":833,"x_min":86,"x_max":746,"o":"m 667 715 l 667 755 q 675 785 667 776 q 696 793 683 793 q 716 785 709 793 q 724 755 724 776 l 724 597 q 716 568 724 576 q 696 559 709 559 q 676 567 684 559 q 667 593 669 575 q 606 694 664 650 q 427 755 527 755 q 302 726 361 755 q 233 674 259 705 q 162 557 189 621 q 143 450 143 509 l 143 350 q 235 129 143 222 q 450 35 328 35 q 581 66 523 35 q 693 163 639 98 q 719 177 705 177 q 739 170 731 177 q 746 151 746 162 q 717 103 746 135 q 592 9 661 41 q 451 -22 522 -22 q 326 1 389 -22 q 245 44 277 20 q 166 126 213 68 q 103 234 120 184 q 86 342 86 283 l 86 458 q 131 630 86 542 q 255 765 176 718 q 425 812 333 812 q 667 715 566 812 m 401 -111 l 401 -7 q 407 14 401 8 q 422 20 413 20 q 437 14 431 20 q 442 -7 442 7 l 442 -72 q 501 -98 480 -77 q 522 -146 522 -119 q 497 -203 522 -180 q 425 -226 471 -226 q 356 -213 393 -226 q 311 -191 319 -201 q 304 -175 304 -183 q 310 -160 304 -166 q 324 -155 315 -155 q 340 -159 331 -155 q 425 -185 386 -185 q 466 -173 451 -185 q 481 -145 481 -160 q 469 -123 481 -132 q 429 -111 454 -111 l 401 -111 z "},"É":{"ha":833,"x_min":60,"x_max":726,"o":"m 231 383 l 231 57 l 669 57 l 669 225 q 677 254 669 245 q 698 263 685 263 q 719 254 711 263 q 726 225 726 245 l 726 0 l 98 0 q 68 8 77 0 q 60 28 60 16 q 68 49 60 41 q 98 57 77 57 l 174 57 l 174 736 l 98 736 q 68 744 77 736 q 60 765 60 752 q 68 786 60 778 q 98 793 77 793 l 696 793 l 696 597 q 689 568 696 577 q 668 559 681 559 q 647 568 655 559 q 640 597 640 577 l 640 736 l 231 736 l 231 440 l 435 440 l 435 505 q 444 534 435 525 q 465 543 452 543 q 485 534 477 543 q 493 505 493 525 l 493 319 q 485 290 493 298 q 465 281 477 281 q 444 290 452 281 q 435 319 435 298 l 435 383 l 231 383 m 517 1025 l 357 887 q 331 873 342 873 q 311 882 319 873 q 302 903 302 890 q 306 915 302 909 q 319 930 309 920 l 479 1069 q 506 1082 495 1082 q 526 1074 517 1082 q 534 1053 534 1065 q 531 1041 534 1046 q 517 1025 528 1035 z "},"Ñ":{"ha":833,"x_min":31,"x_max":782,"o":"m 696 0 l 623 0 l 203 710 l 203 57 l 308 57 q 338 49 329 57 q 347 28 347 41 q 338 8 347 16 q 308 0 329 0 l 98 0 q 68 8 77 0 q 60 28 60 16 q 68 49 60 41 q 98 57 77 57 l 146 57 l 146 736 l 69 736 q 40 744 49 736 q 31 765 31 752 q 40 786 31 778 q 69 793 49 793 l 218 793 l 639 82 l 639 736 l 534 736 q 505 744 513 736 q 496 765 496 752 q 504 786 496 778 q 534 793 513 793 l 744 793 q 773 786 764 793 q 782 765 782 778 q 773 744 782 752 q 744 736 764 736 l 696 736 l 696 0 m 604 973 q 624 965 615 973 q 632 947 632 957 q 623 925 632 935 q 559 875 596 895 q 505 861 533 861 q 388 914 462 861 q 327 943 349 943 q 258 905 300 943 q 227 888 240 888 q 207 897 215 888 q 199 916 199 905 q 234 960 199 933 q 326 1000 287 1000 q 368 992 347 1000 q 436 951 389 983 q 505 918 484 918 q 583 964 531 918 q 604 973 594 973 z "},"Ö":{"ha":833,"x_min":71,"x_max":765,"o":"m 765 395 q 719 183 765 281 q 592 32 673 86 q 418 -22 511 -22 q 175 95 280 -22 q 71 395 71 212 q 175 695 71 578 q 418 812 280 812 q 591 758 511 812 q 719 606 672 703 q 765 395 765 509 m 707 395 q 627 644 707 534 q 418 755 546 755 q 213 649 298 755 q 127 395 127 544 q 217 135 127 236 q 418 35 306 35 q 627 145 546 35 q 707 395 707 255 m 326 959 q 310 920 326 936 q 271 904 294 904 q 232 920 248 904 q 216 959 216 937 q 232 998 216 982 q 271 1015 248 1015 q 310 998 294 1015 q 326 959 326 982 m 617 959 q 601 920 617 936 q 562 904 585 904 q 523 920 538 904 q 507 959 507 937 q 523 998 507 982 q 562 1015 538 1015 q 601 998 585 1015 q 617 959 617 982 z "},"Ü":{"ha":833,"x_min":56,"x_max":779,"o":"m 692 736 l 692 260 q 612 59 692 140 q 419 -22 532 -22 q 284 11 343 -22 q 184 112 225 44 q 142 260 142 179 l 142 736 l 94 736 q 65 744 74 736 q 56 765 56 752 q 66 787 56 778 q 94 793 74 793 l 304 793 q 334 786 325 793 q 342 765 342 778 q 334 744 342 752 q 304 736 325 736 l 199 736 l 199 260 q 264 100 199 166 q 416 35 328 35 q 519 60 473 35 q 601 140 566 86 q 635 260 635 193 l 635 736 l 530 736 q 501 744 510 736 q 492 765 492 752 q 501 786 492 778 q 530 793 510 793 l 741 793 q 770 786 761 793 q 779 765 779 778 q 770 744 779 752 q 741 736 761 736 l 692 736 m 328 959 q 311 920 328 936 q 272 904 295 904 q 233 920 250 904 q 217 959 217 937 q 233 998 217 982 q 272 1015 250 1015 q 311 998 295 1015 q 328 959 328 982 m 618 959 q 602 920 618 936 q 563 904 586 904 q 524 920 540 904 q 508 959 508 937 q 524 998 508 982 q 563 1015 540 1015 q 602 998 586 1015 q 618 959 618 982 z "},"á":{"ha":833,"x_min":98,"x_max":753,"o":"m 581 0 l 581 82 q 315 -22 456 -22 q 155 30 213 -22 q 98 157 98 81 q 174 301 98 239 q 395 363 250 363 q 481 358 435 363 q 581 342 527 353 l 581 434 q 537 515 581 481 q 407 550 494 550 q 220 511 340 550 q 193 505 199 505 q 174 513 182 505 q 166 533 166 521 q 173 551 166 545 q 250 579 182 562 q 410 608 355 608 q 578 554 517 608 q 638 434 638 501 l 638 57 l 714 57 q 744 49 735 57 q 753 28 753 41 q 744 8 753 16 q 714 0 735 0 l 581 0 m 581 283 q 496 300 541 295 q 401 306 451 306 q 208 252 277 306 q 155 157 155 212 q 195 70 155 105 q 313 35 235 35 q 450 64 387 35 q 581 158 513 94 l 581 283 m 515 844 l 355 705 q 329 692 340 692 q 309 700 317 692 q 300 721 300 709 q 303 733 300 728 q 317 749 307 739 l 477 887 q 504 901 493 901 q 524 892 515 901 q 532 871 532 884 q 529 859 532 865 q 515 844 526 853 z "},"à":{"ha":833,"x_min":98,"x_max":753,"o":"m 581 0 l 581 82 q 315 -22 456 -22 q 155 30 213 -22 q 98 157 98 81 q 174 301 98 239 q 395 363 250 363 q 481 358 435 363 q 581 342 527 353 l 581 434 q 537 515 581 481 q 407 550 494 550 q 220 511 340 550 q 193 505 199 505 q 174 513 182 505 q 166 533 166 521 q 173 551 166 545 q 250 579 182 562 q 410 608 355 608 q 578 554 517 608 q 638 434 638 501 l 638 57 l 714 57 q 744 49 735 57 q 753 28 753 41 q 744 8 753 16 q 714 0 735 0 l 581 0 m 581 283 q 496 300 541 295 q 401 306 451 306 q 208 252 277 306 q 155 157 155 212 q 195 70 155 105 q 313 35 235 35 q 450 64 387 35 q 581 158 513 94 l 581 283 m 356 887 l 516 749 l 531 732 q 533 721 533 728 q 525 700 533 709 q 504 692 516 692 q 478 705 494 692 l 318 844 q 301 871 301 859 q 310 892 301 884 q 330 901 318 901 q 356 887 340 901 z "},"â":{"ha":833,"x_min":98,"x_max":753,"o":"m 581 0 l 581 82 q 315 -22 456 -22 q 155 30 213 -22 q 98 157 98 81 q 174 301 98 239 q 395 363 250 363 q 481 358 435 363 q 581 342 527 353 l 581 434 q 537 515 581 481 q 407 550 494 550 q 220 511 340 550 q 193 505 199 505 q 174 513 182 505 q 166 533 166 521 q 173 551 166 545 q 250 579 182 562 q 410 608 355 608 q 578 554 517 608 q 638 434 638 501 l 638 57 l 714 57 q 744 49 735 57 q 753 28 753 41 q 744 8 753 16 q 714 0 735 0 l 581 0 m 581 283 q 496 300 541 295 q 401 306 451 306 q 208 252 277 306 q 155 157 155 212 q 195 70 155 105 q 313 35 235 35 q 450 64 387 35 q 581 158 513 94 l 581 283 m 416 888 l 600 749 q 616 733 612 739 q 619 720 619 728 q 611 700 619 708 q 590 692 602 692 q 566 703 581 692 l 416 818 l 267 703 q 243 692 252 692 q 223 700 231 692 q 214 720 214 709 q 233 749 214 734 l 416 888 z "},"ä":{"ha":833,"x_min":98,"x_max":753,"o":"m 581 0 l 581 82 q 315 -22 456 -22 q 155 30 213 -22 q 98 157 98 81 q 174 301 98 239 q 395 363 250 363 q 481 358 435 363 q 581 342 527 353 l 581 434 q 537 515 581 481 q 407 550 494 550 q 220 511 340 550 q 193 505 199 505 q 174 513 182 505 q 166 533 166 521 q 173 551 166 545 q 250 579 182 562 q 410 608 355 608 q 578 554 517 608 q 638 434 638 501 l 638 57 l 714 57 q 744 49 735 57 q 753 28 753 41 q 744 8 753 16 q 714 0 735 0 l 581 0 m 581 283 q 496 300 541 295 q 401 306 451 306 q 208 252 277 306 q 155 157 155 212 q 195 70 155 105 q 313 35 235 35 q 450 64 387 35 q 581 158 513 94 l 581 283 m 295 777 q 279 738 295 754 q 239 722 262 722 q 201 739 217 722 q 184 777 184 755 q 201 817 184 800 q 239 833 217 833 q 279 817 262 833 q 295 777 295 800 m 586 777 q 570 738 586 754 q 530 722 553 722 q 491 739 507 722 q 475 777 475 755 q 491 817 475 800 q 530 833 507 833 q 570 817 553 833 q 586 777 586 800 z "},"ã":{"ha":833,"x_min":98,"x_max":753,"o":"m 581 0 l 581 82 q 315 -22 456 -22 q 155 30 213 -22 q 98 157 98 81 q 174 301 98 239 q 395 363 250 363 q 481 358 435 363 q 581 342 527 353 l 581 434 q 537 515 581 481 q 407 550 494 550 q 220 511 340 550 q 193 505 199 505 q 174 513 182 505 q 166 533 166 521 q 173 551 166 545 q 250 579 182 562 q 410 608 355 608 q 578 554 517 608 q 638 434 638 501 l 638 57 l 714 57 q 744 49 735 57 q 753 28 753 41 q 744 8 753 16 q 714 0 735 0 l 581 0 m 581 283 q 496 300 541 295 q 401 306 451 306 q 208 252 277 306 q 155 157 155 212 q 195 70 155 105 q 313 35 235 35 q 450 64 387 35 q 581 158 513 94 l 581 283 m 605 791 q 625 783 616 791 q 633 765 633 775 q 625 743 633 753 q 560 693 597 713 q 507 679 534 679 q 389 732 463 679 q 328 762 350 762 q 260 724 301 762 q 229 707 241 707 q 209 715 216 707 q 201 734 201 723 q 235 779 201 751 q 328 819 288 819 q 369 810 348 819 q 437 769 390 802 q 507 736 485 736 q 585 783 532 736 q 605 791 595 791 z "},"å":{"ha":833,"x_min":98,"x_max":753,"o":"m 581 0 l 581 82 q 315 -22 456 -22 q 155 30 213 -22 q 98 157 98 81 q 174 301 98 239 q 395 363 250 363 q 481 358 435 363 q 581 342 527 353 l 581 434 q 537 515 581 481 q 407 550 494 550 q 220 511 340 550 q 193 505 199 505 q 174 513 182 505 q 166 533 166 521 q 173 551 166 545 q 250 579 182 562 q 410 608 355 608 q 578 554 517 608 q 638 434 638 501 l 638 57 l 714 57 q 744 49 735 57 q 753 28 753 41 q 744 8 753 16 q 714 0 735 0 l 581 0 m 581 283 q 496 300 541 295 q 401 306 451 306 q 208 252 277 306 q 155 157 155 212 q 195 70 155 105 q 313 35 235 35 q 450 64 387 35 q 581 158 513 94 l 581 283 m 539 804 q 503 719 539 755 q 416 684 467 684 q 330 719 366 684 q 294 804 294 755 q 330 889 294 854 q 416 925 366 925 q 503 889 467 925 q 539 804 539 854 m 498 804 q 474 861 498 838 q 416 884 450 884 q 358 861 382 884 q 334 804 334 837 q 358 748 334 772 q 416 724 382 724 q 474 748 450 724 q 498 804 498 771 z "},"ç":{"ha":833,"x_min":116,"x_max":745,"o":"m 654 530 l 654 549 q 663 578 654 570 q 683 587 671 587 q 704 578 696 587 q 712 549 712 570 l 712 420 q 704 390 711 399 q 683 381 696 381 q 664 389 671 381 q 654 415 656 397 q 591 507 650 463 q 431 550 532 550 q 239 471 304 550 q 173 289 173 391 q 245 106 173 178 q 433 35 318 35 q 569 59 500 35 q 693 138 637 83 q 718 151 707 151 q 738 143 730 151 q 745 124 745 136 q 677 50 745 95 q 431 -22 566 -22 q 204 65 293 -22 q 116 288 116 153 q 207 517 116 426 q 435 608 297 608 q 654 530 566 608 m 397 -111 l 397 -7 q 403 14 397 8 q 418 20 409 20 q 433 14 427 20 q 438 -7 438 7 l 438 -72 q 497 -98 476 -77 q 518 -146 518 -119 q 493 -203 518 -180 q 420 -226 467 -226 q 352 -213 389 -226 q 307 -191 315 -201 q 300 -175 300 -183 q 306 -160 300 -166 q 320 -155 311 -155 q 336 -159 327 -155 q 420 -185 382 -185 q 462 -173 447 -185 q 477 -145 477 -160 q 465 -123 477 -132 q 425 -111 450 -111 l 397 -111 z "},"é":{"ha":833,"x_min":87,"x_max":726,"o":"m 725 280 l 144 280 q 237 102 159 170 q 429 35 315 35 q 563 56 493 35 q 677 111 633 77 q 699 121 690 121 q 718 113 710 121 q 726 93 726 104 q 715 71 726 81 q 600 7 683 37 q 429 -22 517 -22 q 185 74 283 -22 q 87 306 87 170 q 179 519 87 430 q 406 608 271 608 q 636 516 546 608 q 725 280 726 425 m 667 338 q 578 491 650 432 q 406 550 506 550 q 235 492 307 550 q 145 338 163 433 l 667 338 m 516 844 l 355 706 q 330 692 340 692 q 310 701 318 692 q 301 722 301 709 q 304 734 301 728 q 318 749 307 739 l 478 888 q 505 901 494 901 q 525 893 516 901 q 533 872 533 884 q 530 860 533 865 q 516 844 527 854 z "},"è":{"ha":833,"x_min":87,"x_max":726,"o":"m 725 280 l 144 280 q 237 102 159 170 q 429 35 315 35 q 563 56 493 35 q 677 111 633 77 q 699 121 690 121 q 718 113 710 121 q 726 93 726 104 q 715 71 726 81 q 600 7 683 37 q 429 -22 517 -22 q 185 74 283 -22 q 87 306 87 170 q 179 519 87 430 q 406 608 271 608 q 636 516 546 608 q 725 280 726 425 m 667 338 q 578 491 650 432 q 406 550 506 550 q 235 492 307 550 q 145 338 163 433 l 667 338 m 356 888 l 516 749 l 531 732 q 533 722 533 729 q 525 701 533 709 q 504 692 516 692 q 478 706 494 692 l 318 844 q 301 872 301 859 q 310 893 301 884 q 330 901 318 901 q 356 888 340 901 z "},"ê":{"ha":833,"x_min":87,"x_max":726,"o":"m 725 280 l 144 280 q 237 102 159 170 q 429 35 315 35 q 563 56 493 35 q 677 111 633 77 q 699 121 690 121 q 718 113 710 121 q 726 93 726 104 q 715 71 726 81 q 600 7 683 37 q 429 -22 517 -22 q 185 74 283 -22 q 87 306 87 170 q 179 519 87 430 q 406 608 271 608 q 636 516 546 608 q 725 280 726 425 m 667 338 q 578 491 650 432 q 406 550 506 550 q 235 492 307 550 q 145 338 163 433 l 667 338 m 416 888 l 600 749 q 616 733 612 739 q 619 720 619 728 q 611 700 619 708 q 590 692 602 692 q 566 703 581 692 l 416 818 l 267 703 q 243 692 252 692 q 223 700 231 692 q 214 720 214 709 q 233 749 214 734 l 416 888 z "},"ë":{"ha":833,"x_min":87,"x_max":726,"o":"m 725 280 l 144 280 q 237 102 159 170 q 429 35 315 35 q 563 56 493 35 q 677 111 633 77 q 699 121 690 121 q 718 113 710 121 q 726 93 726 104 q 715 71 726 81 q 600 7 683 37 q 429 -22 517 -22 q 185 74 283 -22 q 87 306 87 170 q 179 519 87 430 q 406 608 271 608 q 636 516 546 608 q 725 280 726 425 m 667 338 q 578 491 650 432 q 406 550 506 550 q 235 492 307 550 q 145 338 163 433 l 667 338 m 330 777 q 313 738 330 754 q 274 722 297 722 q 235 739 252 722 q 219 777 219 755 q 235 817 219 800 q 274 833 252 833 q 313 817 297 833 q 330 777 330 800 m 621 777 q 604 738 621 754 q 565 722 588 722 q 526 739 542 722 q 510 777 510 755 q 526 817 510 800 q 565 833 542 833 q 604 817 588 833 q 621 777 621 800 z "},"í":{"ha":833,"x_min":126,"x_max":710,"o":"m 448 587 l 448 57 l 671 57 q 701 49 692 57 q 710 28 710 41 q 701 8 710 16 q 671 0 692 0 l 167 0 q 138 8 146 0 q 126 30 129 16 q 138 49 129 41 q 167 57 146 57 l 391 57 l 391 530 l 224 530 q 195 538 204 530 q 186 558 186 546 q 195 579 186 571 q 224 587 203 587 l 448 587 m 458 844 l 297 705 q 271 692 282 692 q 251 700 260 692 q 243 721 243 709 q 246 733 243 728 q 260 749 249 739 l 420 887 q 446 901 435 901 q 466 892 458 901 q 475 871 475 884 q 472 859 475 865 q 458 844 469 853 z "},"ì":{"ha":833,"x_min":126,"x_max":710,"o":"m 448 587 l 448 57 l 671 57 q 701 49 692 57 q 710 28 710 41 q 701 8 710 16 q 671 0 692 0 l 167 0 q 138 8 146 0 q 126 30 129 16 q 138 49 129 41 q 167 57 146 57 l 391 57 l 391 530 l 224 530 q 195 538 204 530 q 186 558 186 546 q 195 579 186 571 q 224 587 203 587 l 448 587 m 304 882 l 465 743 l 479 726 q 481 715 481 723 q 473 695 481 703 q 452 686 465 686 q 427 700 442 686 l 267 838 q 250 866 250 853 q 258 887 250 878 q 279 895 267 895 q 304 882 289 895 z "},"î":{"ha":833,"x_min":126,"x_max":710,"o":"m 448 587 l 448 57 l 671 57 q 701 49 692 57 q 710 28 710 41 q 701 8 710 16 q 671 0 692 0 l 167 0 q 138 8 146 0 q 126 30 129 16 q 138 49 129 41 q 167 57 146 57 l 391 57 l 391 530 l 224 530 q 195 538 204 530 q 186 558 186 546 q 195 579 186 571 q 224 587 203 587 l 448 587 m 359 888 l 543 749 q 559 733 555 739 q 562 720 562 728 q 554 700 562 708 q 533 692 545 692 q 509 703 524 692 l 359 818 l 210 703 q 186 692 195 692 q 166 700 174 692 q 157 720 157 709 q 176 749 157 734 l 359 888 z "},"ï":{"ha":833,"x_min":126,"x_max":710,"o":"m 448 587 l 448 57 l 671 57 q 701 49 692 57 q 710 28 710 41 q 701 8 710 16 q 671 0 692 0 l 167 0 q 138 8 146 0 q 126 30 129 16 q 138 49 129 41 q 167 57 146 57 l 391 57 l 391 530 l 224 530 q 195 538 204 530 q 186 558 186 546 q 195 579 186 571 q 224 587 203 587 l 448 587 m 270 777 q 254 738 270 754 q 214 722 237 722 q 176 739 192 722 q 159 777 159 755 q 176 817 159 800 q 214 833 192 833 q 254 817 237 833 q 270 777 270 800 m 561 777 q 545 738 561 754 q 505 722 528 722 q 466 739 482 722 q 450 777 450 755 q 466 817 450 800 q 505 833 482 833 q 545 817 528 833 q 561 777 561 800 z "},"ñ":{"ha":833,"x_min":73,"x_max":753,"o":"m 233 587 l 233 501 q 340 585 292 562 q 449 608 389 608 q 568 580 514 608 q 636 512 606 559 q 667 416 667 465 l 667 57 l 715 57 q 745 49 736 57 q 753 28 753 41 q 745 8 753 16 q 715 0 736 0 l 563 0 q 533 8 542 0 q 524 28 524 16 q 533 49 524 41 q 563 57 542 57 l 610 57 l 610 406 q 566 508 610 467 q 448 550 522 550 q 351 527 392 550 q 233 414 309 505 l 233 57 l 297 57 q 326 49 317 57 q 335 28 335 41 q 326 8 335 16 q 297 0 317 0 l 111 0 q 82 8 91 0 q 73 28 73 16 q 82 49 73 41 q 111 57 91 57 l 176 57 l 176 530 l 127 530 q 98 538 107 530 q 90 559 90 546 q 98 579 90 571 q 127 587 107 587 l 233 587 m 605 791 q 625 783 616 791 q 633 765 633 775 q 625 743 633 753 q 560 693 597 713 q 507 679 534 679 q 389 732 463 679 q 328 762 350 762 q 260 724 301 762 q 229 707 241 707 q 209 715 216 707 q 201 734 201 723 q 235 779 201 751 q 328 819 288 819 q 369 810 348 819 q 437 769 390 802 q 507 736 485 736 q 585 783 532 736 q 605 791 595 791 z "},"ó":{"ha":833,"x_min":98,"x_max":735,"o":"m 735 292 q 642 70 735 162 q 417 -22 549 -22 q 191 70 284 -22 q 98 292 98 163 q 191 515 98 422 q 417 608 284 608 q 642 515 549 608 q 735 292 735 423 m 677 292 q 601 475 677 399 q 416 550 525 550 q 232 474 308 550 q 155 292 155 399 q 232 111 155 186 q 416 35 308 35 q 601 110 525 35 q 677 292 677 186 m 515 844 l 355 706 q 329 692 340 692 q 309 701 317 692 q 300 722 300 709 q 303 734 300 728 q 317 749 307 739 l 477 888 q 504 901 493 901 q 524 893 515 901 q 532 872 532 884 q 529 860 532 865 q 515 844 526 854 z "},"ò":{"ha":833,"x_min":98,"x_max":735,"o":"m 735 292 q 642 70 735 162 q 417 -22 549 -22 q 191 70 284 -22 q 98 292 98 163 q 191 515 98 422 q 417 608 284 608 q 642 515 549 608 q 735 292 735 423 m 677 292 q 601 475 677 399 q 416 550 525 550 q 232 474 308 550 q 155 292 155 399 q 232 111 155 186 q 416 35 308 35 q 601 110 525 35 q 677 292 677 186 m 355 888 l 515 749 l 530 732 q 532 722 532 729 q 524 701 532 709 q 503 692 515 692 q 477 706 493 692 l 317 844 q 300 872 300 859 q 309 893 300 884 q 330 901 317 901 q 355 888 340 901 z "},"ô":{"ha":833,"x_min":98,"x_max":735,"o":"m 735 292 q 642 70 735 162 q 417 -22 549 -22 q 191 70 284 -22 q 98 292 98 163 q 191 515 98 422 q 417 608 284 608 q 642 515 549 608 q 735 292 735 423 m 677 292 q 601 475 677 399 q 416 550 525 550 q 232 474 308 550 q 155 292 155 399 q 232 111 155 186 q 416 35 308 35 q 601 110 525 35 q 677 292 677 186 m 416 888 l 600 749 q 616 733 612 739 q 619 720 619 728 q 611 700 619 708 q 590 692 602 692 q 566 703 581 692 l 416 818 l 267 703 q 243 692 252 692 q 223 700 231 692 q 214 720 214 709 q 233 749 214 734 l 416 888 z "},"ö":{"ha":833,"x_min":98,"x_max":735,"o":"m 735 292 q 642 70 735 162 q 417 -22 549 -22 q 191 70 284 -22 q 98 292 98 163 q 191 515 98 422 q 417 608 284 608 q 642 515 549 608 q 735 292 735 423 m 677 292 q 601 475 677 399 q 416 550 525 550 q 232 474 308 550 q 155 292 155 399 q 232 111 155 186 q 416 35 308 35 q 601 110 525 35 q 677 292 677 186 m 327 777 q 311 738 327 754 q 271 722 294 722 q 233 739 249 722 q 216 777 216 755 q 233 817 216 800 q 271 833 249 833 q 311 817 294 833 q 327 777 327 800 m 618 777 q 602 738 618 754 q 562 722 585 722 q 523 739 539 722 q 507 777 507 755 q 523 817 507 800 q 562 833 539 833 q 602 817 585 833 q 618 777 618 800 z "},"õ":{"ha":833,"x_min":98,"x_max":735,"o":"m 735 292 q 642 70 735 162 q 417 -22 549 -22 q 191 70 284 -22 q 98 292 98 163 q 191 515 98 422 q 417 608 284 608 q 642 515 549 608 q 735 292 735 423 m 677 292 q 601 475 677 399 q 416 550 525 550 q 232 474 308 550 q 155 292 155 399 q 232 111 155 186 q 416 35 308 35 q 601 110 525 35 q 677 292 677 186 m 604 791 q 624 783 616 791 q 633 765 633 775 q 624 743 633 753 q 559 693 597 713 q 506 679 534 679 q 389 732 463 679 q 328 762 349 762 q 259 724 300 762 q 228 707 241 707 q 208 715 216 707 q 200 734 200 723 q 235 779 200 751 q 327 819 288 819 q 368 810 347 819 q 437 769 389 802 q 506 736 484 736 q 584 783 532 736 q 604 791 595 791 z "},"ú":{"ha":833,"x_min":62,"x_max":755,"o":"m 612 0 l 612 83 q 359 -22 495 -22 q 233 23 276 -22 q 176 162 176 83 l 176 530 l 100 530 q 71 538 79 530 q 62 559 62 546 q 71 579 62 571 q 100 587 79 587 l 233 587 l 233 162 q 269 71 233 106 q 357 35 304 35 q 612 162 496 35 l 612 530 l 507 530 q 477 538 486 530 q 469 559 469 546 q 477 579 469 571 q 507 587 486 587 l 669 587 l 669 57 l 717 57 q 746 49 737 57 q 755 28 755 41 q 746 8 755 16 q 717 0 737 0 l 612 0 m 516 844 l 355 706 q 330 692 340 692 q 310 701 318 692 q 301 722 301 709 q 304 734 301 728 q 318 749 307 739 l 478 888 q 505 901 494 901 q 525 893 516 901 q 533 872 533 884 q 530 860 533 865 q 516 844 527 854 z "},"ù":{"ha":833,"x_min":62,"x_max":755,"o":"m 612 0 l 612 83 q 359 -22 495 -22 q 233 23 276 -22 q 176 162 176 83 l 176 530 l 100 530 q 71 538 79 530 q 62 559 62 546 q 71 579 62 571 q 100 587 79 587 l 233 587 l 233 162 q 269 71 233 106 q 357 35 304 35 q 612 162 496 35 l 612 530 l 507 530 q 477 538 486 530 q 469 559 469 546 q 477 579 469 571 q 507 587 486 587 l 669 587 l 669 57 l 717 57 q 746 49 737 57 q 755 28 755 41 q 746 8 755 16 q 717 0 737 0 l 612 0 m 356 888 l 516 749 l 531 732 q 533 722 533 729 q 525 701 533 709 q 504 692 516 692 q 478 706 494 692 l 318 844 q 301 872 301 859 q 310 893 301 884 q 330 901 318 901 q 356 888 340 901 z "},"û":{"ha":833,"x_min":62,"x_max":755,"o":"m 612 0 l 612 83 q 359 -22 495 -22 q 233 23 276 -22 q 176 162 176 83 l 176 530 l 100 530 q 71 538 79 530 q 62 559 62 546 q 71 579 62 571 q 100 587 79 587 l 233 587 l 233 162 q 269 71 233 106 q 357 35 304 35 q 612 162 496 35 l 612 530 l 507 530 q 477 538 486 530 q 469 559 469 546 q 477 579 469 571 q 507 587 486 587 l 669 587 l 669 57 l 717 57 q 746 49 737 57 q 755 28 755 41 q 746 8 755 16 q 717 0 737 0 l 612 0 m 417 888 l 601 749 q 616 733 613 739 q 620 720 620 728 q 611 700 620 708 q 591 692 603 692 q 567 703 582 692 l 417 818 l 268 703 q 243 692 253 692 q 223 700 232 692 q 215 720 215 709 q 234 749 215 734 l 417 888 z "},"ü":{"ha":833,"x_min":62,"x_max":755,"o":"m 612 0 l 612 83 q 359 -22 495 -22 q 233 23 276 -22 q 176 162 176 83 l 176 530 l 100 530 q 71 538 79 530 q 62 559 62 546 q 71 579 62 571 q 100 587 79 587 l 233 587 l 233 162 q 269 71 233 106 q 357 35 304 35 q 612 162 496 35 l 612 530 l 507 530 q 477 538 486 530 q 469 559 469 546 q 477 579 469 571 q 507 587 486 587 l 669 587 l 669 57 l 717 57 q 746 49 737 57 q 755 28 755 41 q 746 8 755 16 q 717 0 737 0 l 612 0 m 302 777 q 286 738 302 754 q 247 722 270 722 q 208 739 224 722 q 192 777 192 755 q 208 817 192 800 q 247 833 224 833 q 286 817 270 833 q 302 777 302 800 m 593 777 q 577 738 593 754 q 538 722 561 722 q 499 739 515 722 q 483 777 483 755 q 499 817 483 800 q 538 833 515 833 q 577 817 561 833 q 593 777 593 800 z "},"†":{"ha":833,"x_min":171,"x_max":663,"o":"m 446 531 l 446 -50 q 438 -79 446 -71 q 417 -88 430 -88 q 396 -79 404 -88 q 389 -50 389 -71 l 389 531 l 209 531 q 180 539 189 531 q 171 559 171 547 q 180 581 171 572 q 209 589 189 589 l 389 588 l 389 812 q 396 842 389 833 q 417 851 404 851 q 438 842 430 851 q 446 812 446 833 l 446 588 l 625 588 q 654 580 646 588 q 663 559 663 572 q 654 539 663 547 q 625 531 646 531 l 446 531 z "},"°":{"ha":833,"x_min":229,"x_max":605,"o":"m 229 823 q 284 956 229 901 q 416 1011 339 1011 q 550 956 495 1011 q 605 823 605 901 q 550 690 605 745 q 416 635 494 635 q 284 690 339 635 q 229 823 229 745 m 302 823 q 336 742 302 776 q 417 709 370 709 q 497 742 464 709 q 531 823 531 776 q 497 904 531 871 q 417 938 464 938 q 336 904 370 938 q 302 823 302 871 z "},"¢":{"ha":833,"x_min":155,"x_max":654,"o":"m 387 699 l 387 868 q 395 897 387 888 q 416 906 403 906 q 436 897 429 906 q 444 868 444 888 l 444 701 q 592 650 531 698 q 603 667 595 661 q 620 673 610 673 q 641 664 633 673 q 649 638 649 655 l 649 552 q 641 522 649 531 q 621 513 633 513 q 602 521 609 513 q 592 546 594 528 q 546 616 587 587 q 431 646 505 646 q 272 587 333 646 q 212 439 212 528 q 272 292 212 351 q 425 233 332 233 q 519 248 470 233 q 602 292 568 264 q 627 303 616 303 q 646 295 639 303 q 654 275 654 288 q 619 234 654 256 q 444 178 540 184 l 444 38 q 436 9 444 18 q 416 0 429 0 q 395 9 403 0 q 387 38 387 18 l 387 178 q 220 264 286 191 q 155 438 155 338 q 229 621 155 547 q 387 699 284 676 z "},"£":{"ha":833,"x_min":84,"x_max":726,"o":"m 252 57 l 604 57 q 648 76 630 57 q 669 130 666 94 q 678 154 670 146 q 697 162 686 162 q 718 154 709 162 q 726 132 726 145 q 690 38 726 75 q 608 0 654 0 l 154 0 q 125 8 134 0 q 116 28 116 16 q 124 48 116 40 q 148 56 132 56 q 201 83 177 58 q 257 185 237 120 q 277 306 277 250 q 269 385 277 351 l 122 385 q 93 392 102 385 q 84 413 84 400 q 93 434 84 426 q 122 441 102 441 l 254 441 q 216 613 216 562 q 275 755 216 696 q 415 815 334 815 q 542 770 486 815 q 597 697 597 724 q 589 679 597 688 q 569 671 580 671 q 543 688 557 671 q 417 758 490 758 q 316 715 358 758 q 273 613 273 672 q 279 560 273 589 q 313 441 281 555 l 452 441 q 481 434 472 441 q 490 413 490 426 q 481 392 490 400 q 452 385 472 385 l 326 385 q 332 302 332 342 q 312 173 332 237 q 252 57 292 108 z "},"§":{"ha":833,"x_min":97,"x_max":736,"o":"m 676 851 l 676 704 q 671 683 676 690 q 656 677 665 677 q 641 683 647 677 q 635 704 635 690 l 635 810 l 398 810 q 307 772 345 810 q 268 688 268 734 q 293 625 268 654 q 475 498 330 581 l 551 454 q 699 349 663 391 q 736 260 736 306 q 697 183 736 216 q 584 149 658 150 q 607 77 607 113 q 587 -2 607 37 q 527 -64 567 -40 q 433 -88 487 -88 l 157 -88 l 157 60 q 163 81 157 75 q 178 87 169 87 q 193 81 187 87 q 199 60 199 75 l 199 -47 l 432 -47 q 533 -6 500 -47 q 566 73 566 35 q 541 138 566 105 q 382 252 506 181 l 294 303 q 137 417 176 372 q 97 504 97 463 q 135 578 97 546 q 250 615 173 611 q 227 682 227 650 q 248 763 227 726 q 308 825 268 800 q 395 851 347 851 l 676 851 m 283 576 q 260 574 273 574 q 167 551 197 574 q 138 501 138 529 q 177 434 138 471 q 323 335 216 397 l 408 286 q 552 186 513 224 q 573 191 559 191 q 668 213 641 193 q 695 259 695 234 q 671 315 695 285 q 535 416 637 357 l 447 465 q 343 528 373 507 q 283 576 314 548 z "},"•":{"ha":833,"x_min":249,"x_max":585,"o":"m 585 432 q 535 313 585 362 q 416 264 486 264 q 298 313 347 264 q 249 432 249 362 q 298 550 249 501 q 416 600 347 600 q 535 550 486 600 q 585 432 585 501 z "},"¶":{"ha":833,"x_min":116,"x_max":723,"o":"m 607 810 l 607 -47 l 696 -47 q 717 -53 711 -47 q 723 -67 723 -58 q 716 -82 723 -77 q 696 -88 710 -88 l 564 -88 q 542 -82 549 -88 q 536 -67 536 -77 q 539 -56 536 -62 q 548 -49 543 -51 q 566 -47 553 -47 l 566 810 l 446 810 l 446 -47 q 464 -49 459 -47 q 473 -56 469 -51 q 476 -67 476 -62 q 470 -82 476 -77 q 449 -88 463 -88 l 259 -88 q 238 -82 245 -88 q 232 -68 232 -77 q 238 -53 232 -58 q 259 -47 245 -47 l 405 -47 l 405 382 q 260 413 325 388 q 185 458 222 427 q 132 515 149 489 q 116 581 116 542 l 116 647 q 140 731 116 691 q 180 777 157 760 q 276 827 215 803 q 416 851 337 851 l 694 851 q 715 845 709 851 q 722 831 722 840 q 715 815 722 821 q 694 810 709 810 l 607 810 m 405 810 q 252 750 307 801 q 198 644 198 700 l 198 591 q 216 527 198 554 q 288 458 250 479 q 405 425 338 431 l 405 810 z "},"ß":{"ha":833,"x_min":60,"x_max":699,"o":"m 175 57 l 175 671 q 232 797 175 743 q 375 851 290 851 q 521 791 461 851 q 581 646 581 731 q 499 505 581 561 q 598 448 562 479 q 673 351 647 407 q 699 226 699 296 q 643 44 699 111 q 513 -22 587 -22 q 408 24 451 -22 q 366 142 366 71 q 374 166 366 157 q 394 174 382 174 q 414 166 406 174 q 422 141 422 158 q 451 62 426 88 q 514 35 475 35 q 607 95 573 35 q 642 225 642 155 q 620 328 642 281 q 568 400 597 375 q 477 454 538 426 q 388 471 439 471 q 359 477 367 471 q 348 500 348 486 q 356 520 348 511 q 379 528 365 528 q 455 546 420 528 q 506 590 489 564 q 524 648 524 616 q 480 750 524 707 q 375 793 437 793 q 272 756 311 793 q 232 671 232 718 l 232 57 l 254 57 q 283 49 274 57 q 292 28 292 41 q 283 8 292 16 q 254 0 274 0 l 98 0 q 69 8 78 0 q 60 28 60 16 q 69 49 60 41 q 98 57 78 57 l 175 57 z "},"®":{"ha":833,"x_min":0,"x_max":829,"o":"m 829 396 q 708 103 829 224 q 414 -18 587 -18 q 121 103 243 -18 q 0 396 0 224 q 121 690 0 568 q 414 811 243 811 q 708 690 587 811 q 829 396 829 568 m 783 396 q 675 657 783 549 q 414 765 568 765 q 154 657 262 765 q 45 396 45 549 q 154 136 45 243 q 414 28 262 28 q 675 136 568 28 q 783 396 783 243 m 313 372 l 313 204 l 372 204 q 385 202 381 204 q 391 196 389 200 q 394 188 394 193 q 391 179 394 183 q 385 173 389 175 q 372 172 381 172 l 237 172 q 224 173 228 172 q 218 179 220 175 q 215 188 215 183 q 218 196 215 192 q 224 202 220 201 q 237 204 228 204 l 280 204 l 280 589 l 237 589 q 224 591 228 589 q 218 597 220 593 q 215 605 215 601 q 218 614 215 610 q 224 620 220 618 q 237 621 228 621 l 432 621 q 534 583 492 621 q 575 496 575 545 q 549 431 575 462 q 464 380 524 401 q 523 327 498 357 q 602 204 548 297 l 627 204 q 639 202 635 204 q 646 196 643 200 q 648 188 648 192 q 646 179 648 183 q 639 173 643 175 q 627 172 635 172 l 583 172 q 491 315 524 278 q 415 372 458 351 l 313 372 m 313 404 l 400 404 q 505 434 467 404 q 543 498 543 465 q 510 560 543 531 q 431 589 478 589 l 313 589 l 313 404 z "},"©":{"ha":833,"x_min":0,"x_max":829,"o":"m 829 396 q 708 103 829 224 q 414 -18 587 -18 q 121 103 243 -18 q 0 396 0 224 q 121 690 0 568 q 414 811 243 811 q 708 690 587 811 q 829 396 829 568 m 783 396 q 675 657 783 549 q 414 765 568 765 q 154 657 262 765 q 45 396 45 549 q 154 136 45 243 q 414 28 262 28 q 675 136 568 28 q 783 396 783 243 m 549 585 l 549 608 q 554 624 549 619 q 566 629 559 629 q 577 624 573 629 q 582 608 582 619 l 582 518 q 580 505 582 509 q 574 499 578 501 q 566 496 570 496 q 555 501 559 496 q 549 515 551 505 q 515 573 547 549 q 413 607 470 607 q 306 564 345 607 q 253 434 253 506 l 253 378 q 305 252 253 305 q 426 199 357 199 q 564 271 505 199 q 578 279 571 279 q 590 275 586 279 q 594 264 594 271 q 543 206 594 245 q 427 167 492 167 q 323 196 370 167 q 241 288 277 224 q 220 373 220 323 l 220 439 q 272 575 220 511 q 412 640 323 640 q 549 585 492 640 z "},"™":{"ha":833,"x_min":3,"x_max":831,"o":"m 201 749 l 201 456 l 264 456 q 292 434 292 456 q 264 412 292 412 l 94 412 q 66 434 66 412 q 94 456 66 456 l 157 456 l 157 749 l 47 749 l 47 652 q 25 625 47 625 q 3 652 3 625 l 3 793 l 355 793 l 355 652 q 334 625 355 625 q 311 652 311 625 l 311 749 l 201 749 m 620 526 l 574 526 l 461 747 l 461 456 l 500 456 q 529 434 529 456 q 500 412 529 412 l 391 412 q 363 434 363 412 q 391 456 363 456 l 416 456 l 416 793 l 488 793 l 597 582 l 705 793 l 778 793 l 778 456 l 802 456 q 831 434 831 456 q 802 412 831 412 l 693 412 q 665 434 665 412 q 693 456 665 456 l 732 456 l 732 748 l 620 526 z "},"´":{"ha":833,"x_min":300,"x_max":532,"o":"m 515 844 l 355 706 q 329 692 340 692 q 309 701 317 692 q 300 722 300 709 q 303 734 300 728 q 317 749 307 739 l 477 888 q 504 901 493 901 q 524 893 515 901 q 532 872 532 884 q 529 860 532 865 q 515 844 526 854 z "},"¨":{"ha":833,"x_min":216,"x_max":618,"o":"m 327 778 q 311 739 327 755 q 271 723 294 723 q 233 739 249 723 q 216 778 216 755 q 233 817 216 801 q 271 833 249 833 q 311 817 294 833 q 327 778 327 801 m 618 778 q 602 739 618 755 q 562 723 585 723 q 523 739 539 723 q 507 778 507 755 q 523 817 507 801 q 562 833 539 833 q 602 817 585 833 q 618 778 618 801 z "},"≠":{"ha":833,"x_min":68,"x_max":766,"o":"m 483 471 l 415 324 l 728 324 q 757 316 748 324 q 766 296 766 309 q 757 275 766 283 q 728 267 748 267 l 389 267 l 255 -24 q 224 -49 243 -49 q 204 -41 213 -49 q 196 -22 196 -33 q 203 0 196 -14 l 326 267 l 106 267 q 77 275 86 267 q 68 296 68 283 q 77 316 68 309 q 106 324 86 324 l 352 324 l 420 471 l 106 471 q 77 479 86 471 q 68 500 68 488 q 77 521 68 513 q 106 529 86 529 l 446 529 l 579 819 q 609 844 591 844 q 629 835 621 844 q 637 817 637 827 q 631 794 637 809 l 509 529 l 728 529 q 757 521 748 529 q 766 500 766 513 q 757 479 766 488 q 728 471 748 471 l 483 471 z "},"Æ":{"ha":833,"x_min":12,"x_max":822,"o":"m 416 267 l 218 267 l 160 57 l 197 57 q 226 49 217 57 q 235 28 235 41 q 226 8 235 16 q 197 0 217 0 l 50 0 q 21 8 30 0 q 12 28 12 16 q 21 49 12 41 q 50 57 30 57 l 102 57 l 290 736 l 201 736 q 172 744 180 736 q 163 765 163 752 q 171 786 163 778 q 201 793 180 793 l 793 793 l 793 579 q 785 550 793 559 q 765 541 777 541 q 744 550 752 541 q 736 579 736 559 l 736 736 l 473 736 l 473 441 l 584 441 l 584 480 q 592 510 584 501 q 612 519 600 519 q 633 510 625 519 q 641 480 642 501 l 641 346 q 633 316 641 325 q 612 307 625 307 q 592 316 600 307 q 584 346 584 325 l 584 385 l 473 385 l 473 57 l 765 57 l 765 189 q 768 212 765 204 q 778 221 770 216 q 791 227 786 227 l 804 224 q 819 212 815 218 q 822 189 822 205 l 822 0 l 343 0 q 314 8 323 0 q 305 28 305 16 q 314 49 305 41 q 343 57 323 57 l 416 57 l 416 267 m 416 322 l 416 736 l 346 736 l 233 322 l 416 322 z "},"Ø":{"ha":833,"x_min":54,"x_max":779,"o":"m 197 71 l 111 -39 q 96 -54 102 -51 q 83 -57 90 -57 q 63 -48 71 -57 q 54 -28 54 -40 q 66 -3 54 -18 l 159 115 q 71 394 71 237 q 175 695 71 578 q 418 812 280 812 q 636 721 542 812 l 722 831 q 738 846 732 842 q 751 849 743 849 q 771 841 763 849 q 779 820 779 832 q 768 795 779 810 l 675 677 q 765 395 765 557 q 660 95 765 212 q 418 -22 555 -22 q 197 71 293 -22 m 600 675 q 418 755 517 755 q 213 649 298 755 q 127 395 127 543 q 197 162 127 265 l 600 675 m 233 117 q 418 35 315 35 q 622 140 536 35 q 707 395 707 245 q 637 630 707 528 l 233 117 z "},"∞":{"ha":833,"x_min":74,"x_max":760,"o":"m 417 460 q 608 574 503 574 q 718 532 675 574 q 760 423 760 491 q 719 312 760 355 q 612 270 677 270 q 417 385 512 270 q 315 294 360 317 q 222 271 271 271 q 116 312 158 271 q 74 420 74 354 q 117 530 74 487 q 226 573 161 573 q 417 460 327 573 m 451 422 q 544 341 511 358 q 612 323 578 323 q 683 350 657 323 q 709 422 709 377 q 681 494 709 466 q 610 522 653 522 q 530 497 572 522 q 451 422 487 473 m 385 423 q 291 504 326 486 q 221 522 256 522 q 151 494 178 522 q 123 422 123 467 q 150 350 123 376 q 219 323 177 323 q 306 351 262 323 q 385 423 351 380 z "},"±":{"ha":833,"x_min":98,"x_max":736,"o":"m 446 458 l 446 174 q 437 144 446 153 q 416 136 429 136 q 396 144 404 136 q 388 174 388 153 l 388 458 l 136 458 q 106 466 115 458 q 98 487 98 474 q 106 508 98 500 q 136 515 115 515 l 388 515 l 388 799 q 396 828 388 819 q 417 837 404 837 q 437 828 429 837 q 446 799 446 819 l 446 515 l 698 515 q 727 508 718 515 q 736 487 736 500 q 727 466 736 474 q 698 458 718 458 l 446 458 m 656 0 l 177 0 q 118 1 123 0 q 103 11 109 3 q 98 28 98 19 q 103 46 98 38 q 118 56 109 54 q 177 58 123 58 l 656 57 q 715 56 710 57 q 730 46 724 54 q 736 28 736 38 q 730 11 736 19 q 715 1 724 3 q 656 0 710 0 z "},"≤":{"ha":833,"x_min":66,"x_max":733,"o":"m 66 600 l 682 943 q 705 951 697 951 q 725 943 716 951 q 733 923 733 935 q 710 893 733 905 l 182 600 l 709 307 q 732 277 732 294 q 724 257 732 266 q 704 249 715 249 q 682 257 696 249 l 66 600 m 652 123 l 147 123 q 89 124 94 123 q 74 134 80 126 q 68 151 68 142 q 74 169 68 161 q 88 178 80 176 q 147 180 94 180 l 652 180 q 711 178 705 180 q 725 169 720 176 q 731 151 731 161 q 725 134 731 142 q 711 124 720 126 q 652 123 705 123 z "},"≥":{"ha":833,"x_min":100,"x_max":767,"o":"m 767 600 l 151 257 q 129 249 136 249 q 109 257 117 249 q 100 277 100 265 q 123 307 100 294 l 651 600 l 124 892 q 101 923 101 905 q 110 943 101 935 q 130 951 118 951 q 152 943 137 951 l 767 600 m 686 123 l 182 123 q 123 124 128 123 q 108 134 114 126 q 102 151 102 142 q 108 169 102 161 q 123 178 114 176 q 182 180 128 180 l 686 180 q 745 178 740 180 q 759 169 753 176 q 765 151 765 161 q 759 134 765 142 q 745 124 753 126 q 686 123 739 123 z "},"¥":{"ha":833,"x_min":66,"x_max":765,"o":"m 446 347 l 446 239 l 629 239 q 651 234 644 239 q 657 219 657 229 q 651 204 657 210 q 629 199 644 199 l 446 199 l 446 57 l 567 57 q 596 49 587 57 q 605 28 605 41 q 596 8 605 16 q 567 0 587 0 l 267 0 q 237 8 246 0 q 229 28 229 16 q 237 49 229 41 q 267 57 246 57 l 388 57 l 388 199 l 204 199 q 183 204 190 199 q 177 219 177 210 q 183 234 177 229 q 204 239 190 239 l 388 239 l 388 347 l 204 347 q 183 352 190 347 q 177 367 177 358 q 183 381 177 376 q 204 387 190 387 l 368 387 l 138 736 l 104 736 q 75 744 84 736 q 66 765 66 752 q 75 786 66 778 q 104 793 84 793 l 260 793 q 290 786 281 793 q 298 765 298 778 q 290 744 298 752 q 260 736 281 736 l 205 736 l 416 416 l 627 736 l 572 736 q 543 744 551 736 q 534 765 534 752 q 543 786 534 778 q 572 793 551 793 l 726 793 q 756 786 747 793 q 765 765 765 778 q 756 744 765 752 q 726 736 747 736 l 694 736 l 463 387 l 629 387 q 651 381 644 387 q 657 367 657 376 q 651 352 657 357 q 629 347 644 347 l 446 347 z "},"µ":{"ha":833,"x_min":61,"x_max":754,"o":"m 233 23 l 233 -224 q 225 -253 233 -244 q 204 -262 217 -262 q 183 -253 191 -262 q 176 -224 176 -244 l 176 530 l 99 530 q 70 538 79 530 q 61 559 61 546 q 70 579 61 571 q 99 587 79 587 l 233 587 l 233 162 q 268 71 233 106 q 356 35 303 35 q 611 162 495 35 l 611 530 l 506 530 q 477 538 486 530 q 468 559 468 546 q 477 579 468 571 q 506 587 486 587 l 668 587 l 668 57 l 716 57 q 745 49 736 57 q 754 28 754 41 q 745 8 754 16 q 716 0 736 0 l 611 0 l 611 83 q 357 -22 494 -22 q 233 23 283 -22 z "},"∂":{"ha":833,"x_min":119,"x_max":677,"o":"m 621 519 q 601 697 619 647 q 552 770 582 748 q 484 793 522 793 q 401 766 441 793 q 324 671 361 739 q 309 649 315 653 q 294 644 302 644 q 272 652 281 644 q 264 671 264 661 q 298 742 264 690 q 384 822 332 793 q 484 851 435 851 q 605 798 555 851 q 677 533 677 722 q 625 234 677 363 q 482 42 572 105 q 304 -20 392 -20 q 170 32 220 -20 q 119 174 119 83 q 154 316 119 251 q 248 425 189 382 q 396 492 307 467 q 621 519 486 517 m 620 461 q 459 448 515 458 q 307 396 369 432 q 210 299 245 360 q 176 172 176 238 q 213 75 176 112 q 307 37 251 37 q 418 68 361 37 q 517 152 475 99 q 588 296 559 205 q 620 461 608 359 z "},"∑":{"ha":833,"x_min":29,"x_max":747,"o":"m 689 -205 l 689 -25 q 697 4 689 -5 q 718 13 705 13 q 739 4 730 13 q 747 -25 747 -5 l 747 -262 l 29 -262 l 29 -201 l 384 304 l 41 798 l 41 851 l 743 851 l 743 635 q 735 606 743 614 q 714 597 727 597 q 693 606 701 597 q 686 635 686 614 l 686 793 l 106 793 l 450 309 l 95 -205 l 689 -205 z "},"∏":{"ha":833,"x_min":37,"x_max":797,"o":"m 658 -205 l 658 793 l 176 793 l 176 -205 l 220 -205 q 249 -213 240 -205 q 258 -233 258 -220 q 249 -254 258 -245 q 220 -262 240 -262 l 75 -262 q 45 -254 54 -262 q 37 -233 37 -246 q 45 -213 37 -220 q 75 -205 54 -205 l 119 -205 l 119 793 l 75 793 q 45 802 54 793 q 37 823 37 810 q 41 838 37 831 q 52 848 45 845 q 75 851 58 851 l 759 851 q 788 843 779 851 q 797 822 797 835 q 788 802 797 810 q 759 793 779 793 l 715 793 l 715 -205 l 759 -205 q 788 -213 779 -205 q 797 -233 797 -220 q 788 -254 797 -245 q 759 -262 779 -262 l 614 -262 q 585 -254 593 -262 q 576 -233 576 -246 q 585 -213 576 -220 q 614 -205 593 -205 l 658 -205 z "},"∫":{"ha":833,"x_min":153,"x_max":681,"o":"m 434 345 l 437 262 q 438 201 438 231 q 415 -41 438 30 q 348 -145 393 -112 q 254 -178 302 -178 q 183 -149 213 -178 q 153 -85 153 -120 q 161 -56 153 -66 q 184 -46 170 -46 q 209 -57 199 -46 q 226 -100 220 -68 q 239 -129 231 -121 q 269 -139 252 -139 q 344 -103 309 -139 q 385 -12 370 -77 q 401 201 401 53 q 399 273 401 237 l 397 355 q 395 417 395 387 q 418 659 395 588 q 485 762 440 729 q 579 795 530 795 q 651 767 621 795 q 681 703 681 738 q 672 674 681 684 q 649 664 663 664 q 624 675 635 664 q 608 717 613 686 q 594 747 604 739 q 564 757 582 757 q 490 721 525 757 q 448 629 463 694 q 433 417 433 564 q 434 345 433 381 z "},"ª":{"ha":833,"x_min":201,"x_max":644,"o":"m 515 507 l 515 547 q 352 493 437 493 q 240 528 279 493 q 201 610 201 562 q 251 702 201 662 q 402 743 302 743 q 454 740 426 743 q 515 732 482 737 l 515 777 q 493 816 515 800 q 410 837 465 837 q 292 814 369 837 q 271 810 277 810 q 253 817 260 810 q 245 836 245 825 q 252 853 245 846 q 298 870 258 860 q 412 889 374 889 q 529 854 488 889 q 570 777 570 819 l 570 559 l 610 559 q 636 551 628 559 q 644 533 644 544 q 636 514 644 522 q 610 507 628 507 l 515 507 m 515 614 l 514 679 q 465 688 491 685 q 408 690 438 690 q 286 660 329 690 q 256 610 256 638 q 279 565 256 584 q 350 545 302 545 q 515 614 436 545 z "},"º":{"ha":833,"x_min":199,"x_max":631,"o":"m 631 691 q 569 552 631 611 q 415 493 507 493 q 261 552 323 493 q 199 691 199 612 q 261 830 199 771 q 415 889 323 889 q 569 830 507 889 q 631 691 631 771 m 576 691 q 530 793 576 750 q 415 837 484 837 q 300 793 347 837 q 254 691 254 749 q 300 589 254 633 q 415 545 347 545 q 530 589 484 545 q 576 691 576 633 z "},"Ω":{"ha":833,"x_min":41,"x_max":792,"o":"m 99 57 l 290 57 l 290 121 q 105 231 170 149 q 41 435 41 313 q 156 705 41 604 q 418 807 271 807 q 606 759 518 807 q 743 622 694 711 q 792 434 792 534 q 729 237 792 317 q 541 121 667 156 l 541 57 l 732 57 l 732 91 q 739 132 732 123 q 761 140 747 140 q 777 136 770 140 q 786 124 783 131 q 787 91 788 118 l 787 0 l 486 0 l 486 166 q 672 259 608 186 q 736 443 736 332 q 637 672 736 590 q 421 755 538 755 q 217 684 309 755 q 98 439 98 593 q 163 251 98 321 q 345 166 228 180 l 345 0 l 45 0 l 45 91 q 47 124 45 118 q 57 136 50 132 q 72 141 64 141 q 85 137 80 141 q 96 124 94 132 q 99 91 99 117 l 99 57 z "},"æ":{"ha":833,"x_min":11,"x_max":808,"o":"m 808 279 l 446 279 q 514 85 456 157 q 602 35 555 35 q 758 113 662 35 q 781 123 770 123 q 801 115 793 123 q 808 95 808 107 q 800 74 808 84 q 696 4 767 39 q 602 -22 643 -22 q 519 4 561 -22 q 446 85 478 31 l 446 38 q 438 9 446 18 q 418 0 431 0 q 397 9 405 0 q 389 38 389 18 l 389 68 q 303 -3 341 17 q 222 -22 265 -22 q 118 7 168 -22 q 39 92 68 36 q 11 203 11 147 q 31 268 11 241 q 109 323 51 296 q 268 362 194 362 q 329 358 298 362 q 389 345 359 353 l 389 429 q 353 513 389 477 q 276 550 317 550 q 218 540 254 550 q 148 513 182 530 q 123 504 130 504 q 103 512 112 504 q 95 532 95 521 q 104 553 95 543 q 176 585 114 563 q 279 608 237 608 q 370 575 326 608 q 435 487 414 543 q 507 574 473 549 q 599 608 551 608 q 740 522 673 608 q 808 279 808 436 m 751 336 q 682 505 737 442 q 597 550 642 550 q 515 505 554 550 q 446 336 460 442 l 751 336 m 389 285 q 330 300 359 295 q 273 305 300 305 q 104 256 177 305 q 68 199 68 233 q 89 118 68 159 q 145 56 109 77 q 221 35 182 35 q 289 55 257 35 q 389 155 332 82 l 389 285 z "},"ø":{"ha":833,"x_min":76,"x_max":761,"o":"m 217 45 l 132 -43 q 104 -58 117 -58 q 84 -50 92 -58 q 76 -28 76 -41 q 91 -3 76 -18 l 174 83 q 91 293 91 173 q 186 514 91 421 q 418 608 281 608 q 621 541 532 608 l 705 627 q 732 642 720 642 q 752 634 744 642 q 761 613 761 626 q 746 587 761 602 l 663 502 q 746 292 746 412 q 651 71 746 163 q 418 -22 555 -22 q 217 45 309 -22 m 580 499 q 418 550 508 550 q 227 474 305 550 q 149 292 149 397 q 214 124 149 199 l 580 499 m 257 86 q 419 35 329 35 q 610 111 532 35 q 688 292 688 187 q 623 461 688 388 l 257 86 z "},"¿":{"ha":833,"x_min":156,"x_max":650,"o":"m 447 460 l 390 460 q 340 481 361 460 q 319 530 319 502 q 340 581 319 561 q 390 602 361 602 l 447 602 q 497 581 476 602 q 517 531 517 560 q 496 480 517 500 q 447 460 475 460 m 389 199 l 389 257 q 397 287 389 278 q 418 296 405 296 q 438 287 430 296 q 446 257 446 278 l 446 161 q 243 52 298 107 q 213 -25 213 21 q 268 -155 213 -100 q 412 -209 323 -209 q 496 -198 456 -209 q 593 -161 536 -188 l 593 -115 q 601 -85 593 -94 q 621 -76 608 -76 q 642 -85 634 -76 q 650 -115 650 -94 l 650 -197 q 513 -252 544 -245 q 407 -266 460 -266 q 225 -198 294 -266 q 156 -26 156 -130 q 197 87 156 38 q 389 199 238 136 z "},"¡":{"ha":833,"x_min":333,"x_max":500,"o":"m 430 454 l 404 454 q 354 475 374 454 q 333 525 333 496 q 354 575 333 555 q 404 595 375 595 l 430 595 q 480 575 459 595 q 500 526 500 554 q 479 475 500 495 q 430 454 458 454 m 363 -186 l 388 252 q 397 282 389 273 q 416 291 405 291 q 436 282 429 291 q 446 252 444 273 l 471 -186 q 472 -210 472 -201 q 456 -248 472 -233 q 417 -264 441 -264 q 377 -249 393 -264 q 361 -208 361 -233 q 363 -186 361 -201 z "},"¬":{"ha":833,"x_min":16,"x_max":736,"o":"m 54 368 q 32 371 39 368 q 21 381 25 374 q 16 397 16 389 q 25 417 16 410 q 54 425 34 425 l 736 425 l 736 83 q 728 54 736 63 q 707 45 720 45 q 686 54 694 45 q 678 83 678 63 l 678 368 l 54 368 z "},"√":{"ha":833,"x_min":93,"x_max":770,"o":"m 770 1087 l 587 -53 l 250 640 l 116 578 l 93 621 l 297 724 l 572 165 l 719 1087 l 770 1087 z "},"ƒ":{"ha":833,"x_min":120,"x_max":720,"o":"m 446 529 l 582 529 q 611 521 602 529 q 620 500 620 513 q 611 479 620 488 q 582 471 602 471 l 446 471 l 446 82 q 386 -69 446 -7 q 241 -131 326 -131 q 150 -114 195 -131 q 120 -82 120 -102 q 127 -62 120 -70 q 146 -54 135 -54 q 167 -59 153 -54 q 244 -74 210 -74 q 341 -33 305 -74 q 389 91 389 19 l 389 471 l 253 471 q 224 479 233 471 q 215 500 215 488 q 224 521 215 513 q 253 529 233 529 l 389 529 l 389 651 q 451 809 389 745 q 600 873 513 873 q 693 857 650 873 q 720 827 720 846 q 712 807 720 814 q 692 799 704 799 q 666 806 688 799 q 605 816 635 816 q 496 776 534 816 q 446 651 446 722 l 446 529 z "},"≈":{"ha":833,"x_min":127,"x_max":707,"o":"m 680 568 q 699 559 691 568 q 707 541 707 551 q 648 462 707 517 q 540 408 589 408 q 478 425 509 408 q 389 496 447 442 q 331 545 351 533 q 294 556 311 556 q 257 545 275 556 q 192 484 233 532 q 166 457 172 461 q 154 454 161 454 q 135 462 142 454 q 127 481 127 470 q 144 515 127 492 q 224 592 189 570 q 293 613 260 613 q 348 600 321 613 q 418 548 375 587 q 503 475 486 485 q 536 465 519 465 q 638 534 584 465 q 665 564 658 559 q 680 568 671 568 m 680 338 q 699 330 691 338 q 707 311 707 322 q 648 233 707 288 q 540 178 589 178 q 478 196 509 178 q 389 267 447 213 q 331 315 351 304 q 294 327 311 327 q 257 316 275 327 q 192 254 233 302 q 166 229 172 232 q 154 225 161 225 q 135 233 142 225 q 127 252 127 241 q 144 286 127 263 q 224 362 189 341 q 293 384 260 384 q 348 371 321 384 q 418 319 375 357 q 503 246 486 256 q 536 236 519 236 q 638 305 584 236 q 665 334 658 330 q 680 338 671 338 z "},"∆":{"ha":833,"x_min":56,"x_max":771,"o":"m 56 0 l 357 782 l 462 782 l 771 0 l 56 0 m 127 48 l 699 48 l 429 744 l 390 744 l 127 48 z "},"«":{"ha":833,"x_min":67,"x_max":747,"o":"m 67 294 l 371 572 q 401 589 389 589 q 421 581 413 589 q 429 559 429 572 q 414 532 429 549 l 201 294 l 414 58 q 429 29 429 41 q 421 9 429 17 q 401 1 413 1 q 371 16 389 1 l 67 294 m 385 294 l 689 572 q 719 589 707 589 q 739 581 731 589 q 747 559 747 572 q 732 532 747 549 l 520 294 l 732 58 q 747 29 747 41 q 739 9 747 17 q 719 1 731 1 q 689 16 707 1 l 385 294 z "},"»":{"ha":833,"x_min":86,"x_max":766,"o":"m 448 294 l 144 16 q 115 1 127 1 q 94 9 102 1 q 86 29 86 17 q 101 58 86 41 l 313 294 l 101 532 q 86 560 86 549 q 94 581 86 572 q 115 589 102 589 q 144 572 127 589 l 448 294 m 766 294 l 463 16 q 433 1 445 1 q 412 9 420 1 q 404 29 404 17 q 419 58 404 41 l 631 294 l 419 532 q 404 560 404 549 q 412 581 404 572 q 433 589 420 589 q 463 572 445 589 l 766 294 z "},"…":{"ha":833,"x_min":68,"x_max":765,"o":"m 208 50 q 187 0 208 20 q 138 -20 167 -20 q 89 0 109 -20 q 68 50 68 20 q 89 98 68 78 q 138 119 109 119 q 187 98 167 119 q 208 50 208 78 m 486 50 q 465 0 486 20 q 416 -20 445 -20 q 367 0 387 -20 q 347 50 347 20 q 367 98 347 78 q 416 119 387 119 q 465 98 445 119 q 486 50 486 78 m 765 50 q 745 0 765 20 q 695 -20 724 -20 q 646 0 667 -20 q 626 50 626 20 q 646 98 626 78 q 695 119 666 119 q 745 98 724 119 q 765 50 765 78 z "},"À":{"ha":833,"x_min":12,"x_max":824,"o":"m 604 265 l 230 265 l 153 57 l 262 57 q 292 49 283 57 q 300 28 300 41 q 292 8 300 16 q 262 0 283 0 l 50 0 q 20 8 29 0 q 12 28 12 16 q 20 49 12 41 q 50 57 29 57 l 94 57 l 345 736 l 177 736 q 148 744 157 736 q 139 765 139 752 q 148 786 139 778 q 177 793 157 793 l 464 793 l 742 57 l 786 57 q 815 49 806 57 q 824 28 824 41 q 815 8 824 16 q 786 0 806 0 l 574 0 q 544 8 553 0 q 535 28 535 16 q 544 49 535 41 q 574 57 553 57 l 682 57 l 604 265 m 583 322 l 425 736 l 404 736 l 252 322 l 583 322 m 307 1069 l 467 930 l 481 913 q 484 903 484 910 q 475 882 484 890 q 454 873 467 873 q 429 887 444 873 l 269 1025 q 252 1053 252 1040 q 260 1074 252 1065 q 281 1082 269 1082 q 307 1069 291 1082 z "},"Ã":{"ha":833,"x_min":12,"x_max":824,"o":"m 604 265 l 230 265 l 153 57 l 262 57 q 292 49 283 57 q 300 28 300 41 q 292 8 300 16 q 262 0 283 0 l 50 0 q 20 8 29 0 q 12 28 12 16 q 20 49 12 41 q 50 57 29 57 l 94 57 l 345 736 l 177 736 q 148 744 157 736 q 139 765 139 752 q 148 786 139 778 q 177 793 157 793 l 464 793 l 742 57 l 786 57 q 815 49 806 57 q 824 28 824 41 q 815 8 824 16 q 786 0 806 0 l 574 0 q 544 8 553 0 q 535 28 535 16 q 544 49 535 41 q 574 57 553 57 l 682 57 l 604 265 m 583 322 l 425 736 l 404 736 l 252 322 l 583 322 m 543 973 q 563 965 554 973 q 571 947 571 957 q 562 925 571 935 q 498 875 535 895 q 444 861 472 861 q 327 914 401 861 q 266 943 288 943 q 197 905 239 943 q 166 888 179 888 q 146 897 154 888 q 138 916 138 905 q 173 960 138 933 q 265 1000 226 1000 q 307 992 286 1000 q 375 951 328 983 q 444 918 422 918 q 522 964 470 918 q 543 973 533 973 z "},"Õ":{"ha":833,"x_min":71,"x_max":765,"o":"m 765 395 q 719 183 765 281 q 592 32 673 86 q 418 -22 511 -22 q 175 95 280 -22 q 71 395 71 212 q 175 695 71 578 q 418 812 280 812 q 591 758 511 812 q 719 606 672 703 q 765 395 765 509 m 707 395 q 627 644 707 534 q 418 755 546 755 q 213 649 298 755 q 127 395 127 544 q 217 135 127 236 q 418 35 306 35 q 627 145 546 35 q 707 395 707 255 m 604 973 q 624 965 616 973 q 633 947 633 957 q 624 925 633 935 q 559 875 597 895 q 506 861 534 861 q 389 914 463 861 q 328 943 349 943 q 259 905 300 943 q 228 888 241 888 q 208 897 216 888 q 200 916 200 905 q 235 960 200 933 q 327 1000 288 1000 q 368 992 347 1000 q 437 951 389 983 q 506 918 484 918 q 584 964 532 918 q 604 973 595 973 z "},"Œ":{"ha":833,"x_min":12,"x_max":822,"o":"m 473 384 l 473 57 l 765 57 l 765 188 q 773 217 765 208 q 793 226 781 226 q 814 217 806 226 q 822 188 822 208 l 822 0 l 368 0 q 112 107 212 0 q 12 395 12 214 q 31 538 12 468 q 79 650 50 608 q 165 733 109 692 q 250 779 207 764 q 357 793 293 793 l 794 793 l 794 576 q 786 547 794 556 q 765 538 778 538 q 745 547 753 538 q 736 576 736 556 l 736 736 l 473 736 l 473 441 l 584 441 l 584 479 q 592 509 584 500 q 612 518 600 518 q 633 509 625 518 q 642 479 642 500 l 641 345 q 633 315 641 324 q 612 307 625 307 q 592 315 600 307 q 584 345 584 324 l 584 384 l 473 384 m 416 736 l 370 736 q 240 713 288 736 q 152 646 193 689 q 90 539 112 604 q 68 394 68 474 q 152 146 68 236 q 370 57 235 57 l 416 57 l 416 736 z "},"œ":{"ha":833,"x_min":12,"x_max":810,"o":"m 809 280 l 446 280 q 479 142 451 202 q 540 58 508 81 q 604 35 572 35 q 731 92 656 35 q 769 119 762 115 q 782 122 775 122 q 801 114 793 122 q 810 94 810 105 q 789 64 810 81 q 713 12 758 37 q 603 -22 650 -22 q 500 19 551 -22 q 417 145 448 60 q 332 18 383 58 q 230 -22 281 -22 q 92 54 152 -22 q 12 298 12 152 q 89 533 12 439 q 227 608 151 608 q 333 568 279 608 q 417 447 386 527 q 599 608 487 608 q 740 524 673 608 q 809 280 807 440 m 389 293 q 336 483 389 414 q 229 551 282 551 q 122 483 176 551 q 69 293 69 414 q 123 103 69 172 q 229 35 176 35 q 336 103 283 35 q 389 293 389 172 m 751 338 q 682 507 734 448 q 598 551 642 551 q 515 507 555 551 q 446 338 463 448 l 751 338 z "},"–":{"ha":833,"x_min":98,"x_max":735,"o":"m 697 368 l 136 368 q 107 376 116 368 q 98 397 98 384 q 107 417 98 410 q 136 425 116 425 l 697 425 q 726 417 718 425 q 735 397 735 410 q 726 376 735 384 q 697 368 718 368 z "},"—":{"ha":833,"x_min":-10,"x_max":843,"o":"m 805 369 l 28 369 q -1 377 7 369 q -10 397 -10 385 q -1 418 -10 410 q 28 427 7 427 l 805 427 q 834 418 825 427 q 843 397 843 410 q 834 377 843 385 q 805 369 825 369 z "},"“":{"ha":833,"x_min":121,"x_max":684,"o":"m 121 851 l 269 851 l 385 559 q 391 535 391 543 q 381 511 391 521 q 356 500 371 500 q 320 528 337 500 l 121 851 m 414 851 l 562 851 l 678 559 q 684 535 684 543 q 674 511 684 521 q 650 500 665 500 q 613 528 630 500 l 414 851 z "},"”":{"ha":833,"x_min":149,"x_max":711,"o":"m 271 851 l 418 851 l 220 528 q 183 500 203 500 q 159 511 169 500 q 149 534 149 521 q 155 559 149 543 l 271 851 m 564 851 l 711 851 l 513 528 q 477 500 496 500 q 452 511 462 500 q 441 534 441 521 q 448 559 441 543 l 564 851 z "},"‘":{"ha":833,"x_min":345,"x_max":631,"o":"m 345 851 l 531 851 l 629 498 q 631 483 631 490 q 620 455 631 467 q 590 443 608 443 q 547 477 566 443 l 345 851 z "},"’":{"ha":833,"x_min":199,"x_max":485,"o":"m 300 851 l 485 851 l 283 477 q 239 443 265 443 q 211 455 222 443 q 199 484 199 467 q 201 498 199 490 l 300 851 z "},"÷":{"ha":833,"x_min":98,"x_max":736,"o":"m 472 663 q 456 624 472 640 q 417 608 439 608 q 378 624 394 608 q 361 663 361 640 q 378 702 361 686 q 417 718 394 718 q 456 702 439 718 q 472 663 472 686 m 656 368 l 177 368 q 118 370 123 368 q 103 379 109 372 q 98 397 98 387 q 103 414 98 406 q 118 424 109 422 q 177 425 123 425 l 656 425 q 715 424 710 425 q 730 414 724 422 q 736 397 736 406 q 730 379 736 387 q 715 370 724 372 q 656 368 710 368 m 472 130 q 456 91 472 107 q 416 75 439 75 q 378 91 394 75 q 361 130 361 107 q 378 169 361 153 q 416 185 394 185 q 456 169 439 185 q 472 130 472 153 z "},"◊":{"ha":833,"x_min":105,"x_max":729,"o":"m 446 964 l 729 481 l 446 0 l 370 0 l 105 481 l 370 964 l 446 964 m 409 899 l 178 481 l 409 64 l 652 481 l 409 899 z "},"ÿ":{"ha":833,"x_min":101,"x_max":798,"o":"m 420 0 l 156 530 l 139 530 q 110 538 119 530 q 101 558 101 546 q 105 574 101 567 q 117 584 110 581 q 139 587 124 587 l 295 587 q 324 579 315 587 q 333 558 333 571 q 324 538 333 546 q 295 530 315 530 l 218 530 l 451 62 l 680 530 l 604 530 q 574 538 583 530 q 566 559 566 546 q 574 579 566 571 q 604 587 583 587 l 759 587 q 789 579 780 587 q 798 558 798 571 q 792 542 798 549 q 780 532 787 534 q 742 530 773 530 l 381 -205 l 470 -205 q 499 -213 490 -205 q 508 -233 508 -220 q 499 -254 508 -245 q 470 -262 490 -262 l 142 -262 q 113 -254 121 -262 q 104 -233 104 -246 q 113 -213 104 -220 q 142 -205 121 -205 l 320 -205 l 420 0 m 368 778 q 351 739 368 755 q 312 723 335 723 q 273 739 290 723 q 257 778 257 755 q 273 817 257 801 q 312 833 290 833 q 351 817 335 833 q 368 778 368 801 m 659 778 q 642 739 659 755 q 603 723 626 723 q 564 739 580 723 q 548 778 548 755 q 564 817 548 801 q 603 833 580 833 q 642 817 626 833 q 659 778 659 801 z "},"Ÿ":{"ha":833,"x_min":67,"x_max":765,"o":"m 447 358 l 447 57 l 595 57 q 624 49 615 57 q 633 28 633 41 q 624 8 633 16 q 595 0 615 0 l 241 0 q 212 8 221 0 q 203 28 203 16 q 212 49 203 41 q 241 57 220 57 l 389 57 l 389 358 l 139 736 l 105 736 q 76 744 85 736 q 67 765 67 752 q 76 786 67 778 q 105 793 85 793 l 262 793 q 291 786 282 793 q 300 765 300 778 q 291 744 300 752 q 262 736 282 736 l 205 736 l 418 416 l 627 736 l 571 736 q 541 744 550 736 q 532 765 532 752 q 541 786 532 778 q 571 793 550 793 l 727 793 q 756 786 747 793 q 765 765 765 778 q 756 744 765 752 q 727 736 747 736 l 693 736 l 447 358 m 328 959 q 311 920 328 936 q 272 904 295 904 q 233 920 250 904 q 217 959 217 937 q 233 998 217 982 q 272 1015 250 1015 q 311 998 295 1015 q 328 959 328 982 m 618 959 q 602 920 618 936 q 563 904 586 904 q 524 920 540 904 q 508 959 508 937 q 524 998 508 982 q 563 1015 540 1015 q 602 998 586 1015 q 618 959 618 982 z "},"⁄":{"ha":833,"x_min":70,"x_max":764,"o":"m 743 606 l 122 205 q 99 196 107 196 q 78 204 87 196 q 70 224 70 212 q 91 254 70 240 l 712 654 q 735 663 727 663 q 755 655 747 663 q 764 635 764 646 q 743 606 764 619 z "},"€":{"ha":833,"x_min":5,"x_max":748,"o":"m 88 331 l 32 331 q 5 351 5 331 q 32 372 5 372 l 86 372 l 86 433 l 32 433 q 5 453 5 433 q 32 473 5 473 l 89 473 q 193 713 96 615 q 427 812 291 812 q 669 715 568 812 l 669 755 q 698 793 669 793 q 726 755 726 793 l 726 597 q 698 559 726 559 q 669 593 671 559 q 591 706 665 657 q 429 755 517 755 q 294 720 353 755 q 194 621 235 684 q 146 473 153 558 l 541 473 q 570 453 570 473 q 541 433 570 433 l 144 433 l 144 372 l 522 372 q 550 351 550 372 q 522 331 550 331 l 146 331 q 240 123 151 211 q 452 35 330 35 q 695 163 588 35 q 721 177 707 177 q 748 151 748 177 q 725 110 748 139 q 657 46 701 80 q 562 -5 613 12 q 453 -22 510 -22 q 272 24 353 -22 q 140 150 191 71 q 88 331 90 229 z "},"‹":{"ha":833,"x_min":73,"x_max":435,"o":"m 73 294 l 376 572 q 406 589 394 589 q 427 581 418 589 q 435 559 435 572 q 419 532 435 549 l 207 294 l 419 58 q 435 29 435 41 q 427 9 435 17 q 406 1 418 1 q 376 16 394 1 l 73 294 z "},"›":{"ha":833,"x_min":404,"x_max":766,"o":"m 766 294 l 462 16 q 433 1 445 1 q 412 9 420 1 q 404 29 404 17 q 419 58 404 41 l 631 294 l 419 532 q 404 560 404 549 q 412 581 404 572 q 433 589 420 589 q 462 572 445 589 l 766 294 z "},"ﬁ":{"ha":833,"x_min":9,"x_max":819,"o":"m 675 880 l 675 732 l 591 732 l 591 880 l 675 880 m 222 530 l 222 57 l 323 57 q 353 49 344 57 q 361 28 361 41 q 353 8 361 16 q 323 0 344 0 l 47 0 q 18 8 27 0 q 9 28 9 16 q 18 49 9 41 q 47 57 27 57 l 165 57 l 165 530 l 56 530 q 26 538 35 530 q 18 559 18 546 q 26 579 18 571 q 56 587 35 587 l 165 587 l 165 671 q 211 801 165 751 q 315 851 256 851 q 415 832 361 851 q 444 801 444 822 q 436 781 444 789 q 418 773 429 773 q 403 777 413 773 q 317 793 348 793 q 254 766 278 793 q 222 671 222 728 l 222 587 l 323 587 q 353 579 344 587 q 361 558 361 571 q 353 538 361 546 q 323 530 344 530 l 222 530 m 675 587 l 675 57 l 781 57 q 810 49 802 57 q 819 28 819 41 q 810 8 819 16 q 781 0 802 0 l 509 0 q 480 8 489 0 q 471 28 471 16 q 480 49 471 41 q 509 57 488 57 l 618 57 l 618 530 l 538 530 q 509 538 517 530 q 500 559 500 546 q 509 579 500 571 q 538 587 517 587 l 675 587 z "},"ﬂ":{"ha":833,"x_min":13,"x_max":826,"o":"m 226 530 l 226 57 l 327 57 q 356 49 347 57 q 365 28 365 41 q 356 8 365 16 q 327 0 347 0 l 51 0 q 22 8 31 0 q 13 28 13 16 q 22 49 13 41 q 51 57 31 57 l 168 57 l 168 530 l 59 530 q 30 538 39 530 q 21 559 21 546 q 30 579 21 571 q 59 587 39 587 l 168 587 l 168 671 q 214 801 168 751 q 319 851 260 851 q 418 832 365 851 q 447 801 447 822 q 439 781 447 789 q 421 773 432 773 q 406 777 416 773 q 320 793 351 793 q 258 766 281 793 q 226 671 226 728 l 226 587 l 327 587 q 356 579 347 587 q 365 558 365 571 q 356 538 365 546 q 327 530 347 530 l 226 530 m 678 851 l 678 57 l 787 57 q 817 49 808 57 q 826 28 826 41 q 817 8 826 16 q 787 0 808 0 l 512 0 q 483 8 492 0 q 474 28 474 16 q 483 49 474 41 q 512 57 491 57 l 621 57 l 621 793 l 541 793 q 511 802 520 793 q 503 823 503 810 q 511 843 503 835 q 541 851 520 851 l 678 851 z "},"‡":{"ha":833,"x_min":170,"x_max":663,"o":"m 445 532 l 445 237 l 625 237 q 654 229 646 237 q 663 208 663 220 q 654 187 663 195 q 625 179 646 179 l 445 179 l 445 -50 q 437 -79 445 -71 q 416 -88 429 -88 q 396 -79 404 -88 q 388 -50 388 -71 l 388 179 l 208 179 q 179 187 188 179 q 170 208 170 195 q 179 229 170 220 q 208 237 188 237 l 388 237 l 388 532 l 208 532 q 179 540 188 532 q 170 561 170 548 q 179 581 170 573 q 208 589 188 589 l 388 589 l 388 812 q 396 842 388 833 q 416 851 404 851 q 437 842 429 851 q 446 812 446 833 l 445 589 l 625 589 q 654 581 646 589 q 663 560 663 573 q 654 540 663 548 q 625 532 646 532 l 445 532 z "},"∙":{"ha":833,"x_min":313,"x_max":522,"o":"m 405 524 l 429 524 q 494 497 467 524 q 522 432 522 470 q 494 366 522 393 q 429 340 467 340 l 405 340 q 340 367 367 340 q 313 431 313 393 q 340 497 313 471 q 405 524 368 524 z "},"‚":{"ha":833,"x_min":203,"x_max":489,"o":"m 304 188 l 489 188 l 288 -186 q 243 -220 269 -220 q 215 -208 227 -220 q 203 -179 203 -196 q 205 -164 203 -172 l 304 188 z "},"„":{"ha":833,"x_min":152,"x_max":715,"o":"m 275 174 l 422 174 l 223 -149 q 186 -176 207 -176 q 162 -166 172 -176 q 152 -142 152 -156 q 158 -118 152 -134 l 275 174 m 568 174 l 715 174 l 517 -149 q 480 -176 500 -176 q 455 -166 465 -176 q 445 -142 445 -156 q 452 -118 445 -134 l 568 174 z "},"‰":{"ha":833,"x_min":41,"x_max":788,"o":"m 292 719 q 260 631 292 674 q 167 570 218 570 q 73 630 116 570 q 41 719 41 674 q 79 816 41 764 q 167 867 117 867 q 260 808 218 867 q 292 719 292 764 m 250 719 q 220 791 250 756 q 167 826 190 826 q 114 791 144 826 q 83 719 83 756 q 114 647 83 682 q 167 612 144 612 q 220 647 189 612 q 250 719 250 682 m 688 549 l 161 378 q 146 374 152 374 q 134 380 140 374 q 127 395 127 387 q 133 408 127 402 q 149 416 136 412 l 676 588 q 690 591 685 591 q 703 585 697 591 q 709 571 709 579 q 704 557 709 564 q 688 549 701 553 m 423 134 q 392 45 423 90 q 298 -14 349 -14 q 205 45 247 -14 q 172 134 172 90 q 210 231 172 179 q 298 282 248 282 q 392 222 349 282 q 423 134 423 179 m 382 134 q 351 206 382 171 q 298 241 321 241 q 245 206 275 241 q 214 134 214 171 q 245 62 214 97 q 298 26 275 26 q 351 62 321 26 q 382 134 382 97 m 788 134 q 756 45 788 90 q 663 -14 713 -14 q 569 45 612 -14 q 537 134 537 90 q 575 231 537 179 q 663 282 612 282 q 756 222 713 282 q 788 134 788 179 m 746 134 q 716 206 746 171 q 663 241 686 241 q 609 206 640 241 q 579 134 579 171 q 609 62 579 97 q 663 26 640 26 q 715 62 685 26 q 746 134 746 97 z "},"Â":{"ha":833,"x_min":12,"x_max":824,"o":"m 604 265 l 230 265 l 153 57 l 262 57 q 292 49 283 57 q 300 28 300 41 q 292 8 300 16 q 262 0 283 0 l 50 0 q 20 8 29 0 q 12 28 12 16 q 20 49 12 41 q 50 57 29 57 l 94 57 l 345 736 l 177 736 q 148 744 157 736 q 139 765 139 752 q 148 786 139 778 q 177 793 157 793 l 464 793 l 742 57 l 786 57 q 815 49 806 57 q 824 28 824 41 q 815 8 824 16 q 786 0 806 0 l 574 0 q 544 8 553 0 q 535 28 535 16 q 544 49 535 41 q 574 57 553 57 l 682 57 l 604 265 m 583 322 l 425 736 l 404 736 l 252 322 l 583 322 m 375 1072 l 559 932 q 574 917 571 922 q 578 903 578 911 q 569 883 578 891 q 549 875 561 875 q 525 886 540 875 l 375 1001 l 226 886 q 201 875 211 875 q 181 883 190 875 q 173 903 173 892 q 192 932 173 918 l 375 1072 z "},"Ê":{"ha":833,"x_min":60,"x_max":726,"o":"m 231 383 l 231 57 l 669 57 l 669 225 q 677 254 669 245 q 698 263 685 263 q 719 254 711 263 q 726 225 726 245 l 726 0 l 98 0 q 68 8 77 0 q 60 28 60 16 q 68 49 60 41 q 98 57 77 57 l 174 57 l 174 736 l 98 736 q 68 744 77 736 q 60 765 60 752 q 68 786 60 778 q 98 793 77 793 l 696 793 l 696 597 q 689 568 696 577 q 668 559 681 559 q 647 568 655 559 q 640 597 640 577 l 640 736 l 231 736 l 231 440 l 435 440 l 435 505 q 444 534 435 525 q 465 543 452 543 q 485 534 477 543 q 493 505 493 525 l 493 319 q 485 290 493 298 q 465 281 477 281 q 444 290 452 281 q 435 319 435 298 l 435 383 l 231 383 m 417 1069 l 601 930 q 616 915 613 920 q 620 901 620 909 q 611 881 620 889 q 591 873 603 873 q 567 884 582 873 l 417 999 l 268 884 q 243 873 253 873 q 223 881 232 873 q 215 901 215 890 q 234 930 215 916 l 417 1069 z "},"Á":{"ha":833,"x_min":12,"x_max":824,"o":"m 604 265 l 230 265 l 153 57 l 262 57 q 292 49 283 57 q 300 28 300 41 q 292 8 300 16 q 262 0 283 0 l 50 0 q 20 8 29 0 q 12 28 12 16 q 20 49 12 41 q 50 57 29 57 l 94 57 l 345 736 l 177 736 q 148 744 157 736 q 139 765 139 752 q 148 786 139 778 q 177 793 157 793 l 464 793 l 742 57 l 786 57 q 815 49 806 57 q 824 28 824 41 q 815 8 824 16 q 786 0 806 0 l 574 0 q 544 8 553 0 q 535 28 535 16 q 544 49 535 41 q 574 57 553 57 l 682 57 l 604 265 m 583 322 l 425 736 l 404 736 l 252 322 l 583 322 m 542 1025 l 381 887 q 355 873 366 873 q 335 882 344 873 q 327 903 327 890 q 330 915 327 909 q 344 930 333 920 l 504 1069 q 530 1082 519 1082 q 550 1074 542 1082 q 559 1053 559 1065 q 556 1041 559 1046 q 542 1025 553 1035 z "},"Ë":{"ha":833,"x_min":60,"x_max":726,"o":"m 231 383 l 231 57 l 669 57 l 669 225 q 677 254 669 245 q 698 263 685 263 q 719 254 711 263 q 726 225 726 245 l 726 0 l 98 0 q 68 8 77 0 q 60 28 60 16 q 68 49 60 41 q 98 57 77 57 l 174 57 l 174 736 l 98 736 q 68 744 77 736 q 60 765 60 752 q 68 786 60 778 q 98 793 77 793 l 696 793 l 696 597 q 689 568 696 577 q 668 559 681 559 q 647 568 655 559 q 640 597 640 577 l 640 736 l 231 736 l 231 440 l 435 440 l 435 505 q 444 534 435 525 q 465 543 452 543 q 485 534 477 543 q 493 505 493 525 l 493 319 q 485 290 493 298 q 465 281 477 281 q 444 290 452 281 q 435 319 435 298 l 435 383 l 231 383 m 328 959 q 311 920 328 936 q 272 904 295 904 q 233 920 250 904 q 217 959 217 937 q 233 998 217 982 q 272 1015 250 1015 q 311 998 295 1015 q 328 959 328 982 m 618 959 q 602 920 618 936 q 563 904 586 904 q 524 920 540 904 q 508 959 508 937 q 524 998 508 982 q 563 1015 540 1015 q 602 998 586 1015 q 618 959 618 982 z "},"È":{"ha":833,"x_min":60,"x_max":726,"o":"m 231 383 l 231 57 l 669 57 l 669 225 q 677 254 669 245 q 698 263 685 263 q 719 254 711 263 q 726 225 726 245 l 726 0 l 98 0 q 68 8 77 0 q 60 28 60 16 q 68 49 60 41 q 98 57 77 57 l 174 57 l 174 736 l 98 736 q 68 744 77 736 q 60 765 60 752 q 68 786 60 778 q 98 793 77 793 l 696 793 l 696 597 q 689 568 696 577 q 668 559 681 559 q 647 568 655 559 q 640 597 640 577 l 640 736 l 231 736 l 231 440 l 435 440 l 435 505 q 444 534 435 525 q 465 543 452 543 q 485 534 477 543 q 493 505 493 525 l 493 319 q 485 290 493 298 q 465 281 477 281 q 444 290 452 281 q 435 319 435 298 l 435 383 l 231 383 m 358 1069 l 518 930 l 533 913 q 535 903 535 910 q 527 882 535 890 q 506 873 518 873 q 480 887 496 873 l 320 1025 q 303 1053 303 1040 q 312 1074 303 1065 q 332 1082 320 1082 q 358 1069 342 1082 z "},"Í":{"ha":833,"x_min":155,"x_max":679,"o":"m 446 736 l 446 57 l 641 57 q 670 49 661 57 q 679 28 679 41 q 670 8 679 16 q 641 0 661 0 l 193 0 q 164 8 173 0 q 155 28 155 16 q 164 49 155 41 q 193 57 173 57 l 389 57 l 389 736 l 193 736 q 164 744 173 736 q 155 765 155 752 q 164 786 155 778 q 193 793 173 793 l 641 793 q 670 786 661 793 q 679 765 679 778 q 670 744 679 752 q 641 736 661 736 l 446 736 m 513 1025 l 352 887 q 326 873 337 873 q 306 882 315 873 q 298 903 298 890 q 301 915 298 909 q 315 930 304 920 l 475 1069 q 501 1082 490 1082 q 521 1074 513 1082 q 530 1053 530 1065 q 527 1041 530 1046 q 513 1025 524 1035 z "},"Î":{"ha":833,"x_min":155,"x_max":679,"o":"m 446 736 l 446 57 l 641 57 q 670 49 661 57 q 679 28 679 41 q 670 8 679 16 q 641 0 661 0 l 193 0 q 164 8 173 0 q 155 28 155 16 q 164 49 155 41 q 193 57 173 57 l 389 57 l 389 736 l 193 736 q 164 744 173 736 q 155 765 155 752 q 164 786 155 778 q 193 793 173 793 l 641 793 q 670 786 661 793 q 679 765 679 778 q 670 744 679 752 q 641 736 661 736 l 446 736 m 416 1069 l 600 930 q 616 915 612 920 q 619 901 619 909 q 611 881 619 889 q 590 873 602 873 q 566 884 581 873 l 416 999 l 267 884 q 243 873 252 873 q 223 881 231 873 q 214 901 214 890 q 233 930 214 916 l 416 1069 z "},"Ï":{"ha":833,"x_min":155,"x_max":679,"o":"m 446 736 l 446 57 l 641 57 q 670 49 661 57 q 679 28 679 41 q 670 8 679 16 q 641 0 661 0 l 193 0 q 164 8 173 0 q 155 28 155 16 q 164 49 155 41 q 193 57 173 57 l 389 57 l 389 736 l 193 736 q 164 744 173 736 q 155 765 155 752 q 164 786 155 778 q 193 793 173 793 l 641 793 q 670 786 661 793 q 679 765 679 778 q 670 744 679 752 q 641 736 661 736 l 446 736 m 327 959 q 311 920 327 936 q 271 904 294 904 q 233 920 249 904 q 216 959 216 937 q 233 998 216 982 q 271 1015 249 1015 q 311 998 294 1015 q 327 959 327 982 m 618 959 q 602 920 618 936 q 562 904 585 904 q 523 920 539 904 q 507 959 507 937 q 523 998 507 982 q 562 1015 539 1015 q 602 998 585 1015 q 618 959 618 982 z "},"Ì":{"ha":833,"x_min":155,"x_max":679,"o":"m 446 736 l 446 57 l 641 57 q 670 49 661 57 q 679 28 679 41 q 670 8 679 16 q 641 0 661 0 l 193 0 q 164 8 173 0 q 155 28 155 16 q 164 49 155 41 q 193 57 173 57 l 389 57 l 389 736 l 193 736 q 164 744 173 736 q 155 765 155 752 q 164 786 155 778 q 193 793 173 793 l 641 793 q 670 786 661 793 q 679 765 679 778 q 670 744 679 752 q 641 736 661 736 l 446 736 m 358 1069 l 518 930 l 533 913 q 535 903 535 910 q 527 882 535 890 q 506 873 518 873 q 480 887 496 873 l 320 1025 q 303 1053 303 1040 q 312 1074 303 1065 q 332 1082 320 1082 q 358 1069 342 1082 z "},"Ó":{"ha":833,"x_min":71,"x_max":765,"o":"m 765 395 q 719 183 765 281 q 592 32 673 86 q 418 -22 511 -22 q 175 95 280 -22 q 71 395 71 212 q 175 695 71 578 q 418 812 280 812 q 591 758 511 812 q 719 606 672 703 q 765 395 765 509 m 707 395 q 627 644 707 534 q 418 755 546 755 q 213 649 298 755 q 127 395 127 544 q 217 135 127 236 q 418 35 306 35 q 627 145 546 35 q 707 395 707 255 m 515 1025 l 355 887 q 329 873 340 873 q 309 882 317 873 q 300 903 300 890 q 303 915 300 909 q 317 930 307 920 l 477 1069 q 504 1082 493 1082 q 524 1074 515 1082 q 532 1053 532 1065 q 529 1041 532 1046 q 515 1025 526 1035 z "},"Ô":{"ha":833,"x_min":71,"x_max":765,"o":"m 765 395 q 719 183 765 281 q 592 32 673 86 q 418 -22 511 -22 q 175 95 280 -22 q 71 395 71 212 q 175 695 71 578 q 418 812 280 812 q 591 758 511 812 q 719 606 672 703 q 765 395 765 509 m 707 395 q 627 644 707 534 q 418 755 546 755 q 213 649 298 755 q 127 395 127 544 q 217 135 127 236 q 418 35 306 35 q 627 145 546 35 q 707 395 707 255 m 416 1069 l 600 930 q 616 915 612 920 q 619 901 619 909 q 611 881 619 889 q 590 873 602 873 q 566 884 581 873 l 416 999 l 267 884 q 243 873 252 873 q 223 881 231 873 q 214 901 214 890 q 233 930 214 916 l 416 1069 z "},"Ò":{"ha":833,"x_min":71,"x_max":765,"o":"m 765 395 q 719 183 765 281 q 592 32 673 86 q 418 -22 511 -22 q 175 95 280 -22 q 71 395 71 212 q 175 695 71 578 q 418 812 280 812 q 591 758 511 812 q 719 606 672 703 q 765 395 765 509 m 707 395 q 627 644 707 534 q 418 755 546 755 q 213 649 298 755 q 127 395 127 544 q 217 135 127 236 q 418 35 306 35 q 627 145 546 35 q 707 395 707 255 m 356 1069 l 516 930 l 531 913 q 533 903 533 910 q 525 882 533 890 q 504 873 516 873 q 478 887 494 873 l 318 1025 q 301 1053 301 1040 q 310 1074 301 1065 q 330 1082 318 1082 q 356 1069 340 1082 z "},"Ú":{"ha":833,"x_min":56,"x_max":779,"o":"m 692 736 l 692 260 q 612 59 692 140 q 419 -22 532 -22 q 284 11 343 -22 q 184 112 225 44 q 142 260 142 179 l 142 736 l 94 736 q 65 744 74 736 q 56 765 56 752 q 66 787 56 778 q 94 793 74 793 l 304 793 q 334 786 325 793 q 342 765 342 778 q 334 744 342 752 q 304 736 325 736 l 199 736 l 199 260 q 264 100 199 166 q 416 35 328 35 q 519 60 473 35 q 601 140 566 86 q 635 260 635 193 l 635 736 l 530 736 q 501 744 510 736 q 492 765 492 752 q 501 786 492 778 q 530 793 510 793 l 741 793 q 770 786 761 793 q 779 765 779 778 q 770 744 779 752 q 741 736 761 736 l 692 736 m 530 1025 l 370 887 q 344 873 355 873 q 324 882 332 873 q 315 903 315 890 q 318 915 315 909 q 332 930 321 920 l 492 1069 q 519 1082 508 1082 q 539 1074 530 1082 q 547 1053 547 1065 q 544 1041 547 1046 q 530 1025 541 1035 z "},"Û":{"ha":833,"x_min":56,"x_max":779,"o":"m 692 736 l 692 260 q 612 59 692 140 q 419 -22 532 -22 q 284 11 343 -22 q 184 112 225 44 q 142 260 142 179 l 142 736 l 94 736 q 65 744 74 736 q 56 765 56 752 q 66 787 56 778 q 94 793 74 793 l 304 793 q 334 786 325 793 q 342 765 342 778 q 334 744 342 752 q 304 736 325 736 l 199 736 l 199 260 q 264 100 199 166 q 416 35 328 35 q 519 60 473 35 q 601 140 566 86 q 635 260 635 193 l 635 736 l 530 736 q 501 744 510 736 q 492 765 492 752 q 501 786 492 778 q 530 793 510 793 l 741 793 q 770 786 761 793 q 779 765 779 778 q 770 744 779 752 q 741 736 761 736 l 692 736 m 417 1069 l 601 930 q 616 915 613 920 q 620 901 620 909 q 611 881 620 889 q 591 873 603 873 q 567 884 582 873 l 417 999 l 268 884 q 243 873 253 873 q 223 881 232 873 q 215 901 215 890 q 234 930 215 916 l 417 1069 z "},"Ù":{"ha":833,"x_min":56,"x_max":779,"o":"m 692 736 l 692 260 q 612 59 692 140 q 419 -22 532 -22 q 284 11 343 -22 q 184 112 225 44 q 142 260 142 179 l 142 736 l 94 736 q 65 744 74 736 q 56 765 56 752 q 66 787 56 778 q 94 793 74 793 l 304 793 q 334 786 325 793 q 342 765 342 778 q 334 744 342 752 q 304 736 325 736 l 199 736 l 199 260 q 264 100 199 166 q 416 35 328 35 q 519 60 473 35 q 601 140 566 86 q 635 260 635 193 l 635 736 l 530 736 q 501 744 510 736 q 492 765 492 752 q 501 786 492 778 q 530 793 510 793 l 741 793 q 770 786 761 793 q 779 765 779 778 q 770 744 779 752 q 741 736 761 736 l 692 736 m 336 1069 l 496 930 l 511 913 q 513 903 513 910 q 505 882 513 890 q 484 873 496 873 q 458 887 474 873 l 298 1025 q 281 1053 281 1040 q 290 1074 281 1065 q 311 1082 298 1082 q 336 1069 321 1082 z "},"ı":{"ha":833,"x_min":126,"x_max":710,"o":"m 448 587 l 448 57 l 671 57 q 701 49 692 57 q 710 28 710 41 q 701 8 710 16 q 671 0 692 0 l 167 0 q 138 8 146 0 q 126 30 129 16 q 138 49 129 41 q 167 57 146 57 l 391 57 l 391 530 l 224 530 q 195 538 204 530 q 186 558 186 546 q 195 579 186 571 q 224 587 203 587 l 448 587 z "},"ˆ":{"ha":833,"x_min":214,"x_max":619,"o":"m 416 888 l 600 749 q 616 733 612 739 q 619 720 619 728 q 611 700 619 708 q 590 692 602 692 q 566 703 581 692 l 416 818 l 267 703 q 243 692 252 692 q 223 700 231 692 q 214 720 214 709 q 233 749 214 734 l 416 888 z "},"˜":{"ha":833,"x_min":201,"x_max":633,"o":"m 605 791 q 625 783 616 791 q 633 765 633 775 q 625 743 633 753 q 560 693 597 713 q 507 679 534 679 q 389 732 463 679 q 328 762 350 762 q 260 724 301 762 q 229 707 241 707 q 209 715 216 707 q 201 734 201 723 q 235 779 201 751 q 328 819 288 819 q 369 810 348 819 q 437 769 390 802 q 507 736 485 736 q 585 783 532 736 q 605 791 595 791 z "},"ˉ":{"ha":833,"x_min":214,"x_max":620,"o":"m 581 730 l 252 730 q 223 738 232 730 q 214 758 214 746 q 223 779 214 771 q 252 787 232 787 l 580 787 q 611 779 602 787 q 620 758 620 771 q 611 738 620 745 q 581 730 602 730 z "},"˘":{"ha":833,"x_min":213,"x_max":621,"o":"m 241 880 q 261 873 254 880 q 270 848 269 866 q 314 779 274 809 q 417 748 353 748 q 520 779 480 748 q 564 848 559 809 q 572 872 566 866 q 592 880 581 880 q 613 872 604 880 q 621 849 621 863 q 566 739 621 788 q 417 690 511 690 q 268 739 323 690 q 213 849 213 788 q 221 872 213 863 q 241 880 229 880 z "},"˙":{"ha":833,"x_min":347,"x_max":486,"o":"m 486 778 q 466 729 486 749 q 417 709 446 709 q 368 729 388 709 q 347 778 347 749 q 368 827 347 807 q 417 848 388 848 q 466 827 446 848 q 486 778 486 807 z "},"˚":{"ha":833,"x_min":294,"x_max":539,"o":"m 539 804 q 503 719 539 755 q 416 684 467 684 q 330 719 366 684 q 294 804 294 755 q 330 889 294 854 q 416 925 366 925 q 503 889 467 925 q 539 804 539 854 m 498 804 q 474 861 498 838 q 416 884 450 884 q 358 861 382 884 q 334 804 334 837 q 358 748 334 772 q 416 724 382 724 q 474 748 450 724 q 498 804 498 771 z "},"¸":{"ha":833,"x_min":300,"x_max":518,"o":"m 397 -111 l 397 -7 q 403 14 397 8 q 418 20 409 20 q 433 14 427 20 q 438 -7 438 7 l 438 -72 q 497 -98 476 -77 q 518 -146 518 -119 q 493 -203 518 -180 q 420 -226 467 -226 q 352 -213 389 -226 q 307 -191 315 -201 q 300 -175 300 -183 q 306 -160 300 -166 q 320 -155 311 -155 q 336 -159 327 -155 q 420 -185 382 -185 q 462 -173 447 -185 q 477 -145 477 -160 q 465 -123 477 -132 q 425 -111 450 -111 l 397 -111 z "},"˝":{"ha":833,"x_min":214,"x_max":621,"o":"m 401 846 l 270 707 q 242 692 254 692 q 222 700 231 692 q 214 721 214 708 q 228 747 214 732 l 359 885 q 387 901 374 901 q 407 892 399 901 q 415 871 415 884 q 401 846 415 861 m 606 846 l 475 707 q 448 692 460 692 q 428 700 436 692 q 419 721 419 708 q 433 747 419 732 l 565 885 q 592 901 580 901 q 612 892 604 901 q 621 871 621 884 q 606 846 621 861 z "},"˛":{"ha":833,"x_min":317,"x_max":517,"o":"m 448 -3 q 442 -18 448 -12 q 422 -24 437 -22 q 378 -50 397 -26 q 358 -103 358 -73 q 376 -143 358 -127 q 427 -159 394 -159 q 479 -140 458 -159 q 497 -130 490 -130 q 511 -136 505 -130 q 517 -151 517 -142 q 498 -178 517 -165 q 425 -199 467 -199 q 347 -172 376 -199 q 317 -99 317 -144 q 351 -17 317 -52 q 427 18 385 18 q 442 13 436 18 q 448 -3 448 7 z "},"ˇ":{"ha":833,"x_min":214,"x_max":619,"o":"m 417 684 l 233 823 q 218 839 221 833 q 214 852 214 844 q 223 872 214 864 q 243 881 231 881 q 267 869 252 881 l 417 754 l 566 869 q 591 880 581 880 q 611 872 602 880 q 619 852 619 863 q 600 823 619 838 l 417 684 z "},"Ł":{"ha":833,"x_min":58,"x_max":753,"o":"m 316 736 l 316 446 l 468 535 q 491 544 483 544 q 511 535 503 544 q 519 515 519 527 q 515 500 519 507 q 496 486 511 494 l 316 380 l 316 57 l 696 57 l 696 285 q 704 314 696 305 q 725 323 712 323 q 746 314 738 323 q 753 285 753 305 l 753 0 l 123 0 q 94 8 103 0 q 85 28 85 16 q 94 49 85 41 q 123 57 102 57 l 259 57 l 259 347 l 110 259 q 87 250 94 250 q 67 259 75 250 q 58 279 58 268 q 62 294 58 288 q 81 309 66 300 l 259 413 l 259 736 l 123 736 q 94 744 103 736 q 85 765 85 752 q 94 786 85 778 q 123 793 102 793 l 452 793 q 481 786 473 793 q 490 765 490 778 q 481 744 490 752 q 452 736 473 736 l 316 736 z "},"ł":{"ha":833,"x_min":127,"x_max":708,"o":"m 446 851 l 446 475 l 570 545 q 593 554 585 554 q 613 546 605 554 q 621 526 621 538 q 617 510 621 517 q 598 496 612 504 l 446 408 l 446 57 l 669 57 q 699 49 690 57 q 708 28 708 41 q 699 8 708 16 q 669 0 690 0 l 165 0 q 136 8 144 0 q 127 28 127 16 q 136 49 127 41 q 165 57 144 57 l 389 57 l 389 376 l 266 305 q 243 297 252 297 q 223 306 231 297 q 215 326 215 314 q 219 341 215 334 q 237 355 223 347 l 389 441 l 389 793 l 224 793 q 195 802 204 793 q 186 823 186 810 q 195 843 186 835 q 224 851 203 851 l 446 851 z "},"Š":{"ha":833,"x_min":125,"x_max":708,"o":"m 621 736 l 621 755 q 628 785 621 776 q 649 793 636 793 q 670 785 662 793 q 677 755 677 776 l 677 610 q 670 581 677 590 q 649 572 662 572 q 629 581 637 572 q 621 607 621 589 q 562 709 617 664 q 417 755 507 755 q 267 706 323 755 q 212 592 212 658 q 227 530 212 558 q 269 485 243 503 q 327 457 294 468 q 429 435 359 447 q 589 397 545 416 q 678 323 648 370 q 708 213 708 277 q 630 46 708 115 q 420 -22 552 -22 q 182 71 271 -22 l 182 38 q 175 9 182 18 q 154 0 167 0 q 134 9 142 0 q 125 38 125 18 l 125 195 q 133 225 125 216 q 154 234 141 234 q 174 226 166 234 q 182 199 182 218 q 249 86 186 137 q 420 35 313 35 q 589 88 527 35 q 651 215 651 142 q 627 295 651 260 q 557 350 604 330 q 421 382 524 364 q 217 454 279 406 q 155 593 155 503 q 226 747 155 683 q 415 812 298 812 q 621 736 534 812 m 417 859 l 233 998 q 218 1014 221 1008 q 214 1027 214 1019 q 223 1047 214 1039 q 243 1056 231 1056 q 267 1044 252 1056 l 417 929 l 566 1044 q 591 1055 581 1055 q 611 1047 602 1055 q 619 1027 619 1038 q 600 998 619 1013 l 417 859 z "},"š":{"ha":833,"x_min":140,"x_max":693,"o":"m 605 550 q 613 578 605 570 q 633 587 621 587 q 654 578 646 587 q 663 549 663 570 l 663 451 q 654 422 663 431 q 633 413 646 413 q 614 420 622 413 q 605 445 606 428 q 563 512 601 486 q 416 550 507 550 q 267 511 320 550 q 227 446 227 482 q 275 378 227 406 q 398 349 307 359 q 563 320 517 336 q 661 254 629 296 q 693 163 693 212 q 623 34 693 91 q 418 -22 553 -22 q 197 46 283 -22 q 195 16 197 23 q 185 5 192 9 q 169 0 178 0 q 149 9 157 0 q 140 38 140 18 l 140 155 q 148 184 140 176 q 169 193 156 193 q 190 185 181 193 q 198 162 198 176 q 214 110 198 131 q 289 56 237 77 q 416 35 341 35 q 582 76 528 35 q 636 163 636 117 q 581 248 636 216 q 419 291 526 280 q 267 319 313 302 q 195 372 221 337 q 170 448 170 408 q 241 565 170 522 q 413 608 313 608 q 605 550 531 608 m 416 684 l 233 823 q 217 839 220 833 q 214 852 214 844 q 222 872 214 864 q 243 881 231 881 q 267 869 252 881 l 416 754 l 566 869 q 590 880 581 880 q 610 872 602 880 q 618 852 618 863 q 600 823 618 838 l 416 684 z "},"Ž":{"ha":833,"x_min":144,"x_max":693,"o":"m 693 0 l 144 0 l 144 83 l 607 732 l 607 736 l 228 736 l 228 569 q 220 539 228 548 q 199 530 212 530 q 178 539 186 530 q 170 569 170 548 l 170 793 l 662 793 l 662 713 l 199 63 l 199 57 l 636 57 l 636 256 q 644 286 636 277 q 665 294 652 294 q 685 286 677 294 q 693 256 693 277 l 693 0 m 419 859 l 235 998 q 220 1014 223 1008 q 216 1027 216 1019 q 225 1047 216 1039 q 245 1056 233 1056 q 269 1044 254 1056 l 419 929 l 568 1044 q 593 1055 583 1055 q 613 1047 604 1055 q 621 1027 621 1038 q 602 998 621 1013 l 419 859 z "},"ž":{"ha":833,"x_min":161,"x_max":682,"o":"m 666 587 l 666 536 l 239 57 l 625 57 l 625 136 q 632 165 625 156 q 653 174 640 174 q 674 165 666 174 q 682 136 682 156 l 682 0 l 161 0 l 161 51 l 585 530 l 231 530 l 231 452 q 223 423 231 432 q 203 414 215 414 q 182 423 190 414 q 174 452 174 432 l 174 587 l 666 587 m 417 684 l 233 823 q 218 839 221 833 q 214 852 214 844 q 223 872 214 864 q 243 881 231 881 q 267 869 252 881 l 417 754 l 566 869 q 591 880 581 880 q 611 872 602 880 q 619 852 619 863 q 600 823 619 838 l 417 684 z "},"¦":{"ha":833,"x_min":388,"x_max":446,"o":"m 446 772 l 445 517 q 441 450 445 457 q 416 437 431 437 q 399 444 407 437 q 389 458 391 450 q 388 517 388 464 l 388 772 q 389 831 388 825 q 399 845 391 839 q 416 851 407 851 q 434 845 426 851 q 444 831 441 839 q 446 772 446 825 m 446 158 l 445 -97 q 441 -163 445 -157 q 416 -176 431 -176 q 399 -170 407 -176 q 389 -156 391 -164 q 388 -97 388 -150 l 388 158 q 389 217 388 212 q 399 232 391 226 q 416 237 407 237 q 434 232 426 237 q 444 217 441 226 q 446 158 446 212 z "},"Ð":{"ha":833,"x_min":-2,"x_max":726,"o":"m 144 382 l 77 382 q 18 384 24 382 q 4 394 9 387 q -2 412 -2 401 q 4 429 -2 421 q 18 439 9 436 q 77 440 24 440 l 144 440 l 144 736 l 97 736 q 67 744 76 736 q 58 765 58 752 q 67 786 58 778 q 97 793 76 793 l 403 793 q 534 764 475 793 q 625 696 593 734 q 706 559 678 631 q 726 436 726 507 l 726 357 q 687 188 726 270 q 558 45 648 106 q 403 0 491 0 l 97 0 q 67 8 76 0 q 58 28 58 16 q 67 49 58 41 q 97 57 76 57 l 144 57 l 144 382 m 202 382 l 202 57 l 409 57 q 543 104 480 57 q 637 216 606 151 q 669 345 669 281 l 669 448 q 652 543 669 501 q 583 657 627 603 q 511 712 559 687 q 409 736 463 736 l 202 736 l 202 440 l 361 440 q 420 439 414 440 q 434 429 428 436 q 440 412 440 421 q 434 394 440 401 q 420 384 428 387 q 361 382 414 382 l 202 382 z "},"ð":{"ha":833,"x_min":87,"x_max":726,"o":"m 492 795 l 600 835 q 631 841 618 841 q 649 833 642 841 q 656 814 656 826 q 646 793 656 801 q 541 762 627 780 q 680 577 633 676 q 726 336 726 478 q 636 70 726 161 q 404 -21 547 -21 q 178 71 269 -21 q 87 292 87 162 q 177 504 87 416 q 399 592 267 592 q 519 569 463 592 q 610 515 574 546 q 661 450 635 492 q 602 606 635 552 q 479 739 568 659 q 248 663 261 663 q 227 670 235 663 q 218 688 218 677 q 229 708 218 699 q 299 735 239 717 q 421 770 394 764 q 328 789 376 783 q 292 801 301 793 q 282 821 282 810 q 292 840 282 831 q 319 848 301 848 q 492 795 408 848 m 407 33 q 534 64 471 33 q 630 155 597 96 q 663 283 663 213 q 590 462 663 390 q 405 534 516 534 q 217 461 292 534 q 143 288 143 389 q 179 162 143 224 q 279 66 214 100 q 407 33 343 33 z "},"Ý":{"ha":833,"x_min":67,"x_max":765,"o":"m 447 358 l 447 57 l 595 57 q 624 49 615 57 q 633 28 633 41 q 624 8 633 16 q 595 0 615 0 l 241 0 q 212 8 221 0 q 203 28 203 16 q 212 49 203 41 q 241 57 220 57 l 389 57 l 389 358 l 139 736 l 105 736 q 76 744 85 736 q 67 765 67 752 q 76 786 67 778 q 105 793 85 793 l 262 793 q 291 786 282 793 q 300 765 300 778 q 291 744 300 752 q 262 736 282 736 l 205 736 l 418 416 l 627 736 l 571 736 q 541 744 550 736 q 532 765 532 752 q 541 786 532 778 q 571 793 550 793 l 727 793 q 756 786 747 793 q 765 765 765 778 q 756 744 765 752 q 727 736 747 736 l 693 736 l 447 358 m 515 1019 l 355 881 q 329 867 340 867 q 309 876 317 867 q 300 897 300 884 q 303 909 300 903 q 317 924 307 914 l 477 1063 q 504 1076 493 1076 q 524 1068 515 1076 q 532 1047 532 1059 q 529 1035 532 1040 q 515 1019 526 1029 z "},"ý":{"ha":833,"x_min":101,"x_max":798,"o":"m 420 0 l 156 530 l 139 530 q 110 538 119 530 q 101 558 101 546 q 105 574 101 567 q 117 584 110 581 q 139 587 124 587 l 295 587 q 324 579 315 587 q 333 558 333 571 q 324 538 333 546 q 295 530 315 530 l 218 530 l 451 62 l 680 530 l 604 530 q 574 538 583 530 q 566 559 566 546 q 574 579 566 571 q 604 587 583 587 l 759 587 q 789 579 780 587 q 798 558 798 571 q 792 542 798 549 q 780 532 787 534 q 742 530 773 530 l 381 -205 l 470 -205 q 499 -213 490 -205 q 508 -233 508 -220 q 499 -254 508 -245 q 470 -262 490 -262 l 142 -262 q 113 -254 121 -262 q 104 -233 104 -246 q 113 -213 104 -220 q 142 -205 121 -205 l 320 -205 l 420 0 m 610 844 l 450 706 q 424 692 435 692 q 404 701 412 692 q 395 722 395 709 q 398 734 395 728 q 412 749 401 739 l 572 888 q 599 901 588 901 q 619 893 610 901 q 627 872 627 884 q 624 860 627 865 q 610 844 621 854 z "},"Þ":{"ha":833,"x_min":121,"x_max":756,"o":"m 176 793 l 488 793 q 517 786 509 793 q 526 765 526 778 q 517 744 526 752 q 488 736 509 736 l 293 736 l 293 630 l 490 630 q 682 561 608 630 q 756 398 756 491 q 732 300 756 344 q 674 231 708 256 q 569 175 623 193 q 471 161 530 161 l 293 161 l 293 57 l 488 57 q 517 49 509 57 q 526 28 526 41 q 517 8 526 16 q 488 0 509 0 l 159 0 q 130 8 139 0 q 121 28 121 16 q 130 49 121 41 q 159 57 139 57 l 236 57 l 236 736 l 159 736 q 130 744 139 736 q 121 765 121 752 q 126 781 121 774 q 138 791 132 789 q 176 793 145 793 m 293 219 l 475 219 q 593 247 538 219 q 674 315 648 275 q 699 398 699 356 q 642 519 699 465 q 496 572 584 572 l 293 572 l 293 219 z "},"þ":{"ha":833,"x_min":31,"x_max":753,"o":"m 202 851 l 202 484 q 311 576 253 545 q 449 608 370 608 q 604 568 533 608 q 714 459 675 529 q 753 311 753 389 q 666 101 753 189 q 450 14 578 14 q 202 138 297 14 l 202 -205 l 340 -205 q 370 -213 361 -205 q 378 -233 378 -220 q 370 -254 378 -245 q 340 -262 361 -262 l 68 -262 q 39 -254 48 -262 q 31 -233 31 -246 q 39 -213 31 -220 q 68 -205 48 -205 l 145 -205 l 145 793 l 68 793 q 39 802 48 793 q 31 823 31 810 q 39 843 31 835 q 68 851 48 851 l 202 851 m 696 311 q 624 480 696 410 q 450 550 553 550 q 274 479 346 550 q 202 311 202 409 q 274 142 202 213 q 450 72 346 72 q 624 142 552 72 q 696 311 696 212 z "},"−":{"ha":833,"x_min":98,"x_max":736,"o":"m 656 368 l 177 368 q 118 370 123 368 q 103 379 109 372 q 98 397 98 387 q 103 414 98 406 q 118 424 109 422 q 177 425 123 425 l 656 425 q 715 424 710 425 q 730 414 724 422 q 736 397 736 406 q 730 379 736 387 q 715 370 724 372 q 656 368 710 368 z "},"×":{"ha":833,"x_min":183,"x_max":651,"o":"m 417 356 l 239 178 q 224 165 229 168 q 212 163 219 163 q 192 171 200 163 q 183 192 183 180 q 199 218 183 203 l 376 397 l 198 575 q 183 602 183 590 q 192 622 183 614 q 212 631 200 631 q 239 615 224 631 l 417 437 l 594 614 q 621 629 610 629 q 642 621 633 629 q 650 600 650 612 q 635 574 650 589 l 458 397 l 636 218 q 651 191 651 203 q 643 171 651 179 q 622 162 634 162 q 612 165 616 162 q 595 178 605 168 l 417 356 z "},"¹":{"ha":833,"x_min":254,"x_max":579,"o":"m 441 869 l 441 456 l 548 456 q 572 451 565 456 q 579 437 579 445 q 572 424 579 429 q 548 418 565 418 l 284 418 q 261 424 268 418 q 254 437 254 429 q 261 451 254 445 q 284 456 268 456 l 391 456 l 391 815 l 291 788 q 278 786 283 786 q 261 792 268 786 q 254 805 254 798 q 259 816 254 811 q 278 825 263 821 l 441 869 z "},"²":{"ha":833,"x_min":231,"x_max":572,"o":"m 285 456 l 522 456 q 527 479 522 475 q 547 487 534 487 q 568 479 559 487 q 572 463 572 475 l 572 418 l 231 418 l 231 467 q 503 696 471 654 q 522 743 522 721 q 491 805 522 777 q 411 833 459 833 q 339 813 370 833 q 296 760 309 793 q 290 748 294 751 q 272 743 281 743 q 253 749 260 743 q 248 761 248 754 q 293 832 248 792 q 411 871 339 871 q 526 831 480 871 q 572 744 572 790 q 560 698 572 718 q 450 589 541 665 q 285 456 338 495 z "},"³":{"ha":833,"x_min":241,"x_max":589,"o":"m 499 659 q 566 609 542 641 q 589 544 589 577 q 540 450 589 493 q 410 408 490 408 q 312 426 361 408 q 245 460 262 444 q 241 472 241 466 q 247 485 241 479 q 264 490 254 490 q 294 479 274 490 q 410 446 347 446 q 503 476 467 446 q 539 543 539 507 q 503 611 539 580 q 398 643 466 642 q 374 649 381 644 q 368 663 368 654 q 375 675 368 670 q 397 681 382 681 q 473 690 450 681 q 508 718 495 699 q 521 755 521 736 q 493 809 521 785 q 418 833 466 833 q 311 795 348 833 q 289 785 302 785 q 271 790 278 785 q 264 802 264 795 q 272 817 264 808 q 334 856 294 841 q 418 871 373 871 q 529 836 488 871 q 571 755 571 800 q 555 703 571 726 q 499 659 532 673 z "},"½":{"ha":833,"x_min":0,"x_max":842,"o":"m 188 869 l 188 456 l 294 456 q 318 451 311 456 q 326 437 326 445 q 318 424 326 429 q 294 418 311 418 l 31 418 q 7 424 14 418 q 0 437 0 429 q 7 451 0 445 q 31 456 14 456 l 138 456 l 138 815 l 37 788 q 24 786 30 786 q 7 792 14 786 q 1 805 1 798 q 5 816 1 811 q 24 825 9 821 l 188 869 m 783 606 l 162 205 q 139 196 147 196 q 118 204 127 196 q 110 224 110 212 q 132 254 110 240 l 752 654 q 775 663 767 663 q 796 655 787 663 q 804 635 804 646 q 783 606 804 619 m 555 38 l 792 38 q 797 61 792 56 q 817 68 804 68 q 838 62 829 68 q 842 45 842 57 l 842 0 l 501 0 l 501 48 q 773 279 741 236 q 792 325 792 302 q 761 387 792 359 q 681 415 729 415 q 609 395 640 415 q 567 341 578 375 q 559 330 564 332 q 542 325 552 325 q 524 332 531 325 q 517 342 517 336 q 563 413 517 374 q 681 453 609 453 q 796 413 750 453 q 842 326 842 372 q 830 280 842 300 q 720 172 810 248 q 555 38 608 77 z "},"¼":{"ha":833,"x_min":0,"x_max":826,"o":"m 188 869 l 188 456 l 294 456 q 318 451 311 456 q 326 437 326 445 q 318 424 326 429 q 294 418 311 418 l 31 418 q 7 424 14 418 q 0 437 0 429 q 7 451 0 445 q 31 456 14 456 l 138 456 l 138 815 l 37 788 q 24 786 30 786 q 7 792 14 786 q 1 805 1 798 q 5 816 1 811 q 24 825 9 821 l 188 869 m 804 606 l 183 205 q 159 196 168 196 q 139 204 147 196 q 131 224 131 212 q 152 254 131 240 l 772 654 q 796 663 788 663 q 816 655 808 663 q 825 635 825 646 q 804 606 825 619 m 725 121 l 502 121 l 502 160 l 691 443 l 775 443 l 775 159 l 795 159 q 819 154 812 159 q 826 140 826 148 q 823 131 826 136 q 813 124 819 126 q 795 121 808 121 l 775 121 l 775 38 l 795 38 q 819 32 812 38 q 826 19 826 26 q 819 6 826 12 q 795 0 812 0 l 670 0 q 646 6 653 0 q 639 19 639 12 q 646 33 639 27 q 670 38 653 38 l 725 38 l 725 121 m 725 159 l 725 405 l 721 405 l 556 159 l 725 159 z "},"¾":{"ha":833,"x_min":0,"x_max":823,"o":"m 258 659 q 325 609 301 641 q 349 544 349 577 q 299 450 349 493 q 169 408 250 408 q 71 426 121 408 q 5 460 22 444 q 0 472 0 466 q 6 485 0 479 q 23 490 13 490 q 53 479 33 490 q 169 446 106 446 q 262 476 227 446 q 298 543 298 507 q 262 611 298 580 q 157 643 225 642 q 134 649 140 644 q 127 663 127 654 q 134 675 127 670 q 156 681 141 681 q 232 690 210 681 q 267 718 254 699 q 280 755 280 736 q 253 809 280 785 q 177 833 225 833 q 71 795 107 833 q 48 785 62 785 q 31 790 37 785 q 24 802 24 795 q 31 817 24 808 q 93 856 54 841 q 177 871 132 871 q 289 836 247 871 q 330 755 330 800 q 314 703 330 726 q 258 659 292 673 m 794 606 l 174 205 q 151 196 159 196 q 130 204 138 196 q 121 224 121 212 q 142 254 121 240 l 764 654 q 787 663 779 663 q 807 655 799 663 q 816 635 816 646 q 794 606 816 619 m 722 121 l 498 121 l 498 160 l 688 443 l 772 443 l 772 159 l 791 159 q 815 154 808 159 q 823 140 823 148 q 819 131 823 136 q 810 124 816 126 q 791 121 804 121 l 772 121 l 772 38 l 791 38 q 815 32 808 38 q 823 19 823 26 q 815 6 823 12 q 791 0 808 0 l 667 0 q 643 6 650 0 q 636 19 636 12 q 643 33 636 27 q 667 38 650 38 l 722 38 l 722 121 m 722 159 l 722 405 l 718 405 l 553 159 l 722 159 z "},"₣":{"ha":833,"x_min":108,"x_max":773,"o":"m 279 218 l 426 218 q 455 211 446 218 q 464 190 464 203 q 455 170 464 178 q 426 161 446 161 l 279 161 l 279 57 l 475 57 q 504 49 495 57 q 513 28 513 41 q 504 8 513 16 q 475 0 495 0 l 146 0 q 117 8 125 0 q 108 28 108 16 q 117 49 108 41 q 146 57 125 57 l 222 57 l 222 161 l 146 161 q 117 170 125 161 q 108 190 108 178 q 117 211 108 203 q 146 218 125 218 l 222 218 l 222 736 l 146 736 q 117 744 125 736 q 108 765 108 752 q 118 787 108 778 q 146 793 125 793 l 773 793 l 773 597 q 765 568 773 577 q 745 559 758 559 q 724 568 732 559 q 715 597 715 577 l 715 736 l 279 736 l 279 440 l 484 440 l 484 505 q 492 534 484 525 q 513 543 500 543 q 533 534 526 543 q 541 505 541 525 l 541 319 q 533 290 541 298 q 513 281 526 281 q 492 290 500 281 q 484 319 484 298 l 484 383 l 279 383 l 279 218 z "},"Ğ":{"ha":833,"x_min":87,"x_max":785,"o":"m 726 294 l 726 50 q 596 -4 661 14 q 467 -22 532 -22 q 306 5 376 -22 q 189 81 237 32 q 114 190 140 130 q 87 343 87 250 l 87 448 q 133 630 87 541 q 260 765 180 718 q 436 812 341 812 q 669 736 574 812 q 671 777 669 770 q 681 788 673 783 q 698 793 688 793 q 718 785 710 793 q 726 755 726 776 l 726 627 q 718 597 726 606 q 698 589 710 589 q 679 596 686 589 q 670 624 671 604 q 595 718 666 682 q 441 755 524 755 q 299 721 362 755 q 180 590 235 686 q 144 447 144 527 l 144 343 q 231 118 144 201 q 470 35 317 35 q 566 45 522 35 q 669 83 610 56 l 669 294 l 473 294 q 444 302 452 294 q 435 323 435 310 q 444 344 435 336 q 473 352 452 352 l 747 351 q 776 343 767 351 q 785 323 785 336 q 779 307 785 314 q 767 297 774 299 q 726 294 760 294 m 277 1060 q 296 1053 289 1060 q 305 1027 304 1046 q 349 958 309 989 q 452 928 389 928 q 555 958 515 928 q 599 1027 595 989 q 607 1052 601 1046 q 627 1060 616 1060 q 648 1052 640 1060 q 656 1029 656 1043 q 601 919 656 968 q 452 870 546 870 q 303 919 359 870 q 248 1029 248 968 q 256 1052 248 1043 q 277 1060 264 1060 z "},"ğ":{"ha":833,"x_min":85,"x_max":780,"o":"m 608 483 l 608 587 l 742 587 q 771 579 762 587 q 780 558 780 571 q 771 538 780 546 q 742 530 762 530 l 665 530 l 665 -39 q 641 -141 665 -96 q 587 -203 625 -171 q 517 -248 549 -235 q 434 -262 486 -262 l 273 -262 q 243 -254 252 -262 q 235 -233 235 -246 q 243 -212 235 -220 q 273 -204 252 -204 l 436 -205 q 527 -179 486 -205 q 593 -104 567 -153 q 608 -31 608 -75 l 608 140 q 372 14 517 14 q 170 101 255 14 q 85 311 85 189 q 170 521 85 434 q 372 608 255 608 q 608 483 517 608 m 608 311 q 539 481 608 412 q 375 550 471 550 q 211 480 279 550 q 142 311 142 411 q 211 141 142 211 q 375 72 279 72 q 539 141 471 72 q 608 311 608 211 m 241 880 q 260 873 253 880 q 269 848 268 866 q 313 779 273 809 q 416 748 353 748 q 519 779 479 748 q 563 848 559 809 q 571 872 565 866 q 591 880 580 880 q 612 872 604 880 q 621 849 621 863 q 565 739 621 788 q 416 690 510 690 q 268 739 323 690 q 212 849 212 788 q 220 872 212 863 q 241 880 229 880 z "},"İ":{"ha":833,"x_min":155,"x_max":679,"o":"m 446 736 l 446 57 l 641 57 q 670 49 661 57 q 679 28 679 41 q 670 8 679 16 q 641 0 661 0 l 193 0 q 164 8 173 0 q 155 28 155 16 q 164 49 155 41 q 193 57 173 57 l 389 57 l 389 736 l 193 736 q 164 744 173 736 q 155 765 155 752 q 164 786 155 778 q 193 793 173 793 l 641 793 q 670 786 661 793 q 679 765 679 778 q 670 744 679 752 q 641 736 661 736 l 446 736 m 486 957 q 466 908 486 928 q 417 888 446 888 q 368 908 388 888 q 347 957 347 928 q 368 1006 347 986 q 417 1027 388 1027 q 466 1006 446 1027 q 486 957 486 986 z "},"Ş":{"ha":833,"x_min":125,"x_max":708,"o":"m 621 736 l 621 755 q 628 785 621 776 q 649 793 636 793 q 670 785 662 793 q 677 755 677 776 l 677 610 q 670 581 677 590 q 649 572 662 572 q 629 581 637 572 q 621 607 621 589 q 562 709 617 664 q 417 755 507 755 q 267 706 323 755 q 212 592 212 658 q 227 530 212 558 q 269 485 243 503 q 327 457 294 468 q 429 435 359 447 q 589 397 545 416 q 678 323 648 370 q 708 213 708 277 q 630 46 708 115 q 420 -22 552 -22 q 182 71 271 -22 l 182 38 q 175 9 182 18 q 154 0 167 0 q 134 9 142 0 q 125 38 125 18 l 125 195 q 133 225 125 216 q 154 234 141 234 q 174 226 166 234 q 182 199 182 218 q 249 86 186 137 q 420 35 313 35 q 589 88 527 35 q 651 215 651 142 q 627 295 651 260 q 557 350 604 330 q 421 382 524 364 q 217 454 279 406 q 155 593 155 503 q 226 747 155 683 q 415 812 298 812 q 621 736 534 812 m 397 -111 l 397 -7 q 403 14 397 8 q 418 20 409 20 q 433 14 427 20 q 438 -7 438 7 l 438 -72 q 497 -98 476 -77 q 518 -146 518 -119 q 493 -203 518 -180 q 420 -226 467 -226 q 352 -213 389 -226 q 307 -191 315 -201 q 300 -175 300 -183 q 306 -160 300 -166 q 320 -155 311 -155 q 336 -159 327 -155 q 420 -185 382 -185 q 462 -173 447 -185 q 477 -145 477 -160 q 465 -123 477 -132 q 425 -111 450 -111 l 397 -111 z "},"ş":{"ha":833,"x_min":140,"x_max":693,"o":"m 605 550 q 613 578 605 570 q 633 587 621 587 q 654 578 646 587 q 663 549 663 570 l 663 451 q 654 422 663 431 q 633 413 646 413 q 614 420 622 413 q 605 445 606 428 q 563 512 601 486 q 416 550 507 550 q 267 511 320 550 q 227 446 227 482 q 275 378 227 406 q 398 349 307 359 q 563 320 517 336 q 661 254 629 296 q 693 163 693 212 q 623 34 693 91 q 418 -22 553 -22 q 197 46 283 -22 q 195 16 197 23 q 185 5 192 9 q 169 0 178 0 q 149 9 157 0 q 140 38 140 18 l 140 155 q 148 184 140 176 q 169 193 156 193 q 190 185 181 193 q 198 162 198 176 q 214 110 198 131 q 289 56 237 77 q 416 35 341 35 q 582 76 528 35 q 636 163 636 117 q 581 248 636 216 q 419 291 526 280 q 267 319 313 302 q 195 372 221 337 q 170 448 170 408 q 241 565 170 522 q 413 608 313 608 q 605 550 531 608 m 397 -111 l 397 -7 q 403 14 397 8 q 418 20 409 20 q 433 14 427 20 q 438 -7 438 7 l 438 -72 q 497 -98 476 -77 q 518 -146 518 -119 q 493 -203 518 -180 q 420 -226 467 -226 q 352 -213 389 -226 q 307 -191 315 -201 q 300 -175 300 -183 q 306 -160 300 -166 q 320 -155 311 -155 q 336 -159 327 -155 q 420 -185 382 -185 q 462 -173 447 -185 q 477 -145 477 -160 q 465 -123 477 -132 q 425 -111 450 -111 l 397 -111 z "},"Ć":{"ha":833,"x_min":86,"x_max":746,"o":"m 667 715 l 667 755 q 675 785 667 776 q 696 793 683 793 q 716 785 709 793 q 724 755 724 776 l 724 597 q 716 568 724 576 q 696 559 709 559 q 676 567 684 559 q 667 593 669 575 q 606 694 664 650 q 427 755 527 755 q 302 726 361 755 q 233 674 259 705 q 162 557 189 621 q 143 450 143 509 l 143 350 q 235 129 143 222 q 450 35 328 35 q 581 66 523 35 q 693 163 639 98 q 719 177 705 177 q 739 170 731 177 q 746 151 746 162 q 717 103 746 135 q 592 9 661 41 q 451 -22 522 -22 q 326 1 389 -22 q 245 44 277 20 q 166 126 213 68 q 103 234 120 184 q 86 342 86 283 l 86 458 q 131 630 86 542 q 255 765 176 718 q 425 812 333 812 q 667 715 566 812 m 564 1023 l 404 885 q 378 871 389 871 q 358 880 366 871 q 349 901 349 888 q 352 913 349 907 q 366 928 355 918 l 526 1067 q 553 1080 542 1080 q 573 1072 564 1080 q 581 1051 581 1063 q 578 1039 581 1044 q 564 1023 575 1033 z "},"ć":{"ha":833,"x_min":116,"x_max":745,"o":"m 654 530 l 654 549 q 663 578 654 570 q 683 587 671 587 q 704 578 696 587 q 712 549 712 570 l 712 420 q 704 390 711 399 q 683 381 696 381 q 664 389 671 381 q 654 415 656 397 q 591 507 650 463 q 431 550 532 550 q 239 471 304 550 q 173 289 173 391 q 245 106 173 178 q 433 35 318 35 q 569 59 500 35 q 693 138 637 83 q 718 151 707 151 q 738 143 730 151 q 745 124 745 136 q 677 50 745 95 q 431 -22 566 -22 q 204 65 293 -22 q 116 288 116 153 q 207 517 116 426 q 435 608 297 608 q 654 530 566 608 m 563 844 l 402 706 q 376 692 387 692 q 356 701 365 692 q 348 722 348 709 q 351 734 348 728 q 365 749 354 739 l 525 888 q 551 901 541 901 q 571 893 563 901 q 580 872 580 884 q 577 860 580 865 q 563 844 574 854 z "},"Č":{"ha":833,"x_min":86,"x_max":746,"o":"m 667 715 l 667 755 q 675 785 667 776 q 696 793 683 793 q 716 785 709 793 q 724 755 724 776 l 724 597 q 716 568 724 576 q 696 559 709 559 q 676 567 684 559 q 667 593 669 575 q 606 694 664 650 q 427 755 527 755 q 302 726 361 755 q 233 674 259 705 q 162 557 189 621 q 143 450 143 509 l 143 350 q 235 129 143 222 q 450 35 328 35 q 581 66 523 35 q 693 163 639 98 q 719 177 705 177 q 739 170 731 177 q 746 151 746 162 q 717 103 746 135 q 592 9 661 41 q 451 -22 522 -22 q 326 1 389 -22 q 245 44 277 20 q 166 126 213 68 q 103 234 120 184 q 86 342 86 283 l 86 458 q 131 630 86 542 q 255 765 176 718 q 425 812 333 812 q 667 715 566 812 m 449 863 l 265 1002 q 250 1018 253 1012 q 246 1031 246 1023 q 255 1052 246 1043 q 275 1060 263 1060 q 299 1048 284 1060 l 449 933 l 598 1048 q 623 1059 613 1059 q 643 1051 634 1059 q 651 1031 651 1042 q 632 1002 651 1017 l 449 863 z "},"č":{"ha":833,"x_min":116,"x_max":745,"o":"m 654 530 l 654 549 q 663 578 654 570 q 683 587 671 587 q 704 578 696 587 q 712 549 712 570 l 712 420 q 704 390 711 399 q 683 381 696 381 q 664 389 671 381 q 654 415 656 397 q 591 507 650 463 q 431 550 532 550 q 239 471 304 550 q 173 289 173 391 q 245 106 173 178 q 433 35 318 35 q 569 59 500 35 q 693 138 637 83 q 718 151 707 151 q 738 143 730 151 q 745 124 745 136 q 677 50 745 95 q 431 -22 566 -22 q 204 65 293 -22 q 116 288 116 153 q 207 517 116 426 q 435 608 297 608 q 654 530 566 608 m 456 684 l 272 823 q 256 839 260 833 q 253 852 253 844 q 261 872 253 864 q 282 881 270 881 q 306 869 291 881 l 456 754 l 605 869 q 629 880 620 880 q 649 872 641 880 q 658 852 658 863 q 639 823 658 838 l 456 684 z "},"đ":{"ha":833,"x_min":85,"x_max":810,"o":"m 696 729 l 770 729 q 794 726 788 729 q 806 716 801 723 q 810 701 810 709 q 805 685 810 692 q 794 675 800 677 q 766 672 787 672 l 696 672 l 696 57 l 772 57 q 802 49 793 57 q 810 28 810 41 q 802 8 810 16 q 772 0 793 0 l 638 0 l 638 113 q 387 -22 539 -22 q 238 19 309 -22 q 126 136 168 60 q 85 292 85 212 q 126 449 85 374 q 238 566 168 525 q 387 608 309 608 q 638 472 536 608 l 638 672 l 469 672 q 415 673 420 672 q 401 684 407 676 q 395 701 395 691 q 401 718 395 710 q 414 728 407 726 q 469 729 420 729 l 638 729 l 638 793 l 562 793 q 532 802 541 793 q 524 823 524 810 q 532 843 524 835 q 562 851 541 851 l 696 851 l 696 729 m 638 292 q 565 475 638 401 q 391 550 492 550 q 216 475 289 550 q 142 292 142 401 q 216 110 142 184 q 391 35 289 35 q 565 110 492 35 q 638 292 638 184 z "},"¯":{"ha":833,"x_min":-18,"x_max":852,"o":"m 814 909 l 20 909 q -9 917 -1 909 q -18 938 -18 925 q -9 958 -18 950 q 20 966 -1 966 l 814 966 q 843 958 835 966 q 852 937 852 950 q 843 917 852 925 q 814 909 835 909 z "},"·":{"ha":833,"x_min":480,"x_max":619,"o":"m 619 463 q 599 414 619 435 q 550 394 578 394 q 500 414 521 394 q 480 463 480 435 q 500 513 480 492 q 550 533 521 533 q 599 513 578 533 q 619 463 619 492 z "},"Ă":{"ha":833,"x_min":12,"x_max":824,"o":"m 604 265 l 230 265 l 153 57 l 262 57 q 292 49 283 57 q 300 28 300 41 q 292 8 300 16 q 262 0 283 0 l 50 0 q 20 8 29 0 q 12 28 12 16 q 20 49 12 41 q 50 57 29 57 l 94 57 l 345 736 l 177 736 q 148 744 157 736 q 139 765 139 752 q 148 786 139 778 q 177 793 157 793 l 464 793 l 742 57 l 786 57 q 815 49 806 57 q 824 28 824 41 q 815 8 824 16 q 786 0 806 0 l 574 0 q 544 8 553 0 q 535 28 535 16 q 544 49 535 41 q 574 57 553 57 l 682 57 l 604 265 m 583 322 l 425 736 l 404 736 l 252 322 l 583 322 m 242 1060 q 262 1053 254 1060 q 271 1027 269 1046 q 315 958 275 989 q 418 928 354 928 q 520 958 481 928 q 564 1027 560 989 q 572 1052 566 1046 q 593 1060 581 1060 q 613 1052 605 1060 q 622 1029 622 1043 q 567 919 622 968 q 418 870 511 870 q 269 919 324 870 q 214 1029 214 968 q 222 1052 214 1043 q 242 1060 230 1060 z "},"ă":{"ha":833,"x_min":98,"x_max":753,"o":"m 581 0 l 581 82 q 315 -22 456 -22 q 155 30 213 -22 q 98 157 98 81 q 174 301 98 239 q 395 363 250 363 q 481 358 435 363 q 581 342 527 353 l 581 434 q 537 515 581 481 q 407 550 494 550 q 220 511 340 550 q 193 505 199 505 q 174 513 182 505 q 166 533 166 521 q 173 551 166 545 q 250 579 182 562 q 410 608 355 608 q 578 554 517 608 q 638 434 638 501 l 638 57 l 714 57 q 744 49 735 57 q 753 28 753 41 q 744 8 753 16 q 714 0 735 0 l 581 0 m 581 283 q 496 300 541 295 q 401 306 451 306 q 208 252 277 306 q 155 157 155 212 q 195 70 155 105 q 313 35 235 35 q 450 64 387 35 q 581 158 513 94 l 581 283 m 250 880 q 269 873 262 880 q 278 848 277 866 q 322 779 282 809 q 425 748 361 748 q 528 779 488 748 q 572 848 568 809 q 580 872 574 866 q 600 880 589 880 q 621 872 612 880 q 629 849 629 863 q 574 739 629 788 q 425 690 519 690 q 276 739 332 690 q 221 849 221 788 q 229 872 221 863 q 250 880 237 880 z "},"Ą":{"ha":833,"x_min":12,"x_max":865,"o":"m 604 265 l 230 265 l 153 57 l 262 57 q 292 49 283 57 q 300 28 300 41 q 292 8 300 16 q 262 0 283 0 l 50 0 q 20 8 29 0 q 12 28 12 16 q 20 49 12 41 q 50 57 29 57 l 94 57 l 345 736 l 177 736 q 148 744 157 736 q 139 765 139 752 q 148 786 139 778 q 177 793 157 793 l 464 793 l 742 57 l 786 57 q 815 49 806 57 q 824 28 824 41 q 815 8 824 16 q 786 0 806 0 l 574 0 q 544 8 553 0 q 535 28 535 16 q 544 49 535 41 q 574 57 553 57 l 682 57 l 604 265 m 583 322 l 425 736 l 404 736 l 252 322 l 583 322 m 795 20 q 789 5 795 11 q 769 -1 785 0 q 725 -27 745 -4 q 705 -81 705 -50 q 723 -120 705 -104 q 774 -136 741 -136 q 827 -117 805 -136 q 844 -108 837 -108 q 859 -114 852 -108 q 865 -129 865 -119 q 845 -155 865 -142 q 772 -177 814 -177 q 694 -149 723 -177 q 665 -77 665 -121 q 699 6 665 -29 q 774 41 732 41 q 789 35 783 41 q 795 20 795 29 z "},"ą":{"ha":833,"x_min":98,"x_max":812,"o":"m 581 0 l 581 82 q 315 -22 456 -22 q 155 30 213 -22 q 98 157 98 81 q 174 301 98 239 q 395 363 250 363 q 481 358 435 363 q 581 342 527 353 l 581 434 q 537 515 581 481 q 407 550 494 550 q 220 511 340 550 q 193 505 199 505 q 174 513 182 505 q 166 533 166 521 q 173 551 166 545 q 250 579 182 562 q 410 608 355 608 q 578 554 517 608 q 638 434 638 501 l 638 57 l 714 57 q 744 49 735 57 q 753 28 753 41 q 744 8 753 16 q 714 0 735 0 l 581 0 m 581 283 q 496 300 541 295 q 401 306 451 306 q 208 252 277 306 q 155 157 155 212 q 195 70 155 105 q 313 35 235 35 q 450 64 387 35 q 581 158 513 94 l 581 283 m 743 20 q 736 5 743 12 q 716 -1 732 1 q 672 -26 692 -3 q 652 -80 652 -50 q 670 -120 652 -104 q 721 -136 688 -136 q 774 -117 752 -136 q 791 -107 784 -107 q 806 -113 800 -107 q 812 -128 812 -119 q 792 -155 812 -142 q 720 -176 762 -176 q 641 -149 670 -176 q 612 -76 612 -121 q 646 6 612 -28 q 721 41 680 41 q 736 36 730 41 q 743 20 743 30 z "},"Ď":{"ha":833,"x_min":107,"x_max":774,"o":"m 193 57 l 193 736 l 145 736 q 116 744 125 736 q 107 765 107 752 q 116 786 107 778 q 145 793 125 793 l 452 793 q 583 764 524 793 q 673 696 642 734 q 755 559 727 631 q 774 436 774 507 l 774 357 q 736 188 774 270 q 607 45 697 106 q 452 0 540 0 l 145 0 q 116 8 125 0 q 107 28 107 16 q 116 49 107 41 q 145 57 125 57 l 193 57 m 250 57 l 457 57 q 592 104 529 57 q 686 216 654 151 q 718 345 718 281 l 718 448 q 701 543 718 501 q 631 657 676 603 q 559 712 607 687 q 457 736 512 736 l 250 736 l 250 57 m 425 863 l 241 1002 q 225 1018 229 1012 q 222 1031 222 1023 q 230 1052 222 1043 q 251 1060 239 1060 q 275 1048 260 1060 l 425 933 l 574 1048 q 598 1059 589 1059 q 618 1051 610 1059 q 627 1031 627 1042 q 608 1002 627 1017 l 425 863 z "},"ď":{"ha":833,"x_min":85,"x_max":833,"o":"m 597 851 l 597 57 l 674 57 q 712 28 712 57 q 674 0 712 0 l 540 0 l 541 105 q 338 -22 460 -22 q 159 71 232 -22 q 85 292 85 165 q 160 516 85 424 q 338 608 235 608 q 541 484 458 608 l 540 793 l 464 793 q 426 822 426 793 q 464 851 426 851 l 597 851 m 540 292 q 481 475 540 399 q 341 550 423 550 q 201 474 259 550 q 142 292 142 399 q 200 111 142 188 q 341 35 258 35 q 481 110 422 35 q 540 292 540 185 m 775 743 l 759 743 q 705 795 705 743 q 720 834 705 818 q 759 851 734 851 l 779 851 q 833 793 833 851 q 792 684 833 743 q 733 625 751 625 q 709 646 709 625 q 729 677 709 656 q 775 743 769 720 z "},"Đ":{"ha":833,"x_min":-2,"x_max":726,"o":"m 144 382 l 77 382 q 18 384 24 382 q 4 394 9 387 q -2 412 -2 401 q 4 429 -2 421 q 18 439 9 436 q 77 440 24 440 l 144 440 l 144 736 l 97 736 q 67 744 76 736 q 58 765 58 752 q 67 786 58 778 q 97 793 76 793 l 403 793 q 534 764 475 793 q 625 696 593 734 q 706 559 678 631 q 726 436 726 507 l 726 357 q 687 188 726 270 q 558 45 648 106 q 403 0 491 0 l 97 0 q 67 8 76 0 q 58 28 58 16 q 67 49 58 41 q 97 57 76 57 l 144 57 l 144 382 m 202 382 l 202 57 l 409 57 q 543 104 480 57 q 637 216 606 151 q 669 345 669 281 l 669 448 q 652 543 669 501 q 583 657 627 603 q 511 712 559 687 q 409 736 463 736 l 202 736 l 202 440 l 361 440 q 420 439 414 440 q 434 429 428 436 q 440 412 440 421 q 434 394 440 401 q 420 384 428 387 q 361 382 414 382 l 202 382 z "},"Ę":{"ha":833,"x_min":60,"x_max":791,"o":"m 231 383 l 231 57 l 669 57 l 669 225 q 677 254 669 245 q 698 263 685 263 q 719 254 711 263 q 726 225 726 245 l 726 0 l 98 0 q 68 8 77 0 q 60 28 60 16 q 68 49 60 41 q 98 57 77 57 l 174 57 l 174 736 l 98 736 q 68 744 77 736 q 60 765 60 752 q 68 786 60 778 q 98 793 77 793 l 696 793 l 696 597 q 689 568 696 577 q 668 559 681 559 q 647 568 655 559 q 640 597 640 577 l 640 736 l 231 736 l 231 440 l 435 440 l 435 505 q 444 534 435 525 q 465 543 452 543 q 485 534 477 543 q 493 505 493 525 l 493 319 q 485 290 493 298 q 465 281 477 281 q 444 290 452 281 q 435 319 435 298 l 435 383 l 231 383 m 722 16 q 715 1 722 7 q 695 -5 711 -4 q 651 -31 671 -8 q 631 -85 631 -54 q 649 -124 631 -109 q 700 -140 667 -140 q 753 -121 731 -140 q 770 -112 763 -112 q 785 -118 779 -112 q 791 -133 791 -123 q 771 -159 791 -146 q 699 -181 741 -181 q 620 -153 649 -181 q 591 -81 591 -125 q 625 2 591 -33 q 700 37 659 37 q 715 31 709 37 q 722 16 722 25 z "},"ę":{"ha":833,"x_min":87,"x_max":726,"o":"m 725 280 l 144 280 q 237 102 159 170 q 429 35 315 35 q 563 56 493 35 q 677 111 633 77 q 699 121 690 121 q 718 113 710 121 q 726 93 726 104 q 715 71 726 81 q 600 7 683 37 q 429 -22 517 -22 q 185 74 283 -22 q 87 306 87 170 q 179 519 87 430 q 406 608 271 608 q 636 516 546 608 q 725 280 726 425 m 667 338 q 578 491 650 432 q 406 550 506 550 q 235 492 307 550 q 145 338 163 433 l 667 338 m 471 -1 q 465 -16 471 -9 q 444 -22 460 -20 q 400 -47 420 -24 q 380 -101 380 -71 q 398 -141 380 -125 q 449 -157 416 -157 q 502 -138 480 -157 q 519 -128 512 -128 q 534 -134 528 -128 q 540 -149 540 -140 q 520 -176 540 -163 q 448 -197 490 -197 q 369 -170 398 -197 q 340 -97 340 -142 q 374 -15 340 -50 q 449 20 408 20 q 465 15 458 20 q 471 -1 471 9 z "},"Ě":{"ha":833,"x_min":60,"x_max":726,"o":"m 231 383 l 231 57 l 669 57 l 669 225 q 677 254 669 245 q 698 263 685 263 q 719 254 711 263 q 726 225 726 245 l 726 0 l 98 0 q 68 8 77 0 q 60 28 60 16 q 68 49 60 41 q 98 57 77 57 l 174 57 l 174 736 l 98 736 q 68 744 77 736 q 60 765 60 752 q 68 786 60 778 q 98 793 77 793 l 696 793 l 696 597 q 689 568 696 577 q 668 559 681 559 q 647 568 655 559 q 640 597 640 577 l 640 736 l 231 736 l 231 440 l 435 440 l 435 505 q 444 534 435 525 q 465 543 452 543 q 485 534 477 543 q 493 505 493 525 l 493 319 q 485 290 493 298 q 465 281 477 281 q 444 290 452 281 q 435 319 435 298 l 435 383 l 231 383 m 434 863 l 250 1002 q 235 1018 238 1012 q 231 1031 231 1023 q 240 1052 231 1043 q 260 1060 248 1060 q 284 1048 269 1060 l 434 933 l 583 1048 q 608 1059 598 1059 q 628 1051 619 1059 q 636 1031 636 1042 q 617 1002 636 1017 l 434 863 z "},"ě":{"ha":833,"x_min":87,"x_max":726,"o":"m 725 280 l 144 280 q 237 102 159 170 q 429 35 315 35 q 563 56 493 35 q 677 111 633 77 q 699 121 690 121 q 718 113 710 121 q 726 93 726 104 q 715 71 726 81 q 600 7 683 37 q 429 -22 517 -22 q 185 74 283 -22 q 87 306 87 170 q 179 519 87 430 q 406 608 271 608 q 636 516 546 608 q 725 280 726 425 m 667 338 q 578 491 650 432 q 406 550 506 550 q 235 492 307 550 q 145 338 163 433 l 667 338 m 439 684 l 256 823 q 240 839 243 833 q 237 852 237 844 q 245 872 237 864 q 266 881 254 881 q 290 869 275 881 l 439 754 l 589 869 q 613 880 604 880 q 633 872 625 880 q 642 852 642 863 q 623 823 642 838 l 439 684 z "},"Ĺ":{"ha":833,"x_min":87,"x_max":754,"o":"m 318 736 l 318 57 l 696 57 l 696 283 q 705 313 696 304 q 726 321 713 321 q 746 313 738 321 q 754 283 754 304 l 754 0 l 125 0 q 96 8 104 0 q 87 28 87 16 q 96 49 87 41 q 125 57 104 57 l 260 57 l 260 736 l 125 736 q 96 744 104 736 q 87 765 87 752 q 96 786 87 778 q 125 793 104 793 l 454 793 q 483 786 474 793 q 492 765 492 778 q 483 744 492 752 q 454 736 474 736 l 318 736 m 519 1023 l 359 885 q 333 871 344 871 q 313 880 321 871 q 304 901 304 888 q 308 913 304 907 q 321 928 311 918 l 481 1067 q 508 1080 497 1080 q 528 1072 519 1080 q 536 1051 536 1063 q 533 1039 536 1044 q 519 1023 530 1033 z "},"ĺ":{"ha":833,"x_min":127,"x_max":708,"o":"m 446 851 l 446 57 l 669 57 q 699 49 690 57 q 708 28 708 41 q 699 8 708 16 q 669 0 690 0 l 165 0 q 136 8 144 0 q 127 28 127 16 q 136 49 127 41 q 165 57 144 57 l 389 57 l 389 793 l 224 793 q 195 802 204 793 q 186 823 186 810 q 195 843 186 835 q 224 851 203 851 l 446 851 m 517 1053 l 356 915 q 330 901 341 901 q 310 910 319 901 q 302 930 302 918 q 305 943 302 937 q 319 958 308 948 l 479 1097 q 505 1110 494 1110 q 525 1102 517 1110 q 534 1081 534 1093 q 531 1068 534 1074 q 517 1053 528 1063 z "},"Ľ":{"ha":833,"x_min":87,"x_max":754,"o":"m 318 736 l 318 57 l 696 57 l 696 283 q 705 313 696 304 q 726 321 713 321 q 746 313 738 321 q 754 283 754 304 l 754 0 l 125 0 q 96 8 104 0 q 87 28 87 16 q 96 49 87 41 q 125 57 104 57 l 260 57 l 260 736 l 125 736 q 96 744 104 736 q 87 765 87 752 q 96 786 87 778 q 125 793 104 793 l 454 793 q 483 786 474 793 q 492 765 492 778 q 483 744 492 752 q 454 736 474 736 l 318 736 m 642 659 l 626 659 q 572 711 572 659 q 586 750 572 734 q 626 766 601 766 l 646 766 q 700 709 700 766 q 659 600 700 659 q 600 541 618 541 q 575 562 575 541 q 595 593 575 572 q 642 659 635 635 z "},"ľ":{"ha":833,"x_min":127,"x_max":708,"o":"m 446 851 l 446 57 l 669 57 q 699 49 690 57 q 708 28 708 41 q 699 8 708 16 q 669 0 690 0 l 165 0 q 136 8 144 0 q 127 28 127 16 q 136 49 127 41 q 165 57 144 57 l 389 57 l 389 793 l 224 793 q 195 802 204 793 q 186 823 186 810 q 195 843 186 835 q 224 851 203 851 l 446 851 m 608 743 l 592 743 q 538 795 538 743 q 552 835 538 819 q 592 851 567 851 l 612 851 q 666 794 666 851 q 625 685 666 743 q 566 626 584 626 q 541 646 541 626 q 562 678 541 657 q 608 743 602 720 z "},"Ŀ":{"ha":833,"x_min":87,"x_max":754,"o":"m 318 736 l 318 57 l 696 57 l 696 283 q 705 313 696 304 q 726 321 713 321 q 746 313 738 321 q 754 283 754 304 l 754 0 l 125 0 q 96 8 104 0 q 87 28 87 16 q 96 49 87 41 q 125 57 104 57 l 260 57 l 260 736 l 125 736 q 96 744 104 736 q 87 765 87 752 q 96 786 87 778 q 125 793 104 793 l 454 793 q 483 786 474 793 q 492 765 492 778 q 483 744 492 752 q 454 736 474 736 l 318 736 m 619 463 q 599 414 619 435 q 550 394 578 394 q 500 414 521 394 q 480 463 480 435 q 500 513 480 492 q 550 533 521 533 q 599 513 578 533 q 619 463 619 492 z "},"ŀ":{"ha":833,"x_min":127,"x_max":708,"o":"m 446 851 l 446 57 l 669 57 q 699 49 690 57 q 708 28 708 41 q 699 8 708 16 q 669 0 690 0 l 165 0 q 136 8 144 0 q 127 28 127 16 q 136 49 127 41 q 165 57 144 57 l 389 57 l 389 793 l 224 793 q 195 802 204 793 q 186 823 186 810 q 195 843 186 835 q 224 851 203 851 l 446 851 m 651 425 q 631 376 651 397 q 582 356 610 356 q 532 376 553 356 q 512 425 512 397 q 532 475 512 454 q 582 495 553 495 q 631 475 610 495 q 651 425 651 454 z "},"Ń":{"ha":833,"x_min":31,"x_max":782,"o":"m 696 0 l 623 0 l 203 710 l 203 57 l 308 57 q 338 49 329 57 q 347 28 347 41 q 338 8 347 16 q 308 0 329 0 l 98 0 q 68 8 77 0 q 60 28 60 16 q 68 49 60 41 q 98 57 77 57 l 146 57 l 146 736 l 69 736 q 40 744 49 736 q 31 765 31 752 q 40 786 31 778 q 69 793 49 793 l 218 793 l 639 82 l 639 736 l 534 736 q 505 744 513 736 q 496 765 496 752 q 504 786 496 778 q 534 793 513 793 l 744 793 q 773 786 764 793 q 782 765 782 778 q 773 744 782 752 q 744 736 764 736 l 696 736 l 696 0 m 538 1023 l 378 885 q 352 871 363 871 q 332 880 340 871 q 323 901 323 888 q 327 913 323 907 q 340 928 330 918 l 500 1067 q 527 1080 516 1080 q 547 1072 538 1080 q 555 1051 555 1063 q 552 1039 555 1044 q 538 1023 549 1033 z "},"ń":{"ha":833,"x_min":73,"x_max":753,"o":"m 233 587 l 233 501 q 340 585 292 562 q 449 608 389 608 q 568 580 514 608 q 636 512 606 559 q 667 416 667 465 l 667 57 l 715 57 q 745 49 736 57 q 753 28 753 41 q 745 8 753 16 q 715 0 736 0 l 563 0 q 533 8 542 0 q 524 28 524 16 q 533 49 524 41 q 563 57 542 57 l 610 57 l 610 406 q 566 508 610 467 q 448 550 522 550 q 351 527 392 550 q 233 414 309 505 l 233 57 l 297 57 q 326 49 317 57 q 335 28 335 41 q 326 8 335 16 q 297 0 317 0 l 111 0 q 82 8 91 0 q 73 28 73 16 q 82 49 73 41 q 111 57 91 57 l 176 57 l 176 530 l 127 530 q 98 538 107 530 q 90 559 90 546 q 98 579 90 571 q 127 587 107 587 l 233 587 m 545 844 l 385 706 q 359 692 370 692 q 339 701 347 692 q 330 722 330 709 q 333 734 330 728 q 347 749 336 739 l 507 888 q 534 901 523 901 q 554 893 545 901 q 562 872 562 884 q 559 860 562 865 q 545 844 556 854 z "},"Ň":{"ha":833,"x_min":31,"x_max":782,"o":"m 696 0 l 623 0 l 203 710 l 203 57 l 308 57 q 338 49 329 57 q 347 28 347 41 q 338 8 347 16 q 308 0 329 0 l 98 0 q 68 8 77 0 q 60 28 60 16 q 68 49 60 41 q 98 57 77 57 l 146 57 l 146 736 l 69 736 q 40 744 49 736 q 31 765 31 752 q 40 786 31 778 q 69 793 49 793 l 218 793 l 639 82 l 639 736 l 534 736 q 505 744 513 736 q 496 765 496 752 q 504 786 496 778 q 534 793 513 793 l 744 793 q 773 786 764 793 q 782 765 782 778 q 773 744 782 752 q 744 736 764 736 l 696 736 l 696 0 m 423 863 l 239 1002 q 224 1018 227 1012 q 220 1031 220 1023 q 229 1052 220 1043 q 250 1060 237 1060 q 273 1048 258 1060 l 423 933 l 572 1048 q 597 1059 587 1059 q 617 1051 608 1059 q 625 1031 625 1042 q 606 1002 625 1017 l 423 863 z "},"ň":{"ha":833,"x_min":73,"x_max":753,"o":"m 233 587 l 233 501 q 340 585 292 562 q 449 608 389 608 q 568 580 514 608 q 636 512 606 559 q 667 416 667 465 l 667 57 l 715 57 q 745 49 736 57 q 753 28 753 41 q 745 8 753 16 q 715 0 736 0 l 563 0 q 533 8 542 0 q 524 28 524 16 q 533 49 524 41 q 563 57 542 57 l 610 57 l 610 406 q 566 508 610 467 q 448 550 522 550 q 351 527 392 550 q 233 414 309 505 l 233 57 l 297 57 q 326 49 317 57 q 335 28 335 41 q 326 8 335 16 q 297 0 317 0 l 111 0 q 82 8 91 0 q 73 28 73 16 q 82 49 73 41 q 111 57 91 57 l 176 57 l 176 530 l 127 530 q 98 538 107 530 q 90 559 90 546 q 98 579 90 571 q 127 587 107 587 l 233 587 m 430 684 l 246 823 q 231 839 234 833 q 227 852 227 844 q 236 872 227 864 q 256 881 244 881 q 280 869 265 881 l 430 754 l 579 869 q 604 880 594 880 q 624 872 615 880 q 632 852 632 863 q 613 823 632 838 l 430 684 z "},"Ő":{"ha":833,"x_min":71,"x_max":765,"o":"m 765 395 q 719 183 765 281 q 592 32 673 86 q 418 -22 511 -22 q 175 95 280 -22 q 71 395 71 212 q 175 695 71 578 q 418 812 280 812 q 591 758 511 812 q 719 606 672 703 q 765 395 765 509 m 707 395 q 627 644 707 534 q 418 755 546 755 q 213 649 298 755 q 127 395 127 544 q 217 135 127 236 q 418 35 306 35 q 627 145 546 35 q 707 395 707 255 m 401 1025 l 270 886 q 242 871 254 871 q 222 879 231 871 q 214 900 214 887 q 228 926 214 911 l 359 1064 q 387 1080 374 1080 q 407 1071 399 1080 q 415 1050 415 1063 q 401 1025 415 1040 m 606 1025 l 475 886 q 448 871 460 871 q 428 879 436 871 q 419 900 419 887 q 433 926 419 911 l 565 1064 q 592 1080 580 1080 q 612 1071 604 1080 q 621 1050 621 1063 q 606 1025 621 1040 z "},"ő":{"ha":833,"x_min":98,"x_max":735,"o":"m 735 292 q 642 70 735 162 q 417 -22 549 -22 q 191 70 284 -22 q 98 292 98 163 q 191 515 98 422 q 417 608 284 608 q 642 515 549 608 q 735 292 735 423 m 677 292 q 601 475 677 399 q 416 550 525 550 q 232 474 308 550 q 155 292 155 399 q 232 111 155 186 q 416 35 308 35 q 601 110 525 35 q 677 292 677 186 m 474 846 l 343 707 q 315 692 328 692 q 295 700 304 692 q 287 721 287 708 q 301 747 287 732 l 432 885 q 460 901 448 901 q 480 892 472 901 q 488 871 488 884 q 474 846 488 861 m 680 846 l 549 707 q 521 692 534 692 q 501 700 509 692 q 492 721 492 708 q 507 747 492 732 l 638 885 q 665 901 653 901 q 686 892 677 901 q 694 871 694 884 q 680 846 694 861 z "},"Ŕ":{"ha":833,"x_min":60,"x_max":823,"o":"m 231 354 l 231 57 l 336 57 q 366 49 357 57 q 375 28 375 41 q 366 8 375 16 q 336 0 357 0 l 98 0 q 68 8 77 0 q 60 28 60 16 q 68 49 60 41 q 98 57 77 57 l 174 57 l 174 736 l 98 736 q 68 744 77 736 q 60 765 60 752 q 68 786 60 778 q 98 793 77 793 l 442 793 q 622 726 549 793 q 694 574 694 659 q 649 459 694 513 q 498 369 604 405 q 603 274 559 327 q 742 57 646 221 l 785 57 q 814 49 806 57 q 823 28 823 41 q 814 8 823 16 q 785 0 806 0 l 709 0 q 546 254 604 189 q 412 354 488 318 l 231 354 m 231 411 l 387 411 q 522 438 461 411 q 610 502 583 465 q 637 576 637 538 q 580 685 637 633 q 441 736 523 736 l 231 736 l 231 411 m 541 1023 l 380 885 q 355 871 366 871 q 335 880 343 871 q 326 901 326 888 q 329 913 326 907 q 343 928 332 918 l 503 1067 q 530 1080 519 1080 q 550 1072 541 1080 q 558 1051 558 1063 q 555 1039 558 1044 q 541 1023 552 1033 z "},"ŕ":{"ha":833,"x_min":116,"x_max":755,"o":"m 349 587 l 349 444 q 515 573 460 544 q 617 602 570 602 q 712 567 668 602 q 755 515 755 533 q 747 494 755 503 q 726 486 739 486 q 714 488 719 486 q 696 503 709 490 q 655 536 673 527 q 621 545 637 545 q 531 515 583 545 q 349 369 478 485 l 349 57 l 601 57 q 631 49 622 57 q 640 28 640 41 q 631 8 640 16 q 601 0 622 0 l 154 0 q 125 8 134 0 q 116 28 116 16 q 124 47 116 39 q 154 55 133 55 l 292 55 l 292 530 l 186 530 q 157 538 166 530 q 149 559 149 546 q 157 579 149 571 q 186 587 165 587 l 349 587 m 536 844 l 375 706 q 349 692 360 692 q 329 701 338 692 q 321 722 321 709 q 324 734 321 728 q 338 749 327 739 l 498 888 q 524 901 513 901 q 544 893 536 901 q 553 872 553 884 q 550 860 553 865 q 536 844 547 854 z "},"Ř":{"ha":833,"x_min":60,"x_max":823,"o":"m 231 354 l 231 57 l 336 57 q 366 49 357 57 q 375 28 375 41 q 366 8 375 16 q 336 0 357 0 l 98 0 q 68 8 77 0 q 60 28 60 16 q 68 49 60 41 q 98 57 77 57 l 174 57 l 174 736 l 98 736 q 68 744 77 736 q 60 765 60 752 q 68 786 60 778 q 98 793 77 793 l 442 793 q 622 726 549 793 q 694 574 694 659 q 649 459 694 513 q 498 369 604 405 q 603 274 559 327 q 742 57 646 221 l 785 57 q 814 49 806 57 q 823 28 823 41 q 814 8 823 16 q 785 0 806 0 l 709 0 q 546 254 604 189 q 412 354 488 318 l 231 354 m 231 411 l 387 411 q 522 438 461 411 q 610 502 583 465 q 637 576 637 538 q 580 685 637 633 q 441 736 523 736 l 231 736 l 231 411 m 401 863 l 217 1002 q 201 1018 205 1012 q 198 1031 198 1023 q 207 1052 198 1043 q 227 1060 215 1060 q 251 1048 236 1060 l 401 933 l 550 1048 q 574 1059 565 1059 q 594 1051 586 1059 q 603 1031 603 1042 q 584 1002 603 1017 l 401 863 z "},"ř":{"ha":833,"x_min":116,"x_max":755,"o":"m 349 587 l 349 444 q 515 573 460 544 q 617 602 570 602 q 712 567 668 602 q 755 515 755 533 q 747 494 755 503 q 726 486 739 486 q 714 488 719 486 q 696 503 709 490 q 655 536 673 527 q 621 545 637 545 q 531 515 583 545 q 349 369 478 485 l 349 57 l 601 57 q 631 49 622 57 q 640 28 640 41 q 631 8 640 16 q 601 0 622 0 l 154 0 q 125 8 134 0 q 116 28 116 16 q 124 47 116 39 q 154 55 133 55 l 292 55 l 292 530 l 186 530 q 157 538 166 530 q 149 559 149 546 q 157 579 149 571 q 186 587 165 587 l 349 587 m 437 684 l 253 823 q 237 839 241 833 q 234 852 234 844 q 242 872 234 864 q 263 881 251 881 q 287 869 272 881 l 437 754 l 586 869 q 610 880 601 880 q 630 872 622 880 q 639 852 639 863 q 620 823 639 838 l 437 684 z "},"Ś":{"ha":833,"x_min":125,"x_max":708,"o":"m 621 736 l 621 755 q 628 785 621 776 q 649 793 636 793 q 670 785 662 793 q 677 755 677 776 l 677 610 q 670 581 677 590 q 649 572 662 572 q 629 581 637 572 q 621 607 621 589 q 562 709 617 664 q 417 755 507 755 q 267 706 323 755 q 212 592 212 658 q 227 530 212 558 q 269 485 243 503 q 327 457 294 468 q 429 435 359 447 q 589 397 545 416 q 678 323 648 370 q 708 213 708 277 q 630 46 708 115 q 420 -22 552 -22 q 182 71 271 -22 l 182 38 q 175 9 182 18 q 154 0 167 0 q 134 9 142 0 q 125 38 125 18 l 125 195 q 133 225 125 216 q 154 234 141 234 q 174 226 166 234 q 182 199 182 218 q 249 86 186 137 q 420 35 313 35 q 589 88 527 35 q 651 215 651 142 q 627 295 651 260 q 557 350 604 330 q 421 382 524 364 q 217 454 279 406 q 155 593 155 503 q 226 747 155 683 q 415 812 298 812 q 621 736 534 812 m 565 1023 l 404 885 q 378 871 389 871 q 358 880 367 871 q 350 901 350 888 q 353 913 350 907 q 367 928 356 918 l 527 1067 q 553 1080 543 1080 q 573 1072 565 1080 q 582 1051 582 1063 q 579 1039 582 1044 q 565 1023 576 1033 z "},"ś":{"ha":833,"x_min":140,"x_max":693,"o":"m 605 550 q 613 578 605 570 q 633 587 621 587 q 654 578 646 587 q 663 549 663 570 l 663 451 q 654 422 663 431 q 633 413 646 413 q 614 420 622 413 q 605 445 606 428 q 563 512 601 486 q 416 550 507 550 q 267 511 320 550 q 227 446 227 482 q 275 378 227 406 q 398 349 307 359 q 563 320 517 336 q 661 254 629 296 q 693 163 693 212 q 623 34 693 91 q 418 -22 553 -22 q 197 46 283 -22 q 195 16 197 23 q 185 5 192 9 q 169 0 178 0 q 149 9 157 0 q 140 38 140 18 l 140 155 q 148 184 140 176 q 169 193 156 193 q 190 185 181 193 q 198 162 198 176 q 214 110 198 131 q 289 56 237 77 q 416 35 341 35 q 582 76 528 35 q 636 163 636 117 q 581 248 636 216 q 419 291 526 280 q 267 319 313 302 q 195 372 221 337 q 170 448 170 408 q 241 565 170 522 q 413 608 313 608 q 605 550 531 608 m 557 844 l 396 706 q 370 692 381 692 q 350 701 359 692 q 342 722 342 709 q 345 734 342 728 q 359 749 348 739 l 519 888 q 545 901 534 901 q 565 893 557 901 q 574 872 574 884 q 571 860 574 865 q 557 844 568 854 z "},"Ţ":{"ha":833,"x_min":97,"x_max":735,"o":"m 445 736 l 445 57 l 593 57 q 622 49 613 57 q 631 28 631 41 q 622 8 631 16 q 593 0 613 0 l 239 0 q 210 8 219 0 q 201 28 201 16 q 210 49 201 41 q 239 57 219 57 l 387 57 l 387 736 l 154 736 l 154 539 q 146 509 154 518 q 125 500 138 500 q 105 509 113 500 q 97 539 97 518 l 97 793 l 735 793 l 735 539 q 727 509 735 518 q 707 500 720 500 q 686 509 694 500 q 678 539 678 518 l 678 736 l 445 736 m 397 -104 l 397 0 q 403 21 397 15 q 418 27 409 27 q 433 21 427 27 q 438 0 438 14 l 438 -65 q 497 -91 476 -71 q 518 -140 518 -112 q 493 -196 518 -173 q 420 -219 467 -219 q 352 -207 389 -219 q 307 -184 315 -194 q 300 -168 300 -176 q 306 -154 300 -159 q 320 -148 311 -148 q 336 -153 327 -148 q 420 -178 382 -178 q 462 -166 447 -178 q 477 -138 477 -153 q 465 -116 477 -125 q 425 -104 450 -104 l 397 -104 z "},"ţ":{"ha":833,"x_min":99,"x_max":734,"o":"m 300 587 l 609 587 q 638 579 629 587 q 647 558 647 571 q 638 538 647 546 q 609 530 629 530 l 300 530 l 300 151 q 339 68 300 101 q 456 35 379 35 q 581 52 513 35 q 685 91 648 69 q 707 100 699 100 q 726 91 718 100 q 734 71 734 83 q 726 52 734 61 q 620 4 704 30 q 460 -22 536 -22 q 301 24 360 -22 q 242 151 242 71 l 242 530 l 137 530 q 108 538 117 530 q 99 559 99 546 q 108 579 99 571 q 137 587 117 587 l 242 587 l 242 755 q 250 785 242 776 q 271 793 258 793 q 292 785 283 793 q 300 755 300 776 l 300 587 m 438 -111 l 438 -7 q 444 14 438 8 q 458 20 450 20 q 473 14 468 20 q 479 -7 479 7 l 479 -72 q 538 -98 517 -77 q 559 -146 559 -119 q 533 -203 559 -180 q 461 -226 508 -226 q 393 -213 429 -226 q 347 -191 356 -201 q 340 -175 340 -183 q 346 -160 340 -166 q 361 -155 352 -155 q 376 -159 368 -155 q 461 -185 422 -185 q 503 -173 488 -185 q 517 -145 517 -160 q 506 -123 517 -132 q 466 -111 490 -111 l 438 -111 z "},"Ť":{"ha":833,"x_min":97,"x_max":735,"o":"m 445 736 l 445 57 l 593 57 q 622 49 613 57 q 631 28 631 41 q 622 8 631 16 q 593 0 613 0 l 239 0 q 210 8 219 0 q 201 28 201 16 q 210 49 201 41 q 239 57 219 57 l 387 57 l 387 736 l 154 736 l 154 539 q 146 509 154 518 q 125 500 138 500 q 105 509 113 500 q 97 539 97 518 l 97 793 l 735 793 l 735 539 q 727 509 735 518 q 707 500 720 500 q 686 509 694 500 q 678 539 678 518 l 678 736 l 445 736 m 418 863 l 234 1002 q 218 1018 222 1012 q 215 1031 215 1023 q 223 1052 215 1043 q 244 1060 232 1060 q 268 1048 253 1060 l 418 933 l 567 1048 q 591 1059 582 1059 q 611 1051 603 1059 q 620 1031 620 1042 q 601 1002 620 1017 l 418 863 z "},"ť":{"ha":833,"x_min":99,"x_max":734,"o":"m 732 800 q 689 694 732 749 q 625 639 646 639 q 600 658 600 639 q 622 688 600 668 q 671 749 664 727 l 654 749 q 597 799 597 749 q 612 836 597 821 q 654 851 628 851 l 675 851 q 732 800 726 851 m 300 587 l 609 587 q 647 558 647 587 q 609 530 647 530 l 300 530 l 300 151 q 345 63 300 92 q 452 35 390 35 q 579 52 512 35 q 685 91 647 68 q 707 100 699 100 q 734 71 734 100 q 643 11 734 44 q 460 -22 552 -22 q 301 24 360 -22 q 242 151 242 71 l 242 530 l 137 530 q 99 558 99 530 q 137 587 99 587 l 242 587 l 242 755 q 271 793 242 793 q 300 755 300 793 l 300 587 z "},"Ů":{"ha":833,"x_min":56,"x_max":779,"o":"m 692 736 l 692 260 q 612 59 692 140 q 419 -22 532 -22 q 284 11 343 -22 q 184 112 225 44 q 142 260 142 179 l 142 736 l 94 736 q 65 744 74 736 q 56 765 56 752 q 66 787 56 778 q 94 793 74 793 l 304 793 q 334 786 325 793 q 342 765 342 778 q 334 744 342 752 q 304 736 325 736 l 199 736 l 199 260 q 264 100 199 166 q 416 35 328 35 q 519 60 473 35 q 601 140 566 86 q 635 260 635 193 l 635 736 l 530 736 q 501 744 510 736 q 492 765 492 752 q 501 786 492 778 q 530 793 510 793 l 741 793 q 770 786 761 793 q 779 765 779 778 q 770 744 779 752 q 741 736 761 736 l 692 736 m 541 983 q 505 898 541 934 q 418 863 469 863 q 331 898 367 863 q 295 983 295 934 q 331 1068 295 1033 q 418 1104 367 1104 q 505 1068 469 1104 q 541 983 541 1033 m 500 983 q 476 1040 500 1017 q 418 1063 452 1063 q 359 1040 383 1063 q 336 983 336 1016 q 360 927 336 951 q 418 903 384 903 q 476 927 452 903 q 500 983 500 950 z "},"ů":{"ha":833,"x_min":62,"x_max":755,"o":"m 612 0 l 612 83 q 359 -22 495 -22 q 233 23 276 -22 q 176 162 176 83 l 176 530 l 100 530 q 71 538 79 530 q 62 559 62 546 q 71 579 62 571 q 100 587 79 587 l 233 587 l 233 162 q 269 71 233 106 q 357 35 304 35 q 612 162 496 35 l 612 530 l 507 530 q 477 538 486 530 q 469 559 469 546 q 477 579 469 571 q 507 587 486 587 l 669 587 l 669 57 l 717 57 q 746 49 737 57 q 755 28 755 41 q 746 8 755 16 q 717 0 737 0 l 612 0 m 531 804 q 495 719 531 755 q 408 684 459 684 q 321 719 357 684 q 286 804 286 755 q 321 889 286 854 q 408 925 357 925 q 495 889 459 925 q 531 804 531 854 m 490 804 q 466 861 490 838 q 408 884 442 884 q 350 861 374 884 q 326 804 326 837 q 350 748 326 772 q 408 724 374 724 q 466 748 442 724 q 490 804 490 771 z "},"Ű":{"ha":833,"x_min":56,"x_max":779,"o":"m 692 736 l 692 260 q 612 59 692 140 q 419 -22 532 -22 q 284 11 343 -22 q 184 112 225 44 q 142 260 142 179 l 142 736 l 94 736 q 65 744 74 736 q 56 765 56 752 q 66 787 56 778 q 94 793 74 793 l 304 793 q 334 786 325 793 q 342 765 342 778 q 334 744 342 752 q 304 736 325 736 l 199 736 l 199 260 q 264 100 199 166 q 416 35 328 35 q 519 60 473 35 q 601 140 566 86 q 635 260 635 193 l 635 736 l 530 736 q 501 744 510 736 q 492 765 492 752 q 501 786 492 778 q 530 793 510 793 l 741 793 q 770 786 761 793 q 779 765 779 778 q 770 744 779 752 q 741 736 761 736 l 692 736 m 467 1025 l 336 886 q 308 871 320 871 q 288 879 296 871 q 279 900 279 887 q 294 926 279 911 l 425 1064 q 452 1080 440 1080 q 473 1071 465 1080 q 481 1050 481 1063 q 467 1025 481 1040 m 672 1025 l 541 886 q 513 871 526 871 q 493 879 502 871 q 485 900 485 887 q 499 926 485 911 l 631 1064 q 658 1080 646 1080 q 678 1071 670 1080 q 686 1050 686 1063 q 672 1025 686 1040 z "},"ű":{"ha":833,"x_min":62,"x_max":755,"o":"m 612 0 l 612 83 q 359 -22 495 -22 q 233 23 276 -22 q 176 162 176 83 l 176 530 l 100 530 q 71 538 79 530 q 62 559 62 546 q 71 579 62 571 q 100 587 79 587 l 233 587 l 233 162 q 269 71 233 106 q 357 35 304 35 q 612 162 496 35 l 612 530 l 507 530 q 477 538 486 530 q 469 559 469 546 q 477 579 469 571 q 507 587 486 587 l 669 587 l 669 57 l 717 57 q 746 49 737 57 q 755 28 755 41 q 746 8 755 16 q 717 0 737 0 l 612 0 m 450 846 l 319 707 q 291 692 303 692 q 271 700 279 692 q 262 721 262 708 q 277 747 262 732 l 408 885 q 435 901 423 901 q 456 892 448 901 q 464 871 464 884 q 450 846 464 861 m 655 846 l 524 707 q 496 692 509 692 q 476 700 485 692 q 468 721 468 708 q 482 747 468 732 l 614 885 q 641 901 629 901 q 661 892 653 901 q 669 871 669 884 q 655 846 669 861 z "},"Ź":{"ha":833,"x_min":144,"x_max":693,"o":"m 693 0 l 144 0 l 144 83 l 607 732 l 607 736 l 228 736 l 228 569 q 220 539 228 548 q 199 530 212 530 q 178 539 186 530 q 170 569 170 548 l 170 793 l 662 793 l 662 713 l 199 63 l 199 57 l 636 57 l 636 256 q 644 286 636 277 q 665 294 652 294 q 685 286 677 294 q 693 256 693 277 l 693 0 m 567 1023 l 406 885 q 380 871 391 871 q 360 880 369 871 q 352 901 352 888 q 355 913 352 907 q 369 928 358 918 l 529 1067 q 555 1080 545 1080 q 575 1072 567 1080 q 584 1051 584 1063 q 581 1039 584 1044 q 567 1023 578 1033 z "},"ź":{"ha":833,"x_min":161,"x_max":682,"o":"m 666 587 l 666 536 l 239 57 l 625 57 l 625 136 q 632 165 625 156 q 653 174 640 174 q 674 165 666 174 q 682 136 682 156 l 682 0 l 161 0 l 161 51 l 585 530 l 231 530 l 231 452 q 223 423 231 432 q 203 414 215 414 q 182 423 190 414 q 174 452 174 432 l 174 587 l 666 587 m 570 844 l 409 706 q 383 692 394 692 q 363 701 372 692 q 355 722 355 709 q 358 734 355 728 q 372 749 361 739 l 532 888 q 558 901 547 901 q 578 893 570 901 q 587 872 587 884 q 584 860 587 865 q 570 844 581 854 z "},"Ż":{"ha":833,"x_min":144,"x_max":693,"o":"m 693 0 l 144 0 l 144 83 l 607 732 l 607 736 l 228 736 l 228 569 q 220 539 228 548 q 199 530 212 530 q 178 539 186 530 q 170 569 170 548 l 170 793 l 662 793 l 662 713 l 199 63 l 199 57 l 636 57 l 636 256 q 644 286 636 277 q 665 294 652 294 q 685 286 677 294 q 693 256 693 277 l 693 0 m 488 957 q 468 908 488 928 q 419 888 448 888 q 370 908 390 888 q 349 957 349 928 q 370 1006 349 986 q 419 1027 390 1027 q 468 1006 448 1027 q 488 957 488 986 z "},"ż":{"ha":833,"x_min":161,"x_max":682,"o":"m 666 587 l 666 536 l 239 57 l 625 57 l 625 136 q 632 165 625 156 q 653 174 640 174 q 674 165 666 174 q 682 136 682 156 l 682 0 l 161 0 l 161 51 l 585 530 l 231 530 l 231 452 q 223 423 231 432 q 203 414 215 414 q 182 423 190 414 q 174 452 174 432 l 174 587 l 666 587 m 492 778 q 472 729 492 749 q 423 709 452 709 q 374 729 394 709 q 353 778 353 749 q 374 827 353 807 q 423 848 394 848 q 472 827 452 848 q 492 778 492 807 z "},"Γ":{"ha":833,"x_min":86,"x_max":753,"o":"m 317 57 l 453 57 q 491 28 491 57 q 453 0 491 0 l 124 0 q 86 28 86 0 q 124 57 86 57 l 260 57 l 260 736 l 124 736 q 86 765 86 736 q 124 793 86 793 l 753 793 l 753 510 q 725 472 753 472 q 696 510 696 472 l 696 736 l 317 736 l 317 57 z "},"Θ":{"ha":833,"x_min":70,"x_max":764,"o":"m 764 395 q 664 99 764 221 q 417 -22 563 -22 q 171 99 272 -22 q 70 395 70 220 q 170 690 70 568 q 417 812 271 812 q 601 750 520 812 q 723 594 682 688 q 764 395 764 501 m 707 395 q 624 647 707 539 q 417 755 541 755 q 212 649 298 755 q 127 395 127 543 q 211 141 127 248 q 417 35 296 35 q 624 143 541 35 q 707 395 707 251 m 287 423 l 547 423 l 547 482 q 576 520 547 520 q 605 482 605 520 l 605 307 q 576 269 605 269 q 547 307 547 269 l 547 366 l 287 366 l 287 307 q 258 269 287 269 q 229 307 229 269 l 229 482 q 258 520 229 520 q 287 482 287 520 l 287 423 z "},"Φ":{"ha":833,"x_min":61,"x_max":772,"o":"m 445 736 l 445 667 q 689 590 606 665 q 772 397 772 515 q 689 203 772 279 q 445 127 606 128 l 445 57 l 528 57 q 566 28 566 57 q 528 0 566 0 l 305 0 q 267 28 267 0 q 305 57 267 57 l 388 57 l 388 127 q 144 204 227 128 q 61 397 61 279 q 101 540 61 478 q 213 634 141 602 q 388 667 284 666 l 388 736 l 305 736 q 267 765 267 736 q 305 793 267 793 l 528 793 q 566 765 566 793 q 528 736 566 736 l 445 736 m 388 609 q 185 552 252 606 q 118 397 118 498 q 388 184 118 191 l 388 609 m 445 609 l 445 184 q 652 245 589 185 q 714 397 714 305 q 445 609 714 603 z "},"α":{"ha":833,"x_min":66,"x_max":771,"o":"m 679 57 l 732 57 q 770 28 770 57 q 732 0 770 0 l 631 0 l 596 182 q 454 19 517 61 q 322 -22 392 -22 q 143 66 219 -22 q 66 295 66 155 q 141 517 66 427 q 330 608 215 608 q 498 539 421 608 q 615 338 576 470 q 711 571 685 475 q 743 608 720 608 q 771 581 771 608 q 639 251 771 513 q 679 57 675 83 m 575 261 q 485 464 554 378 q 326 550 416 550 q 182 479 241 550 q 123 295 123 408 q 184 106 123 178 q 325 35 245 35 q 575 261 454 35 z "},"δ":{"ha":833,"x_min":123,"x_max":713,"o":"m 244 793 l 517 587 q 670 441 626 505 q 713 281 713 377 q 626 67 713 156 q 417 -22 538 -22 q 275 16 342 -22 q 165 122 207 54 q 123 276 123 190 q 200 478 123 385 q 444 571 277 571 l 262 704 q 193 767 225 731 l 193 851 l 610 851 q 648 822 648 851 q 610 793 648 793 l 244 793 m 418 513 q 247 445 313 513 q 180 276 180 377 q 248 105 180 175 q 417 35 316 35 q 587 105 518 35 q 656 280 656 176 q 590 448 656 382 q 418 513 524 513 z "},"ε":{"ha":833,"x_min":192,"x_max":663,"o":"m 354 309 q 254 366 290 325 q 218 457 218 407 q 270 562 218 516 q 427 608 323 608 q 599 556 525 608 l 606 584 q 634 608 612 608 q 663 576 663 608 q 661 543 663 566 q 658 498 658 517 q 660 451 658 469 q 662 428 662 431 q 636 408 662 408 q 607 434 615 408 q 573 503 592 481 q 514 537 555 524 q 421 550 474 550 q 310 524 346 550 q 275 457 275 497 q 490 336 275 347 l 490 279 q 315 244 380 279 q 249 153 249 209 q 294 71 249 106 q 431 35 340 35 q 589 67 508 35 q 608 73 602 73 q 627 63 618 73 q 635 43 635 54 q 573 -1 635 21 q 427 -22 511 -22 q 256 24 319 -22 q 192 147 192 71 q 234 252 192 208 q 354 309 276 296 z "},"σ":{"ha":833,"x_min":103,"x_max":814,"o":"m 580 550 q 691 437 652 510 q 730 284 730 363 q 639 71 730 163 q 418 -22 548 -22 q 195 73 286 -22 q 103 294 103 168 q 162 475 103 395 q 304 582 222 556 q 522 608 387 608 l 776 608 q 814 579 814 608 q 776 550 814 550 l 580 550 m 418 550 q 308 522 376 550 q 200 428 239 494 q 160 290 160 362 q 235 110 160 185 q 418 35 309 35 q 597 110 522 35 q 673 292 673 186 q 596 477 673 404 q 418 550 519 550 z "},"τ":{"ha":833,"x_min":141,"x_max":631,"o":"m 419 530 l 419 91 q 473 35 419 35 q 546 52 506 35 q 574 62 567 62 q 600 33 600 62 q 556 -8 600 6 q 466 -22 511 -22 q 361 77 361 -22 l 361 530 l 269 530 q 193 525 247 530 q 174 524 181 524 q 141 552 141 524 q 164 580 141 573 q 256 587 187 587 l 593 587 q 631 558 631 587 q 593 530 631 530 l 419 530 z "},"φ":{"ha":833,"x_min":83,"x_max":754,"o":"m 350 -18 q 154 90 224 3 q 83 311 83 177 q 114 457 83 393 q 195 564 144 521 q 274 608 247 608 q 298 577 298 608 q 262 543 298 562 q 173 451 206 513 q 140 308 140 389 q 350 40 140 97 l 350 343 q 364 497 350 450 q 416 576 378 545 q 509 608 454 608 q 682 516 610 608 q 754 299 754 425 q 661 65 754 153 q 442 -22 568 -22 q 407 -22 429 -22 l 407 -214 q 378 -262 407 -262 q 350 -214 350 -262 l 350 -18 m 407 35 q 622 110 548 35 q 696 298 696 186 q 640 477 696 405 q 511 550 583 550 q 431 507 454 550 q 407 344 407 463 l 407 35 z "},"‗":{"ha":833,"x_min":-18,"x_max":852,"o":"m 814 -258 l 20 -258 q -9 -250 -1 -258 q -18 -229 -18 -242 q -9 -209 -18 -216 q 20 -201 -1 -201 l 814 -201 q 843 -209 835 -201 q 852 -229 852 -216 q 843 -250 852 -242 q 814 -258 835 -258 m 814 -380 l 20 -380 q -9 -373 -1 -380 q -18 -352 -18 -365 q -9 -331 -18 -339 q 20 -323 -1 -323 l 814 -323 q 843 -331 835 -323 q 852 -352 852 -339 q 843 -373 852 -365 q 814 -380 835 -380 z "},"‼":{"ha":833,"x_min":186,"x_max":648,"o":"m 324 793 l 298 334 q 289 303 297 312 q 270 294 281 294 q 250 303 258 294 q 241 334 242 312 l 216 793 q 214 817 214 810 q 230 856 214 840 q 270 871 246 871 q 309 856 294 871 q 325 817 325 840 q 324 793 325 810 m 256 121 l 283 121 q 333 100 312 121 q 353 50 353 79 q 332 0 353 20 q 283 -20 311 -20 l 256 -20 q 207 0 227 -20 q 186 50 186 21 q 207 100 186 80 q 256 121 228 121 m 619 793 l 593 334 q 584 303 592 312 q 565 294 576 294 q 545 303 553 294 q 536 334 537 312 l 511 793 q 509 817 509 810 q 525 856 509 840 q 565 871 541 871 q 604 856 589 871 q 620 817 620 840 q 619 793 620 810 m 551 121 l 578 121 q 628 100 607 121 q 648 50 648 79 q 627 0 648 20 q 578 -20 606 -20 l 551 -20 q 502 0 522 -20 q 481 50 481 21 q 502 100 481 80 q 551 121 523 121 z "},"ⁿ":{"ha":833,"x_min":192,"x_max":623,"o":"m 304 712 l 304 659 q 373 711 342 696 q 445 726 405 726 q 519 707 487 726 q 565 659 551 688 q 578 558 578 630 l 578 393 q 607 391 600 394 q 618 382 614 388 q 623 367 623 376 q 618 352 623 359 q 607 343 614 346 q 578 340 600 340 l 525 340 q 497 343 504 340 q 485 352 490 346 q 481 367 481 359 q 485 382 481 376 q 497 391 490 388 q 525 393 505 394 l 525 562 q 517 632 525 614 q 490 661 510 649 q 443 673 471 673 q 379 655 411 673 q 304 585 347 638 l 304 393 l 324 393 q 354 386 345 393 q 362 368 362 379 q 354 348 362 355 q 324 340 345 340 l 230 340 q 200 348 209 340 q 192 368 192 355 q 200 386 192 379 q 230 393 209 393 l 250 393 l 250 659 l 230 659 q 200 666 209 659 q 192 686 192 673 q 200 705 192 698 q 230 712 209 712 l 304 712 z "},"₧":{"ha":833,"x_min":9,"x_max":823,"o":"m 156 435 l 156 57 l 217 57 q 246 49 237 57 q 255 28 255 41 q 246 8 255 16 q 217 0 237 0 l 47 0 q 18 8 27 0 q 9 28 9 16 q 14 44 9 37 q 25 54 18 51 q 47 57 31 57 l 99 58 l 99 736 l 47 736 q 18 744 27 736 q 9 765 9 752 q 18 786 9 778 q 47 793 27 793 l 315 793 q 508 771 451 793 q 593 707 564 749 q 623 614 623 665 q 595 522 623 564 q 517 457 567 479 q 363 435 467 435 l 156 435 m 156 492 l 339 492 q 483 507 444 492 q 544 551 523 521 q 566 615 566 582 q 545 677 566 649 q 479 721 524 705 q 321 736 435 736 l 156 736 l 156 492 m 332 302 l 488 302 q 517 294 508 302 q 526 273 526 286 q 517 253 526 260 q 488 245 508 245 l 332 245 l 332 142 q 337 78 332 92 q 355 56 342 64 q 387 47 368 47 q 474 67 419 47 q 490 71 484 71 q 505 63 498 71 q 513 41 513 54 q 480 8 513 21 q 382 -9 435 -9 q 324 5 349 -9 q 287 42 300 19 q 275 108 275 65 l 275 245 l 253 245 q 223 253 232 245 q 214 273 214 260 q 220 290 214 283 q 232 300 226 298 q 275 302 239 302 l 275 359 q 283 389 275 380 q 304 397 291 397 q 324 389 316 397 q 332 359 332 380 l 332 302 m 751 294 q 763 314 756 309 q 781 319 770 319 q 798 312 791 319 q 804 288 804 305 q 798 212 804 243 q 789 197 795 202 q 771 191 782 191 q 754 197 762 191 q 745 216 749 201 q 728 239 740 232 q 672 252 705 252 q 620 238 639 252 q 606 216 606 228 q 618 193 606 202 q 690 177 631 184 q 791 155 769 168 q 823 92 823 134 q 790 21 823 50 q 695 -7 758 -7 q 647 -2 670 -7 q 602 14 623 3 q 592 -4 597 1 q 574 -9 585 -9 q 551 3 558 -9 q 536 81 536 26 q 545 111 536 101 q 565 121 553 121 q 582 116 575 121 q 592 99 589 111 q 613 67 598 76 q 696 50 644 50 q 749 62 732 50 q 766 86 766 74 q 756 103 766 96 q 714 114 747 111 q 594 137 619 123 q 548 215 548 164 q 581 281 548 254 q 674 309 614 309 q 708 305 689 309 q 751 294 728 301 z "},"←":{"ha":833,"x_min":1,"x_max":832,"o":"m 183 385 l 216 385 q 178 313 191 333 q 131 250 165 292 l 832 250 l 832 205 l 131 205 q 218 69 176 157 l 184 69 q 86 165 127 132 q 1 218 45 198 l 1 239 q 183 385 81 273 z "},"↑":{"ha":833,"x_min":258,"x_max":574,"o":"m 258 407 q 405 589 371 511 l 425 589 q 479 504 446 545 q 574 407 511 463 l 574 372 q 439 459 486 414 l 439 -189 l 394 -189 l 394 460 q 332 413 353 427 q 258 374 311 399 l 258 407 z "},"→":{"ha":833,"x_min":1,"x_max":832,"o":"m 650 385 q 832 239 752 273 l 832 218 q 747 165 788 198 q 650 69 706 132 l 616 69 q 703 205 657 157 l 1 205 l 1 250 l 703 250 q 656 312 669 291 q 616 385 643 334 l 650 385 z "},"↓":{"ha":833,"x_min":258,"x_max":574,"o":"m 258 -7 l 258 26 q 332 -13 311 1 q 394 -60 353 -26 l 394 589 l 439 589 l 439 -59 q 574 28 486 -14 l 574 -7 q 479 -104 511 -63 q 425 -189 446 -145 l 405 -189 q 258 -7 370 -109 z "},"↔":{"ha":833,"x_min":1,"x_max":832,"o":"m 832 237 l 832 218 q 751 166 791 199 q 653 70 710 134 l 618 70 q 703 206 648 145 l 130 206 q 215 70 185 145 l 180 70 q 82 166 123 134 q 1 218 42 199 l 1 237 q 82 288 43 256 q 180 386 121 319 l 215 386 q 130 249 184 310 l 703 249 q 618 386 649 310 l 653 386 q 751 288 712 319 q 832 237 791 256 z "},"↕":{"ha":833,"x_min":258,"x_max":574,"o":"m 406 643 l 427 643 q 574 465 465 560 l 574 429 q 438 515 500 459 l 438 -59 q 574 26 499 -4 l 574 -9 q 427 -188 465 -104 l 406 -188 q 355 -106 387 -146 q 258 -9 323 -66 l 258 26 q 395 -59 334 -5 l 395 515 q 258 429 333 459 l 258 465 q 355 562 323 522 q 406 643 387 602 z "},"↨":{"ha":833,"x_min":258,"x_max":574,"o":"m 406 643 l 427 643 q 574 465 465 560 l 574 429 q 438 515 500 459 l 438 -59 q 574 26 499 -4 l 574 -9 q 427 -188 465 -104 l 406 -188 q 355 -106 387 -146 q 258 -9 323 -66 l 258 26 q 395 -59 334 -5 l 395 515 q 258 429 333 459 l 258 465 q 355 562 323 522 q 406 643 387 602 m 259 -230 l 574 -230 l 574 -273 l 259 -273 l 259 -230 z "},"∟":{"ha":833,"x_min":1,"x_max":832,"o":"m 1 829 l 66 829 l 66 64 l 832 64 l 832 0 l 1 0 l 1 829 z "},"∩":{"ha":833,"x_min":115,"x_max":719,"o":"m 115 16 l 115 489 q 150 670 115 604 q 253 773 186 735 q 418 812 319 812 q 582 772 513 812 q 685 668 650 732 q 719 489 719 604 l 719 16 q 711 -14 719 -5 q 690 -22 703 -22 q 669 -14 677 -22 q 661 16 661 -5 l 661 463 q 633 634 661 578 q 551 722 605 690 q 416 755 496 755 q 282 722 337 755 q 199 634 227 688 q 172 463 172 579 l 172 16 q 164 -14 172 -5 q 143 -22 156 -22 q 122 -14 130 -22 q 115 16 115 -5 z "},"≡":{"ha":833,"x_min":68,"x_max":766,"o":"m 728 574 l 106 574 q 77 582 86 574 q 68 602 68 590 q 77 623 68 615 q 106 631 86 631 l 728 631 q 757 623 748 631 q 766 602 766 615 q 757 582 766 590 q 728 574 748 574 m 728 369 l 106 369 q 77 377 86 369 q 68 398 68 385 q 77 418 68 410 q 106 427 86 427 l 728 427 q 757 418 748 427 q 766 398 766 410 q 757 377 766 385 q 728 369 748 369 m 728 165 l 106 165 q 77 173 86 165 q 68 193 68 180 q 77 214 68 206 q 106 222 86 222 l 728 222 q 757 214 748 222 q 766 193 766 206 q 757 173 766 180 q 728 165 748 165 z "},"⌂":{"ha":833,"x_min":104,"x_max":730,"o":"m 104 0 l 104 430 l 416 782 l 730 430 l 730 0 l 104 0 m 159 55 l 675 55 l 675 407 l 416 696 l 159 407 l 159 55 z "},"⌐":{"ha":833,"x_min":98,"x_max":817,"o":"m 779 368 l 155 368 l 155 83 q 147 54 155 63 q 126 45 139 45 q 105 54 113 45 q 98 83 98 62 l 98 425 l 779 425 q 808 417 800 425 q 817 397 817 410 q 808 376 817 384 q 779 368 800 368 z "},"⌠":{"ha":833,"x_min":367,"x_max":660,"o":"m 467 -417 l 367 -417 l 367 857 q 423 1074 367 991 q 566 1156 479 1156 q 634 1135 609 1156 q 660 1082 660 1114 q 643 1038 660 1055 q 600 1020 625 1020 q 570 1026 579 1020 q 535 1060 562 1030 q 502 1086 511 1086 q 471 1060 477 1086 q 467 966 467 1037 l 467 -417 z "},"⌡":{"ha":833,"x_min":174,"x_max":467,"o":"m 367 1156 l 467 1156 l 467 -118 q 406 -342 467 -258 q 267 -417 351 -417 q 200 -396 226 -417 q 174 -343 174 -376 q 191 -298 174 -316 q 233 -281 208 -281 q 273 -292 254 -281 q 300 -323 278 -295 q 332 -347 320 -347 q 362 -320 357 -347 q 367 -227 367 -296 l 367 1156 z "},"─":{"ha":833,"x_min":0,"x_max":833,"o":"m 833 305 l 0 305 l 0 405 l 833 405 l 833 305 z "},"│":{"ha":833,"x_min":367,"x_max":467,"o":"m 367 -417 l 367 1156 l 467 1156 l 467 -417 l 367 -417 z "},"┌":{"ha":833,"x_min":367,"x_max":833,"o":"m 833 405 l 833 305 l 467 305 l 467 -417 l 367 -417 l 367 405 l 833 405 z "},"┐":{"ha":833,"x_min":0,"x_max":467,"o":"m 367 305 l 0 305 l 0 405 l 467 405 l 467 -417 l 367 -417 l 367 305 z "},"└":{"ha":833,"x_min":367,"x_max":833,"o":"m 367 305 l 367 1156 l 467 1156 l 467 405 l 833 405 l 833 305 l 367 305 z "},"┘":{"ha":833,"x_min":0,"x_max":467,"o":"m 467 305 l 0 305 l 0 405 l 367 405 l 367 1156 l 467 1156 l 467 305 z "},"├":{"ha":833,"x_min":367,"x_max":833,"o":"m 367 -417 l 367 1156 l 467 1156 l 467 405 l 833 405 l 833 305 l 467 305 l 467 -417 l 367 -417 z "},"┤":{"ha":833,"x_min":0,"x_max":467,"o":"m 367 -417 l 367 305 l 0 305 l 0 405 l 367 405 l 367 1156 l 467 1156 l 467 -417 l 367 -417 z "},"┬":{"ha":833,"x_min":0,"x_max":833,"o":"m 367 305 l 0 305 l 0 405 l 833 405 l 833 305 l 467 305 l 467 -417 l 367 -417 l 367 305 z "},"┴":{"ha":833,"x_min":0,"x_max":833,"o":"m 833 305 l 0 305 l 0 405 l 367 405 l 367 1156 l 467 1156 l 467 405 l 833 405 l 833 305 z "},"┼":{"ha":833,"x_min":0,"x_max":833,"o":"m 367 305 l 0 305 l 0 405 l 367 405 l 367 1156 l 467 1156 l 467 405 l 833 405 l 833 305 l 467 305 l 467 -417 l 367 -417 l 367 305 z "},"═":{"ha":833,"x_min":0,"x_max":833,"o":"m 833 414 l 0 414 l 0 513 l 833 513 l 833 414 m 833 197 l 0 197 l 0 296 l 833 296 l 833 197 z "},"║":{"ha":833,"x_min":258,"x_max":575,"o":"m 475 -417 l 475 1156 l 575 1156 l 575 -417 l 475 -417 m 258 -417 l 258 1156 l 358 1156 l 358 -417 l 258 -417 z "},"╒":{"ha":833,"x_min":367,"x_max":833,"o":"m 367 -417 l 367 513 l 833 513 l 833 414 l 467 414 l 467 296 l 833 296 l 833 197 l 467 197 l 467 -417 l 367 -417 z "},"╓":{"ha":833,"x_min":258,"x_max":833,"o":"m 258 -417 l 258 405 l 833 405 l 833 304 l 575 304 l 575 -417 l 475 -417 l 475 304 l 358 304 l 358 -417 l 258 -417 z "},"╔":{"ha":833,"x_min":258,"x_max":833,"o":"m 358 -417 l 258 -417 l 258 513 l 833 513 l 833 414 l 358 414 l 358 -417 m 575 197 l 575 -417 l 475 -417 l 475 296 l 833 296 l 833 197 l 575 197 z "},"╕":{"ha":833,"x_min":0,"x_max":467,"o":"m 367 197 l 0 197 l 0 296 l 367 296 l 367 414 l 0 414 l 0 513 l 467 513 l 467 -417 l 367 -417 l 367 197 z "},"╖":{"ha":833,"x_min":0,"x_max":575,"o":"m 258 -417 l 258 305 l 0 305 l 0 405 l 575 405 l 575 -417 l 475 -417 l 475 305 l 358 305 l 358 -417 l 258 -417 z "},"╗":{"ha":833,"x_min":0,"x_max":575,"o":"m 475 -417 l 475 414 l 0 414 l 0 513 l 575 513 l 575 -417 l 475 -417 m 258 197 l 0 197 l 0 296 l 358 296 l 358 -417 l 258 -417 l 258 197 z "},"╘":{"ha":833,"x_min":367,"x_max":833,"o":"m 367 197 l 367 1156 l 467 1156 l 467 513 l 833 513 l 833 414 l 467 414 l 467 296 l 833 296 l 833 197 l 367 197 z "},"╙":{"ha":833,"x_min":258,"x_max":833,"o":"m 833 305 l 258 305 l 258 1156 l 358 1156 l 358 405 l 475 405 l 475 1156 l 575 1156 l 575 405 l 833 405 l 833 305 z "},"╚":{"ha":833,"x_min":258,"x_max":833,"o":"m 358 1156 l 358 296 l 833 296 l 833 197 l 258 197 l 258 1156 l 358 1156 m 575 513 l 833 513 l 833 414 l 475 414 l 475 1156 l 575 1156 l 575 513 z "},"╛":{"ha":833,"x_min":0,"x_max":467,"o":"m 467 197 l 0 197 l 0 296 l 367 296 l 367 414 l 0 414 l 0 513 l 367 513 l 367 1156 l 467 1156 l 467 197 z "},"╜":{"ha":833,"x_min":0,"x_max":575,"o":"m 575 305 l 0 305 l 0 405 l 258 405 l 258 1156 l 358 1156 l 358 405 l 475 405 l 475 1156 l 575 1156 l 575 305 z "},"╝":{"ha":833,"x_min":0,"x_max":575,"o":"m 475 1156 l 575 1156 l 575 197 l 0 197 l 0 296 l 475 296 l 475 1156 m 258 513 l 258 1156 l 358 1156 l 358 414 l 0 414 l 0 513 l 258 513 z "},"╞":{"ha":833,"x_min":367,"x_max":833,"o":"m 367 -417 l 367 1156 l 467 1156 l 467 513 l 833 513 l 833 414 l 467 414 l 467 296 l 833 296 l 833 197 l 467 197 l 467 -417 l 367 -417 z "},"╟":{"ha":833,"x_min":258,"x_max":833,"o":"m 475 -417 l 475 1156 l 575 1156 l 575 405 l 833 405 l 833 305 l 575 305 l 575 -417 l 475 -417 m 258 -417 l 258 1156 l 358 1156 l 358 -417 l 258 -417 z "},"╠":{"ha":833,"x_min":258,"x_max":833,"o":"m 258 -417 l 258 1156 l 358 1156 l 358 -417 l 258 -417 m 475 414 l 475 1156 l 575 1156 l 575 513 l 833 513 l 833 414 l 475 414 m 475 -417 l 475 296 l 833 296 l 833 197 l 575 197 l 575 -417 l 475 -417 z "},"╡":{"ha":833,"x_min":0,"x_max":467,"o":"m 367 197 l 0 197 l 0 296 l 367 296 l 367 414 l 0 414 l 0 513 l 367 513 l 367 1156 l 467 1156 l 467 -417 l 367 -417 l 367 197 z "},"╢":{"ha":833,"x_min":0,"x_max":575,"o":"m 258 -417 l 258 305 l 0 305 l 0 405 l 258 405 l 258 1156 l 358 1156 l 358 -417 l 258 -417 m 475 -417 l 475 1156 l 575 1156 l 575 -417 l 475 -417 z "},"╣":{"ha":833,"x_min":0,"x_max":575,"o":"m 475 -417 l 475 1156 l 575 1156 l 575 -417 l 475 -417 m 358 1156 l 358 414 l 0 414 l 0 513 l 258 513 l 258 1156 l 358 1156 m 258 197 l 0 197 l 0 296 l 358 296 l 358 -417 l 258 -417 l 258 197 z "},"╤":{"ha":833,"x_min":0,"x_max":833,"o":"m 833 414 l 0 414 l 0 513 l 833 513 l 833 414 m 367 197 l 0 197 l 0 296 l 833 296 l 833 197 l 467 197 l 467 -417 l 367 -417 l 367 197 z "},"╥":{"ha":833,"x_min":0,"x_max":833,"o":"m 258 -417 l 258 305 l 0 305 l 0 405 l 833 405 l 833 305 l 575 305 l 575 -417 l 475 -417 l 475 305 l 358 305 l 358 -417 l 258 -417 z "},"╦":{"ha":833,"x_min":0,"x_max":833,"o":"m 833 414 l 0 414 l 0 513 l 833 513 l 833 414 m 258 197 l 0 197 l 0 296 l 358 296 l 358 -417 l 258 -417 l 258 197 m 475 -417 l 475 296 l 833 296 l 833 197 l 575 197 l 575 -417 l 475 -417 z "},"╧":{"ha":833,"x_min":0,"x_max":833,"o":"m 833 414 l 0 414 l 0 513 l 367 513 l 367 1156 l 467 1156 l 467 513 l 833 513 l 833 414 m 833 197 l 0 197 l 0 296 l 833 296 l 833 197 z "},"╨":{"ha":833,"x_min":0,"x_max":833,"o":"m 833 305 l 0 305 l 0 405 l 258 405 l 258 1156 l 358 1156 l 358 405 l 475 405 l 475 1156 l 575 1156 l 575 405 l 833 405 l 833 305 z "},"╩":{"ha":833,"x_min":0,"x_max":833,"o":"m 358 414 l 0 414 l 0 513 l 258 513 l 258 1156 l 358 1156 l 358 414 m 833 414 l 475 414 l 475 1156 l 575 1156 l 575 513 l 833 513 l 833 414 m 833 197 l 0 197 l 0 296 l 833 296 l 833 197 z "},"╪":{"ha":833,"x_min":0,"x_max":833,"o":"m 367 197 l 0 197 l 0 296 l 367 296 l 367 414 l 0 414 l 0 513 l 367 513 l 367 1156 l 467 1156 l 467 513 l 833 513 l 833 414 l 467 414 l 467 296 l 833 296 l 833 197 l 467 197 l 467 -417 l 367 -417 l 367 197 z "},"╫":{"ha":833,"x_min":0,"x_max":833,"o":"m 258 -417 l 258 305 l 0 305 l 0 405 l 258 405 l 258 1156 l 358 1156 l 358 405 l 475 405 l 475 1156 l 575 1156 l 575 405 l 833 405 l 833 305 l 575 305 l 575 -417 l 475 -417 l 475 305 l 358 305 l 358 -417 l 258 -417 z "}}}
